<svg width="301" height="301" viewBox="0 0 301 301" fill="none" xmlns="http://www.w3.org/2000/svg">
<path d="M48.7893 58.2748C50.0507 57.9895 51.3568 57.9621 52.6291 58.194C53.9014 58.426 55.1137 58.9127 56.1933 59.6248C58.3498 61.0606 60.1463 62.9741 61.4433 65.2168C64.0713 69.4588 64.9593 75.1348 65.0433 80.1208C59.5053 79.8448 54.8433 75.4468 52.5753 73.0708C49.0233 69.3028 44.9433 60.3448 48.7893 58.2748Z" fill="#F5F5F5"/>
<path d="M73.9115 83.5469C72.809 82.6103 71.9741 81.3987 71.4914 80.0351C71.0088 78.6715 70.8956 77.2044 71.1635 75.7829C71.4566 74.3688 72.0276 73.027 72.8433 71.8353C73.659 70.6436 74.7033 69.6258 75.9155 68.8409C77.0255 68.1029 78.3874 67.5149 79.6655 67.9049C80.2503 68.1233 80.7665 68.4936 81.1609 68.9776C81.5552 69.4616 81.8136 70.0419 81.9095 70.6589C82.077 71.9002 81.9177 73.1638 81.4475 74.3249C80.0075 78.3449 77.8835 81.9749 73.9115 83.5469Z" fill="#F5F5F5"/>
<path d="M77.1274 95.6129C76.5085 94.7003 75.9838 93.7273 75.5614 92.7089C75.0567 91.6134 74.686 90.4611 74.4574 89.2769C74.1243 87.8502 73.8858 86.403 73.7434 84.9449C73.5093 82.2563 73.9378 79.5514 74.9914 77.0669C75.3205 76.3287 75.7224 75.6252 76.1914 74.9669C76.5514 74.5169 76.7914 74.2889 76.7914 74.3129C76.7914 74.3369 76.0714 75.3569 75.3214 77.2229C74.4036 79.6728 74.0429 82.2962 74.2654 84.9029C74.3977 86.3416 74.6101 87.7718 74.9014 89.1869C75.1028 90.3432 75.4246 91.4754 75.8614 92.5649C76.6954 94.4189 77.2114 95.5769 77.1274 95.6129Z" fill="#E0E0E0"/>
<path d="M52.5212 64.8148C52.9444 65.1792 53.334 65.5808 53.6852 66.0148C54.3992 66.8128 55.4252 67.9828 56.6852 69.4348C59.1872 72.3448 62.6012 76.4008 66.2852 80.9668C69.9692 85.5328 73.1432 89.7748 75.3632 92.8828C76.4852 94.4428 77.3792 95.7088 77.9792 96.5968C78.317 97.0425 78.6161 97.5162 78.8732 98.0128C78.4819 97.6155 78.1246 97.186 77.8052 96.7288L75.0452 93.1288C72.7172 90.0808 69.4772 85.8928 65.8172 81.3268L56.3732 69.6868L53.5172 66.1588C53.1501 65.738 52.8171 65.2885 52.5212 64.8148Z" fill="#E0E0E0"/>
<path d="M70.1434 88.9409C67.6259 87.2192 64.7346 86.122 61.7088 85.7401C58.6829 85.3582 55.6096 85.7027 52.7434 86.7449C51.2914 87.2849 49.7434 88.2989 49.6714 89.8469C49.5994 91.3949 51.1474 92.4989 52.5814 93.0989C55.5901 94.2873 58.8833 94.5585 62.046 93.8783C65.2086 93.1982 68.0991 91.5971 70.3534 89.2769" fill="#F5F5F5"/>
<path d="M56.6252 89.1449C56.8862 89.0053 57.1678 88.9081 57.4592 88.8569C57.9992 88.7069 58.7972 88.5329 59.7872 88.3469C62.3913 87.8444 65.0652 87.8221 67.6772 88.2809C69.1169 88.5784 70.4988 89.1073 71.7692 89.8469C73.4894 90.8765 74.9508 92.2866 76.0412 93.9689C76.2235 94.2004 76.3673 94.4597 76.4672 94.7369C76.3772 94.8029 75.6932 93.7529 74.2772 92.3369C72.4297 90.531 70.0971 89.3011 67.5632 88.7969C65.0123 88.358 62.4077 88.3276 59.8472 88.7069C57.8672 88.9649 56.6432 89.2049 56.6252 89.1449Z" fill="#E0E0E0"/>
<path d="M78.2613 210.747C96.1533 202.059 103.131 181.761 105.477 162.891C105.873 159.741 106.743 156.495 105.687 153.507C104.631 150.519 101.457 148.107 98.4393 148.965C95.9433 149.685 94.4973 152.235 92.8413 154.263C90.6257 156.97 87.6913 158.998 84.3753 160.113C82.2153 160.827 79.6473 161.067 77.8473 159.669C75.3813 157.749 75.6573 153.963 76.1733 150.849L79.0533 133.449C79.5693 130.335 80.0853 127.155 79.5873 124.041C79.0893 120.927 77.3853 117.843 74.5533 116.541C71.7213 115.239 67.7853 116.367 66.6753 119.313C66.2073 120.543 66.2613 121.899 65.9673 123.183C65.6733 124.467 64.8453 125.793 63.5673 125.961C62.2893 126.129 61.1673 125.049 60.3753 123.987C57.6633 120.327 56.1213 115.929 54.7233 111.573C53.3253 107.217 52.0053 102.777 49.6293 98.8828C47.2533 94.9888 43.6293 91.6228 39.2313 90.6568C34.8333 89.6908 29.6313 91.6948 27.7953 95.8948C25.9593 100.095 27.7953 104.973 30.0393 108.975C33.3377 114.907 37.4765 120.331 42.3273 125.079C43.1973 125.937 44.1273 126.879 44.3313 128.079C44.6793 130.263 42.3813 132.015 40.2213 132.369C37.7793 132.771 35.2953 132.129 32.8173 132.033C30.3393 131.937 27.5433 132.585 26.2593 134.733C24.4593 137.733 26.6073 141.477 28.8813 144.081C33.4304 149.294 38.8436 153.684 44.8833 157.059C47.0373 158.259 49.3353 159.381 50.9253 161.289C52.5153 163.197 53.1873 166.173 51.7233 168.189C50.2593 170.205 47.2773 170.451 44.9493 169.623C42.6213 168.795 40.6773 167.145 38.5233 165.945C34.5033 163.647 28.9233 163.059 25.5933 166.323C23.4033 168.471 22.7073 171.831 23.1573 174.879C23.6073 177.927 25.0593 180.711 26.6553 183.327C32.2353 192.471 39.9873 200.355 49.3773 205.377C58.7673 210.399 67.8153 212.805 78.2613 210.777" fill="#EBEBEB"/>
<path d="M75.7234 211.743C76.2274 204.201 76.5634 208.113 75.2914 198.207C74.0194 188.301 71.7574 177.549 68.9914 166.407L66.9094 158.145C66.2194 155.439 65.5414 152.745 64.7074 150.165C63.1053 145.202 61.2284 140.333 59.0854 135.579C57.0754 131.025 54.9994 126.777 53.0254 122.823C51.0514 118.869 49.1434 115.197 47.2474 111.945C44.2946 106.795 40.9381 101.888 37.2094 97.2688C35.8954 95.6368 34.8094 94.4068 34.1014 93.5788L33.2614 92.6428C33.1723 92.5306 33.0718 92.4281 32.9614 92.3368C33.0362 92.4607 33.1226 92.5772 33.2194 92.6848C33.4174 92.9248 33.6814 93.2428 34.0114 93.6568C34.7134 94.5028 35.7454 95.7628 37.0114 97.4128C40.6601 102.074 43.9553 107.002 46.8694 112.155C48.7294 115.413 50.6134 119.067 52.5754 123.021C54.5374 126.975 56.5774 131.235 58.5754 135.783C60.698 140.531 62.5568 145.392 64.1434 150.345C64.9654 152.919 65.6374 155.583 66.3274 158.301C67.0174 161.019 67.7014 163.767 68.4034 166.551C71.1694 177.705 73.4554 188.427 74.7394 198.303C76.0234 208.179 75.7414 204.225 75.2914 211.743" fill="#E0E0E0"/>
<path d="M64.5513 150.099C64.7667 149.69 64.9396 149.259 65.0673 148.815C65.3673 147.981 65.7633 146.763 66.2253 145.245C67.1613 142.209 68.3073 137.979 69.5553 133.311C70.8033 128.643 72.0093 124.431 72.9873 121.425C73.4673 119.919 73.8753 118.701 74.1873 117.867C74.3659 117.441 74.4967 116.996 74.5773 116.541C74.3344 116.933 74.1333 117.349 73.9773 117.783C73.6233 118.599 73.1553 119.793 72.6213 121.293C71.5413 124.293 70.2693 128.493 69.0213 133.155C67.7733 137.817 66.6993 141.939 65.8533 145.155C65.4693 146.589 65.1393 147.801 64.8753 148.755C64.7135 149.188 64.6047 149.639 64.5513 150.099Z" fill="#E0E0E0"/>
<path d="M25.6772 136.233C26.1857 136.433 26.7121 136.583 27.2492 136.683C28.2572 136.935 29.7272 137.283 31.5272 137.799C35.1272 138.783 40.0652 140.307 45.4352 142.233C50.8052 144.159 55.5872 146.127 59.0072 147.633C60.7232 148.383 62.0972 149.025 63.0452 149.433C63.5252 149.694 64.0297 149.907 64.5512 150.069C64.1105 149.746 63.6405 149.464 63.1472 149.229C62.2232 148.731 60.8732 148.029 59.1752 147.231C55.7912 145.617 51.0152 143.589 45.6332 141.651C41.0415 139.985 36.3673 138.555 31.6292 137.367C29.8292 136.917 28.3232 136.611 27.2912 136.425C26.76 136.313 26.2199 136.249 25.6772 136.233Z" fill="#E0E0E0"/>
<path d="M74.9434 197.391C74.9434 197.391 75.0814 197.253 75.2974 196.947L76.2154 195.609C77.0014 194.439 78.0994 192.723 79.4314 190.581C82.0954 186.297 85.5874 180.267 89.3494 173.559C93.1114 166.851 96.5494 160.797 99.1174 156.465C100.377 154.365 101.409 152.631 102.177 151.347C102.507 150.789 102.777 150.327 103.005 149.949C103.112 149.791 103.197 149.619 103.257 149.439C103.257 149.439 103.119 149.577 102.903 149.883L101.943 151.221C101.151 152.391 100.053 154.107 98.7214 156.249C96.0754 160.545 92.5834 166.545 88.8214 173.271C85.0594 179.997 81.6214 186.033 79.0534 190.365C77.7934 192.465 76.7614 194.199 75.9934 195.483L75.1714 196.881C75.0723 197.04 74.9955 197.211 74.9434 197.391Z" fill="#E0E0E0"/>
<path d="M24.4114 171.765C24.561 171.887 24.7265 171.988 24.9034 172.065L26.3434 172.827L31.7434 175.581C36.3094 177.909 42.5794 181.197 49.4974 184.839C56.4154 188.481 62.6974 191.709 67.3414 193.947C69.6454 195.063 71.5414 195.945 72.8314 196.533L74.3434 197.199C74.5142 197.286 74.6957 197.351 74.8834 197.391C74.7337 197.269 74.5682 197.168 74.3914 197.091L72.9274 196.329L67.5274 193.575C62.9614 191.247 56.6914 187.959 49.7734 184.317C42.8554 180.675 36.5734 177.441 31.9354 175.209C29.6254 174.093 27.7354 173.211 26.4394 172.623L24.9514 171.945C24.78 171.862 24.5984 171.801 24.4114 171.765Z" fill="#E0E0E0"/>
<path d="M279.759 261.945C279.759 262.029 222.957 262.101 152.907 262.101C82.8575 262.101 26.0435 262.035 26.0435 261.945C26.0435 261.855 82.8335 261.789 152.907 261.789C222.981 261.789 279.759 261.861 279.759 261.945Z" fill="#263238"/>
<path d="M39.9814 162.579C39.9814 162.579 44.1214 159.783 49.2934 169.701C54.4654 179.619 56.4454 185.349 56.4454 185.349C56.4454 185.349 57.8074 187.425 59.2294 186.045C60.6514 184.665 62.5774 180.777 65.0254 181.455C67.4734 182.133 68.4214 184.965 67.9774 189.117C67.5334 193.269 66.8974 202.401 66.8434 203.223C66.7894 204.045 67.2634 205.221 68.3794 204.423C69.4954 203.625 75.9094 196.365 79.1794 199.623C82.4494 202.881 79.3174 214.233 78.9994 215.481C78.6814 216.729 78.9274 217.281 79.5214 217.563C80.1154 217.845 82.0414 215.217 83.9494 213.225C85.8574 211.233 88.4194 209.247 90.1474 211.281C91.8754 213.315 92.5054 221.811 84.5434 235.695L80.4334 241.887L72.9754 241.545C57.0574 239.835 50.5474 234.345 49.9234 231.747C49.2994 229.149 52.3954 228.243 55.1314 227.871C57.8674 227.499 61.1314 227.493 61.2454 226.833C61.3594 226.173 61.0654 225.663 59.8654 225.189C58.6654 224.715 47.6314 220.581 46.9234 216.027C46.2154 211.473 55.8634 210.555 57.1594 210.105C58.4554 209.655 57.7594 208.581 57.0754 208.149C56.3914 207.717 48.6094 202.863 44.9914 200.781C41.3734 198.699 39.5914 196.359 40.5214 193.893C41.4094 191.493 45.6874 192.243 47.6434 191.901C49.5994 191.559 48.7114 189.237 48.7114 189.237C48.7114 189.237 45.2314 184.275 40.2454 174.237C35.2594 164.199 40.0714 162.495 40.0714 162.495" fill="#0062B8"/>
<path d="M44.6313 171.453C44.6686 171.509 44.7026 171.567 44.7333 171.627L45.0153 172.161L46.0653 174.207L49.9053 181.755C53.1753 188.127 57.7053 196.905 62.6553 206.607C67.6053 216.309 72.1473 225.105 75.3393 231.501C76.9233 234.693 78.2013 237.285 79.0953 239.091L80.0973 241.161L80.3554 241.707C80.4094 241.827 80.4333 241.893 80.4333 241.893C80.4333 241.893 80.3913 241.839 80.3253 241.719L80.0493 241.191C79.7973 240.705 79.4493 239.991 78.9993 239.139C78.0813 237.339 76.7733 234.771 75.1593 231.591C71.9433 225.219 67.4013 216.435 62.4033 206.745C57.4053 197.055 52.9173 188.241 49.7433 181.845L45.9633 174.255C45.5373 173.367 45.2013 172.671 44.9613 172.185C44.8533 171.957 44.7693 171.777 44.7093 171.639C44.6745 171.581 44.6483 171.518 44.6313 171.453Z" fill="#263238"/>
<path d="M62.5474 187.005C62.4536 187.665 62.3153 188.319 62.1334 188.961C61.8454 190.239 61.4734 191.859 61.0594 193.659C60.6454 195.459 60.2554 197.145 59.9434 198.345C59.7814 198.945 59.6434 199.419 59.5354 199.749C59.4946 199.924 59.4279 200.092 59.3374 200.247C59.4393 199.588 59.5755 198.935 59.7454 198.291L60.7834 193.587C61.2034 191.751 61.6114 190.095 61.9414 188.901C62.1094 188.301 62.2534 187.827 62.3614 187.503C62.3988 187.329 62.4615 187.161 62.5474 187.005Z" fill="#263238"/>
<path d="M58.6534 200.397C58.6534 200.469 55.2214 199.593 51.0334 198.429C46.8454 197.265 43.4734 196.269 43.4974 196.191C43.5214 196.113 46.9234 196.995 51.1114 198.153C55.2994 199.311 58.6714 200.319 58.6534 200.397Z" fill="#263238"/>
<path d="M68.2775 217.089C68.0998 217.139 67.9162 217.165 67.7315 217.167C67.3835 217.203 66.8735 217.239 66.2435 217.269C64.9835 217.329 63.2435 217.371 61.3115 217.317C59.3795 217.263 57.6515 217.125 56.3975 216.993C55.7975 216.927 55.2635 216.861 54.9095 216.807C54.7271 216.794 54.5473 216.755 54.3755 216.693C55.0548 216.682 55.7342 216.714 56.4095 216.789C57.6695 216.873 59.4095 216.975 61.3235 217.029C63.2375 217.083 64.9775 217.077 66.2375 217.065C66.9173 217.029 67.5987 217.037 68.2775 217.089Z" fill="#263238"/>
<path d="M74.4695 205.749C74.2354 206.333 73.9566 206.899 73.6355 207.441C73.0835 208.467 72.3095 209.877 71.4395 211.425C70.5695 212.973 69.7655 214.371 69.1715 215.373C68.8757 215.929 68.5367 216.46 68.1575 216.963C68.3915 216.378 68.6704 215.812 68.9915 215.271C69.5435 214.245 70.3175 212.835 71.1875 211.287C72.0575 209.739 72.8615 208.341 73.4555 207.345C73.7523 206.788 74.0913 206.254 74.4695 205.749Z" fill="#263238"/>
<path d="M84.8374 219.405C84.7731 219.615 84.6824 219.817 84.5674 220.005L83.7214 221.559C83.0014 222.861 81.9874 224.655 80.8534 226.629C79.7194 228.603 78.6754 230.385 77.9074 231.663C77.5474 232.263 77.2354 232.761 76.9894 233.175C76.8874 233.365 76.7624 233.543 76.6174 233.703C76.6836 233.493 76.7742 233.291 76.8874 233.103L77.7334 231.549C78.4534 230.241 79.4674 228.447 80.6014 226.473C81.7354 224.499 82.7794 222.723 83.5474 221.445L84.4654 219.933C84.5717 219.745 84.6963 219.568 84.8374 219.405Z" fill="#263238"/>
<path d="M76.7433 233.301C76.5167 233.349 76.2849 233.37 76.0533 233.361C75.6033 233.361 74.9553 233.391 74.1573 233.397C72.5613 233.397 70.3473 233.397 67.9113 233.235C65.4753 233.073 63.2673 232.893 61.6833 232.707C60.8853 232.617 60.2433 232.527 59.8053 232.461C59.5727 232.442 59.3432 232.395 59.1213 232.323C59.3529 232.302 59.5858 232.302 59.8173 232.323L61.7013 232.479C63.2913 232.617 65.4933 232.791 67.9233 232.923C70.3533 233.055 72.5613 233.127 74.1573 233.169L76.0533 233.223C76.2853 233.226 76.5164 233.252 76.7433 233.301Z" fill="#263238"/>
<path d="M271.816 159.279L251.734 178.833L233.23 214.143L212.422 254.073L186.856 242.073L159.22 227.925L176.896 194.157L187.882 156.357C180.118 161.505 165.682 168.519 148.462 164.859C129.778 160.899 138.748 90.4589 138.748 90.4589L159.28 89.9309L161.344 139.593L184.534 129.345L184.57 129.429C185.968 128.829 187.192 128.229 187.84 127.899C200.674 120.897 209.098 120.051 222.868 124.965L242.734 131.565C247.84 133.965 266.662 143.235 271.816 159.279Z" fill="#0062B8"/>
<path d="M201.543 123.489C201.543 123.489 201.081 123.753 200.301 124.311C199.208 125.106 198.237 126.058 197.421 127.137C196.223 128.746 195.269 130.523 194.589 132.411C193.763 134.731 193.056 137.092 192.471 139.485L188.943 152.463C188.481 154.089 188.109 155.421 187.833 156.381C187.707 156.819 187.599 157.173 187.521 157.443C187.492 157.57 187.448 157.693 187.389 157.809C187.397 157.68 187.421 157.553 187.461 157.431C187.527 157.149 187.611 156.795 187.719 156.351C187.965 155.379 188.319 154.041 188.727 152.403C189.615 149.043 190.827 144.465 192.171 139.401C192.76 137 193.477 134.633 194.319 132.309C195.021 130.403 196.008 128.614 197.247 127.005C198.093 125.92 199.105 124.976 200.247 124.209C200.555 124.001 200.876 123.812 201.207 123.645C201.316 123.585 201.428 123.533 201.543 123.489Z" fill="#263238"/>
<g opacity="0.3">
<path d="M194.049 133.443C188.307 148.989 177.981 157.677 163.359 165.465C171.992 164.509 180.265 161.478 187.473 156.633" fill="black"/>
</g>
<g opacity="0.3">
<path d="M212.344 122.379C214.776 161.331 217.208 200.281 219.64 239.229L212.44 254.073L212.344 122.379Z" fill="black"/>
</g>
<path d="M234.952 162.789C234.868 162.825 234.136 160.989 233.11 158.775C232.084 156.561 231.172 154.803 231.25 154.761C231.532 155.091 231.772 155.456 231.964 155.847C232.366 156.543 232.882 157.527 233.392 158.643C233.902 159.759 234.322 160.785 234.592 161.541C234.768 161.938 234.889 162.358 234.952 162.789Z" fill="#FAFAFA"/>
<path d="M251.295 154.575C250.058 155.537 248.755 156.411 247.395 157.191C246.093 158.065 244.734 158.85 243.327 159.543C244.572 158.588 245.877 157.714 247.233 156.927C248.534 156.054 249.891 155.268 251.295 154.575Z" fill="#FAFAFA"/>
<path d="M244.203 148.659C243.995 147.609 243.887 146.543 243.879 145.473C243.779 144.405 243.779 143.331 243.879 142.263C244.095 143.313 244.203 144.383 244.203 145.455C244.308 146.52 244.308 147.593 244.203 148.659Z" fill="#FAFAFA"/>
<path d="M260.517 147.519C258.504 146.52 256.588 145.337 254.793 143.985C255.823 144.437 256.81 144.984 257.739 145.617C258.723 146.163 259.653 146.799 260.517 147.519Z" fill="#FAFAFA"/>
<path d="M235.575 179.883C236.019 178.463 236.56 177.076 237.195 175.731C237.739 174.347 238.376 173.002 239.103 171.705C238.662 173.125 238.121 174.513 237.483 175.857C236.941 177.241 236.304 178.587 235.575 179.883Z" fill="#FAFAFA"/>
<path d="M228.309 187.239C227.733 186.432 227.242 185.567 226.846 184.659C226.353 183.794 225.951 182.882 225.646 181.935C226.223 182.742 226.715 183.607 227.115 184.515C227.609 185.378 228.009 186.291 228.309 187.239Z" fill="#FAFAFA"/>
<path d="M234.388 197.145C233.408 197.569 232.367 197.834 231.304 197.931C230.256 198.133 229.182 198.166 228.124 198.027C228.124 197.937 229.534 197.871 231.262 197.625C232.99 197.379 234.364 197.049 234.388 197.145Z" fill="#FAFAFA"/>
<path d="M242.181 186.309C242.442 185.307 242.8 184.332 243.249 183.399C243.604 182.426 244.056 181.491 244.599 180.609C244.343 181.612 243.987 182.586 243.537 183.519C243.185 184.494 242.731 185.429 242.181 186.309Z" fill="#FAFAFA"/>
<path d="M223.228 209.193C223.15 209.241 222.268 208.023 221.056 206.625C219.844 205.227 218.764 204.177 218.83 204.111C220.631 205.483 222.129 207.213 223.228 209.193Z" fill="#FAFAFA"/>
<path d="M219.789 184.587C219.364 185.635 218.84 186.639 218.223 187.587C217.699 188.594 217.082 189.55 216.381 190.443C216.815 189.398 217.341 188.394 217.953 187.443C218.476 186.437 219.091 185.481 219.789 184.587Z" fill="#FAFAFA"/>
<path d="M222.237 176.145C221.101 176.008 219.978 175.771 218.883 175.437C217.763 175.201 216.667 174.863 215.607 174.429C216.745 174.562 217.867 174.799 218.961 175.137C220.082 175.371 221.179 175.708 222.237 176.145Z" fill="#FAFAFA"/>
<path d="M222.094 158.745C222.753 159.515 223.355 160.334 223.894 161.193C224.512 161.99 225.069 162.832 225.562 163.713C224.823 163.017 224.178 162.228 223.641 161.367C223.011 160.566 222.491 159.684 222.094 158.745Z" fill="#FAFAFA"/>
<path d="M216.544 157.875C215.234 159.293 213.773 160.565 212.188 161.667C212.804 160.921 213.5 160.245 214.264 159.651C214.958 158.98 215.723 158.384 216.544 157.875Z" fill="#FAFAFA"/>
<path d="M220.929 148.773C218.903 147.175 217.214 145.191 215.961 142.935C216.039 142.887 217.023 144.291 218.397 145.899C219.771 147.507 220.995 148.707 220.929 148.773Z" fill="#FAFAFA"/>
<path d="M236.277 145.971C235.193 146.469 234.066 146.871 232.911 147.171C231.788 147.569 230.631 147.866 229.455 148.059C230.542 147.566 231.668 147.164 232.821 146.859C233.945 146.462 235.101 146.165 236.277 145.971Z" fill="#FAFAFA"/>
<path d="M214.672 131.355C214.582 131.355 214.623 129.981 214.407 128.313C214.191 126.645 213.807 125.313 213.915 125.313C214.73 127.222 214.992 129.322 214.672 131.373V131.355Z" fill="#FAFAFA"/>
<path d="M201.015 174.861C200.573 175.245 200.102 175.594 199.605 175.905C198.717 176.505 197.505 177.399 196.209 178.419C194.913 179.439 193.773 180.405 192.957 181.113C192.535 181.521 192.084 181.898 191.607 182.241C191.96 181.769 192.363 181.337 192.807 180.951C193.828 179.97 194.9 179.043 196.017 178.173C197.13 177.298 198.285 176.479 199.479 175.719C199.963 175.385 200.478 175.098 201.015 174.861Z" fill="#FAFAFA"/>
<path d="M200.229 170.049C200.151 170.091 199.143 168.525 197.745 166.695C196.347 164.865 195.111 163.473 195.177 163.407C195.519 163.639 195.824 163.92 196.083 164.241C196.759 164.962 197.398 165.717 197.997 166.503C198.693 167.427 199.275 168.303 199.665 168.951C199.904 169.289 200.094 169.658 200.229 170.049Z" fill="#FAFAFA"/>
<path d="M203.883 151.083C202.028 152.345 200.06 153.431 198.003 154.329C198.904 153.656 199.864 153.068 200.871 152.571C201.826 151.981 202.835 151.483 203.883 151.083Z" fill="#FAFAFA"/>
<path d="M200.266 142.803C199.888 142.582 199.542 142.309 199.24 141.993C198.462 141.283 197.738 140.517 197.074 139.701C196.402 138.886 195.791 138.024 195.244 137.121C194.991 136.763 194.789 136.371 194.644 135.957C194.728 135.909 195.754 137.613 197.308 139.503C198.862 141.393 200.344 142.731 200.266 142.803Z" fill="#FAFAFA"/>
<path d="M206.493 142.629C206.767 141.718 207.137 140.839 207.597 140.007C207.968 139.129 208.433 138.294 208.983 137.517C208.713 138.429 208.343 139.308 207.879 140.139C207.512 141.018 207.047 141.853 206.493 142.629Z" fill="#FAFAFA"/>
<path d="M204.832 133.155C204.736 133.155 204.832 131.289 204.484 129.039C204.136 126.789 203.47 125.049 203.56 125.013C203.786 125.356 203.958 125.733 204.07 126.129C204.401 127.058 204.644 128.016 204.796 128.991C204.945 129.965 205.007 130.951 204.982 131.937C204.997 132.348 204.947 132.76 204.832 133.155Z" fill="#FAFAFA"/>
<path d="M206.343 180.945C206.303 180.36 206.303 179.772 206.343 179.187C206.385 178.107 206.415 176.613 206.373 174.987C206.331 173.361 206.223 171.849 206.133 170.787C206.052 170.207 206.016 169.621 206.025 169.035C206.192 169.599 206.302 170.178 206.355 170.763C206.542 172.168 206.652 173.582 206.685 174.999C206.723 176.414 206.683 177.83 206.565 179.241C206.551 179.815 206.476 180.386 206.343 180.945Z" fill="#FAFAFA"/>
<path d="M205.455 195.879C204.617 195.107 203.729 194.392 202.797 193.737C201.813 193.168 200.793 192.663 199.743 192.225C200.893 192.42 201.993 192.844 202.976 193.472C203.959 194.099 204.806 194.918 205.467 195.879H205.455Z" fill="#FAFAFA"/>
<path d="M212.943 205.119C211.622 205.98 210.245 206.751 208.821 207.429C207.447 208.201 206.022 208.879 204.555 209.457C205.879 208.601 207.255 207.832 208.677 207.153C210.052 206.38 211.478 205.701 212.943 205.119Z" fill="#FAFAFA"/>
<path d="M191.835 209.217C190.741 207.998 189.726 206.709 188.799 205.359C187.786 204.069 186.857 202.716 186.015 201.309C187.107 202.532 188.121 203.822 189.051 205.173C190.062 206.462 190.992 207.813 191.835 209.217Z" fill="#FAFAFA"/>
<path d="M185.343 192.153C185.24 191.751 185.193 191.337 185.205 190.923C185.175 190.161 185.163 189.123 185.205 187.923C185.247 186.723 185.367 185.709 185.469 184.923C185.498 184.514 185.581 184.11 185.715 183.723C185.805 183.723 185.625 185.607 185.517 187.923C185.409 190.239 185.403 192.153 185.343 192.153Z" fill="#FAFAFA"/>
<path d="M178.275 221.283C177.046 220.461 175.875 219.555 174.771 218.571C173.602 217.665 172.497 216.679 171.465 215.619C172.695 216.44 173.866 217.347 174.969 218.331C176.139 219.236 177.244 220.223 178.275 221.283Z" fill="#FAFAFA"/>
<path d="M182.499 220.389C182.306 218.829 182.215 217.257 182.229 215.685C182.143 214.115 182.159 212.542 182.277 210.975C182.471 212.535 182.561 214.107 182.547 215.679C182.634 217.248 182.618 218.822 182.499 220.389Z" fill="#FAFAFA"/>
<path d="M190.839 238.455C190.839 238.503 190.089 238.209 188.883 237.819C185.743 236.808 182.448 236.359 179.151 236.493C177.885 236.541 177.105 236.631 177.099 236.577C177.272 236.509 177.454 236.467 177.639 236.451C177.987 236.385 178.503 236.325 179.139 236.271C182.466 236.019 185.807 236.478 188.943 237.615C189.421 237.787 189.887 237.988 190.341 238.215C190.519 238.269 190.687 238.35 190.839 238.455Z" fill="#FAFAFA"/>
<path d="M197.709 241.755C198.197 242.01 198.652 242.322 199.065 242.685C201.141 244.329 203.02 246.207 204.663 248.283C205.027 248.696 205.339 249.151 205.593 249.639C205.197 249.266 204.828 248.865 204.489 248.439C203.829 247.677 202.893 246.639 201.807 245.553C200.721 244.467 199.683 243.537 198.921 242.871C198.49 242.529 198.085 242.156 197.709 241.755Z" fill="#FAFAFA"/>
<path d="M200.704 210.495C200.094 209.372 199.575 208.202 199.15 206.997C198.632 205.833 198.208 204.629 197.884 203.397C198.493 204.52 199.012 205.69 199.438 206.895C199.956 208.059 200.379 209.263 200.704 210.495Z" fill="#FAFAFA"/>
<path d="M176.601 149.685C176.346 150.062 176.037 150.399 175.683 150.687C174.883 151.431 174.025 152.109 173.115 152.715C172.205 153.325 171.246 153.859 170.247 154.311C169.846 154.525 169.415 154.68 168.969 154.773C168.933 154.683 170.835 153.867 172.941 152.457C175.047 151.047 176.535 149.613 176.601 149.685Z" fill="#FAFAFA"/>
<path d="M178.143 143.325C178.019 141.541 178.104 139.749 178.395 137.985C178.52 139.769 178.435 141.561 178.143 143.325Z" fill="#FAFAFA"/>
<path d="M166.173 148.665C165.098 148.345 164.056 147.925 163.059 147.411C162.014 146.99 161.01 146.474 160.059 145.869C161.133 146.192 162.175 146.612 163.173 147.123C164.219 147.544 165.223 148.06 166.173 148.665Z" fill="#FAFAFA"/>
<path d="M187.527 140.529C187.458 139.422 187.492 138.311 187.629 137.211C187.658 136.102 187.795 134.999 188.037 133.917C188.107 135.023 188.075 136.134 187.941 137.235C187.908 138.343 187.769 139.446 187.527 140.529Z" fill="#FAFAFA"/>
<path d="M159.813 161.385C158.598 161.078 157.442 160.571 156.393 159.885C155.29 159.286 154.298 158.503 153.459 157.569C153.519 157.497 154.797 158.571 156.549 159.621C158.301 160.671 159.849 161.295 159.813 161.385Z" fill="#FAFAFA"/>
<path d="M150.915 149.175C150.143 150.24 149.288 151.243 148.359 152.175C147.505 153.185 146.574 154.128 145.575 154.995C147.2 152.909 148.986 150.953 150.915 149.145V149.175Z" fill="#FAFAFA"/>
<path d="M150.153 138.237C149.131 137.891 148.181 137.36 147.351 136.671C146.462 136.064 145.688 135.304 145.065 134.427C145.131 134.361 146.139 135.375 147.543 136.419C148.947 137.463 150.195 138.159 150.153 138.237Z" fill="#FAFAFA"/>
<path d="M144.543 140.529C144.204 141.171 143.773 141.761 143.265 142.281C142.834 142.867 142.323 143.39 141.747 143.835C142.516 142.605 143.458 141.491 144.543 140.529Z" fill="#FAFAFA"/>
<path d="M156.543 120.225C155.845 121.321 155.06 122.361 154.197 123.333C153.417 124.374 152.552 125.349 151.611 126.249C152.311 125.151 153.095 124.11 153.957 123.135C154.741 122.098 155.606 121.125 156.543 120.225Z" fill="#FAFAFA"/>
<path d="M146.266 122.535C145.34 121.714 144.485 120.817 143.71 119.853C142.859 118.959 142.084 117.996 141.394 116.973C142.32 117.791 143.175 118.686 143.95 119.649C144.801 120.545 145.575 121.51 146.266 122.535Z" fill="#FAFAFA"/>
<path d="M151.413 109.503C150.725 108.614 150.123 107.661 149.613 106.659C149.019 105.706 148.511 104.702 148.095 103.659C148.783 104.551 149.385 105.505 149.895 106.509C150.49 107.459 150.999 108.461 151.413 109.503Z" fill="#FAFAFA"/>
<path d="M151.143 101.097C151.071 101.037 151.971 99.8969 152.685 98.2829C153.399 96.6689 153.657 95.2469 153.753 95.2829C153.604 97.4753 152.679 99.5428 151.143 101.115V101.097Z" fill="#FAFAFA"/>
<path d="M141.249 100.599C141.156 99.3305 141.411 98.0608 141.987 96.9269C142.36 96.1132 142.854 95.3606 143.451 94.6949C143.68 94.4017 143.964 94.1552 144.285 93.9689C143.507 94.9229 142.831 95.9566 142.269 97.0529C141.803 98.1949 141.461 99.3837 141.249 100.599Z" fill="#FAFAFA"/>
<path d="M227.758 86.3249C227.482 83.8379 227.452 81.3298 227.668 78.8369C227.891 76.3288 228.852 73.9429 230.428 71.9789C232.066 70.0829 234.586 68.8649 237.064 69.1829C238.6 69.3809 240.064 70.1369 241.594 70.0949C243.394 70.0409 244.936 68.9369 246.562 68.1989C249.125 67.0352 251.997 66.7342 254.746 67.3409C256.194 67.614 257.536 68.2922 258.616 69.2969C259.147 69.8038 259.541 70.4376 259.761 71.1387C259.98 71.8399 260.017 72.5853 259.87 73.3049C261.683 73.2253 263.498 73.3846 265.27 73.7789C267.043 74.1786 268.591 75.2549 269.584 76.7789C270.478 78.3449 270.418 80.5229 269.134 81.7889C269.979 81.6756 270.836 81.8788 271.541 82.3596C272.245 82.8403 272.747 83.5645 272.95 84.3929C273.109 85.2312 273.024 86.0977 272.705 86.8891C272.386 87.6805 271.846 88.3635 271.15 88.8569C269.472 89.8842 267.484 90.2838 265.54 89.9848C263.872 89.6668 261.94 89.1989 260.602 88.1849" fill="#263238"/>
<path d="M226.455 142.845C229.766 143.695 233.278 143.202 236.226 141.473C239.174 139.745 241.319 136.921 242.193 133.617C243.207 129.771 244.035 126.549 244.035 126.549C244.035 126.549 254.061 128.271 257.379 118.749C260.697 109.227 266.379 86.8228 266.379 86.8228C261.743 82.6766 256.084 79.8428 249.986 78.6141C243.889 77.3853 237.574 77.806 231.693 79.8328L229.893 80.4328L217.155 126.831C216.694 128.493 216.57 130.231 216.79 131.942C217.009 133.653 217.569 135.303 218.435 136.795C219.302 138.287 220.457 139.591 221.835 140.629C223.212 141.668 224.783 142.422 226.455 142.845Z" fill="#B78876"/>
<path d="M244.095 126.417C239.669 125.022 235.757 122.343 232.857 118.719C232.857 118.719 233.493 126.561 243.291 128.919L244.095 126.417Z" fill="#AA6550"/>
<path d="M227.788 90.7409C227.65 90.6149 221.89 86.6069 219.916 93.1949C217.942 99.7829 224.956 100.395 225.022 100.221C225.088 100.047 227.788 90.7409 227.788 90.7409Z" fill="#B78876"/>
<path d="M223.743 97.1189C223.743 97.1189 223.605 97.1669 223.383 97.1969C223.082 97.2219 222.782 97.1318 222.543 96.9449C221.943 96.4829 221.673 95.1989 221.997 94.0049C222.148 93.4346 222.425 92.9056 222.807 92.4569C222.934 92.2741 223.102 92.1242 223.299 92.0198C223.495 91.9154 223.713 91.8596 223.935 91.8569C224.081 91.8554 224.222 91.907 224.333 92.0019C224.443 92.0969 224.515 92.2287 224.535 92.3729C224.571 92.5829 224.487 92.7029 224.535 92.7269C224.583 92.7509 224.709 92.6549 224.733 92.3669C224.746 92.1945 224.7 92.023 224.601 91.8809C224.531 91.7836 224.441 91.7016 224.338 91.6397C224.235 91.5779 224.121 91.5375 224.001 91.5209C223.715 91.492 223.426 91.5376 223.162 91.6532C222.898 91.7688 222.668 91.9506 222.495 92.1809C222.043 92.6659 221.717 93.2554 221.547 93.8969C221.187 95.2349 221.493 96.6809 222.363 97.2449C222.526 97.3488 222.709 97.4151 222.9 97.439C223.091 97.4629 223.285 97.4437 223.467 97.3829C223.701 97.2749 223.779 97.1429 223.743 97.1189Z" fill="#AA6550"/>
<path d="M258.309 100.575C258.192 100.936 257.938 101.236 257.601 101.41C257.264 101.584 256.871 101.618 256.509 101.505C256.332 101.46 256.165 101.381 256.019 101.271C255.872 101.161 255.749 101.022 255.657 100.864C255.565 100.706 255.505 100.531 255.481 100.349C255.458 100.168 255.471 99.9834 255.519 99.8068C255.635 99.4517 255.885 99.1555 256.215 98.9809C256.545 98.8062 256.931 98.7668 257.289 98.8708C257.47 98.9128 257.64 98.9907 257.79 99.0998C257.94 99.209 258.066 99.3472 258.161 99.5063C258.256 99.6653 258.319 99.8419 258.344 100.025C258.37 100.209 258.358 100.396 258.309 100.575Z" fill="#263238"/>
<path d="M260.085 99.6509C259.857 99.7709 259.083 98.6669 257.619 98.1749C256.155 97.6829 254.829 98.0609 254.733 97.8269C254.679 97.7249 254.961 97.4609 255.543 97.2749C256.33 97.0428 257.169 97.0638 257.943 97.3349C258.706 97.5874 259.369 98.0772 259.833 98.7329C260.151 99.2309 260.193 99.6029 260.085 99.6509Z" fill="#263238"/>
<path d="M243.909 95.7449C243.793 96.1001 243.544 96.3962 243.214 96.5709C242.883 96.7455 242.498 96.785 242.139 96.6809C241.962 96.6363 241.795 96.5567 241.648 96.4467C241.502 96.3367 241.379 96.1985 241.287 96.0403C241.195 95.8821 241.135 95.7071 241.111 95.5255C241.088 95.3439 241.101 95.1594 241.149 94.9829C241.264 94.6269 241.513 94.3297 241.844 94.1549C242.175 93.98 242.56 93.9413 242.919 94.0469C243.097 94.0915 243.264 94.1711 243.41 94.2811C243.557 94.3912 243.68 94.5293 243.772 94.6875C243.864 94.8457 243.924 95.0207 243.947 95.2023C243.971 95.3839 243.958 95.5684 243.909 95.7449Z" fill="#263238"/>
<path d="M245.601 95.0909C245.373 95.2169 244.593 94.1069 243.129 93.6149C241.665 93.1229 240.345 93.5009 240.243 93.2669C240.195 93.1649 240.471 92.9009 241.059 92.7209C241.845 92.4885 242.685 92.5074 243.459 92.7749C244.223 93.0293 244.887 93.5186 245.355 94.1729C245.661 94.6709 245.709 95.0429 245.601 95.0909Z" fill="#263238"/>
<path d="M247.269 107.745C247.269 107.661 248.254 107.805 249.79 108.111C250.18 108.201 250.558 108.243 250.708 108.009C250.868 107.63 250.91 107.212 250.828 106.809C250.78 105.783 250.732 104.709 250.678 103.587C250.504 99.0209 250.51 95.3129 250.678 95.3069C250.846 95.3009 251.152 99.0029 251.326 103.569C251.362 104.691 251.392 105.765 251.422 106.791C251.508 107.32 251.404 107.862 251.128 108.321C251.029 108.435 250.906 108.525 250.768 108.584C250.63 108.643 250.48 108.67 250.33 108.663C250.103 108.652 249.879 108.609 249.664 108.537C248.17 108.123 247.245 107.823 247.269 107.745Z" fill="#263238"/>
<path d="M242.619 107.307C242.859 107.373 242.331 108.963 243.315 110.547C244.299 112.131 246.045 112.527 245.985 112.749C245.985 112.857 245.499 112.935 244.785 112.713C243.85 112.414 243.051 111.793 242.529 110.961C242.024 110.164 241.852 109.201 242.049 108.279C242.205 107.595 242.511 107.259 242.619 107.307Z" fill="#263238"/>
<path d="M260.41 96.8968C260.044 97.1428 259.15 96.4588 257.944 96.0328C256.738 95.6068 255.628 95.5048 255.508 95.0788C255.46 94.8748 255.736 94.5928 256.288 94.4308C257.017 94.2553 257.783 94.3008 258.487 94.5615C259.191 94.8222 259.802 95.2863 260.242 95.8948C260.554 96.3808 260.578 96.7708 260.41 96.8968Z" fill="#263238"/>
<path d="M245.469 89.1449C245.247 89.2649 244.87 89.0669 244.444 88.8089C243.892 88.4797 243.314 88.1967 242.715 87.9629C242.109 87.7446 241.485 87.58 240.85 87.4709C240.34 87.3689 239.944 87.2909 239.854 87.0509C239.764 86.8109 240.052 86.4509 240.7 86.2109C241.562 85.9385 242.491 85.9618 243.338 86.277C244.186 86.5922 244.904 87.1813 245.379 87.9509C245.709 88.5809 245.679 89.0489 245.469 89.1449Z" fill="#263238"/>
<path d="M265.882 89.9369C260.871 89.6453 256.083 87.7643 252.214 84.5669C247.906 81.0389 242.512 78.5669 241.042 79.2629C239.572 79.9589 238.174 84.9029 233.026 85.2629C233.026 85.2629 231.19 94.8929 227.458 93.6629C223.726 92.4329 229.468 78.2009 229.468 78.2009L239.818 75.7649L250.42 76.1549L259.942 78.3149L268.18 83.0489L265.882 89.9369Z" fill="#263238"/>
<path d="M212.421 52.1669H77.7034V261.951H212.421V52.1669Z" fill="#FAFAFA"/>
<path d="M212.421 261.945C212.421 260.655 212.361 175.455 212.277 52.1609L212.421 52.3049H77.7214L77.8834 52.1489C77.8834 131.517 77.8834 204.597 77.8474 261.933L77.7214 261.807L212.439 261.933L77.7214 262.053H77.6014V261.945C77.6014 204.609 77.6014 131.529 77.5654 52.1609V52.0049H77.7394H212.439H212.583V52.1489C212.481 175.461 212.421 260.661 212.421 261.945Z" fill="#263238"/>
<path d="M113.811 98.8829H96.5733C96.0015 98.8829 95.453 98.6561 95.0481 98.2524C94.6432 97.8486 94.4149 97.3007 94.4133 96.7289V72.8669C94.4149 72.2951 94.6432 71.7472 95.0481 71.3434C95.453 70.9396 96.0015 70.7129 96.5733 70.7129H107.505L115.965 79.4309V96.7289C115.965 97.3002 115.738 97.848 115.334 98.252C114.93 98.656 114.383 98.8829 113.811 98.8829Z" fill="#0062B8"/>
<path d="M107.505 70.7129V77.4269C107.507 77.9579 107.719 78.4667 108.094 78.8422C108.47 79.2177 108.978 79.4293 109.509 79.4309H115.965L107.505 70.7129Z" fill="#0062B8"/>
<g opacity="0.2">
<path d="M107.595 78.0149C107.598 78.523 107.775 79.015 108.095 79.409C108.416 79.8031 108.862 80.0754 109.359 80.1809L109.575 80.2289C110.415 80.3789 115.965 81.3629 115.965 81.2369V79.4369H109.509C109.509 79.4369 107.901 79.3769 107.595 78.0149Z" fill="black"/>
</g>
<g opacity="0.3">
<path d="M107.505 70.7129V77.4269C107.507 77.9579 107.719 78.4667 108.094 78.8422C108.47 79.2177 108.978 79.4293 109.509 79.4309H115.965L107.505 70.7129Z" fill="white"/>
</g>
<path d="M106.059 77.1449C104.735 77.2991 103.401 77.3513 102.069 77.3009C100.739 77.3514 99.4075 77.2993 98.0854 77.1449C99.4075 76.9905 100.739 76.9383 102.069 76.9889C103.401 76.9385 104.735 76.9906 106.059 77.1449Z" fill="#FAFAFA"/>
<path d="M111.207 80.9488C111.207 81.0328 108.273 81.1048 104.649 81.1048C101.025 81.1048 98.0854 81.0328 98.0854 80.9488C98.0854 80.8648 101.025 80.7928 104.649 80.7928C108.273 80.7928 111.207 80.8588 111.207 80.9488Z" fill="#FAFAFA"/>
<path d="M112.389 84.1169C112.389 84.2069 109.191 84.2729 105.237 84.2729C101.283 84.2729 98.0854 84.2069 98.0854 84.1169C98.0854 84.0269 101.289 83.9609 105.237 83.9609C109.185 83.9609 112.389 84.0329 112.389 84.1169Z" fill="#FAFAFA"/>
<path d="M112.389 87.1108C112.389 87.1948 109.191 87.2668 105.237 87.2668C101.283 87.2668 98.0854 87.1948 98.0854 87.1108C98.0854 87.0268 101.289 86.9548 105.237 86.9548C109.185 86.9548 112.389 87.0208 112.389 87.1108Z" fill="#FAFAFA"/>
<path d="M112.389 90.0989C112.389 90.1889 109.191 90.2549 105.237 90.2549C101.283 90.2549 98.0854 90.1889 98.0854 90.0989C98.0854 90.0089 101.289 89.9429 105.237 89.9429C109.185 89.9429 112.389 90.0149 112.389 90.0989Z" fill="#FAFAFA"/>
<path d="M112.389 93.0929C112.389 93.1769 109.191 93.2489 105.237 93.2489C101.283 93.2489 98.0854 93.1769 98.0854 93.0929C98.0854 93.0089 101.289 92.9369 105.237 92.9369C109.185 92.9369 112.389 93.0029 112.389 93.0929Z" fill="#FAFAFA"/>
<path d="M121.995 82.9709H120.195V82.3109H124.581V82.9709H122.781V87.6149H122.031L121.995 82.9709Z" fill="#263238"/>
<path d="M129.237 86.9549V87.6149H125.391V82.3109H129.129V82.9709H126.129V84.5969H128.787V85.2449H126.129V86.9549H129.237Z" fill="#263238"/>
<path d="M134.007 87.6148L132.861 85.9828C132.752 85.9892 132.641 85.9892 132.531 85.9828H131.223V87.5968H130.461V82.2928H132.543C133.923 82.2928 134.751 82.9888 134.751 84.1408C134.77 84.5093 134.666 84.8735 134.455 85.1764C134.244 85.4793 133.939 85.7038 133.587 85.8148L134.847 87.6148H134.007ZM134.007 84.1588C134.007 83.4028 133.503 82.9588 132.531 82.9588H131.223V85.3588H132.507C133.479 85.3588 133.983 84.9448 133.983 84.1588H134.007Z" fill="#263238"/>
<path d="M140.883 87.6149V83.7449L138.963 86.9609H138.615L136.701 83.7689V87.6089H135.975V82.3049H136.575L138.783 86.0309L140.961 82.3049H141.561V87.6089L140.883 87.6149Z" fill="#263238"/>
<path d="M142.743 87.0089L143.019 86.4089C143.515 86.8078 144.135 87.0202 144.771 87.0089C145.689 87.0089 146.079 86.6489 146.079 86.1869C146.079 84.8909 142.869 85.7129 142.869 83.7449C142.869 82.9229 143.505 82.2269 144.897 82.2269C145.5 82.2151 146.092 82.3799 146.601 82.7009L146.355 83.3009C145.919 83.0244 145.414 82.8768 144.897 82.8749C143.997 82.8749 143.613 83.2529 143.613 83.7149C143.613 85.0049 146.823 84.1949 146.823 86.1149C146.823 86.9249 146.169 87.6209 144.771 87.6209C144.045 87.6566 143.329 87.4405 142.743 87.0089Z" fill="#263238"/>
<path d="M149.511 84.9448C149.49 84.383 149.637 83.8275 149.933 83.3498C150.23 82.8721 150.662 82.4939 151.175 82.2638C151.688 82.0337 152.258 81.9622 152.812 82.0585C153.366 82.1548 153.879 82.4145 154.284 82.8043C154.689 83.194 154.969 83.696 155.087 84.2458C155.204 84.7955 155.155 85.368 154.945 85.8896C154.736 86.4112 154.374 86.8581 153.909 87.173C153.443 87.488 152.894 87.6564 152.331 87.6569C151.966 87.674 151.6 87.6164 151.257 87.4876C150.915 87.3587 150.602 87.1614 150.338 86.9076C150.074 86.6538 149.865 86.3488 149.722 86.0113C149.58 85.6739 149.508 85.311 149.511 84.9448ZM154.383 84.9448C154.387 84.5368 154.269 84.1369 154.045 83.796C153.821 83.4551 153.5 83.1885 153.124 83.0301C152.748 82.8718 152.333 82.8288 151.933 82.9067C151.532 82.9845 151.164 83.1797 150.874 83.4674C150.585 83.7551 150.388 84.1223 150.308 84.5224C150.227 84.9225 150.268 85.3374 150.424 85.7144C150.58 86.0914 150.845 86.4134 151.185 86.6396C151.524 86.8659 151.923 86.986 152.331 86.9848C152.602 86.994 152.872 86.9475 153.124 86.8484C153.377 86.7492 153.606 86.5995 153.798 86.4084C153.991 86.2173 154.142 85.9888 154.242 85.7371C154.343 85.4854 154.391 85.2158 154.383 84.9448Z" fill="#263238"/>
<path d="M157.059 82.9709V84.8189H159.717V85.4729H157.059V87.6149H156.303V82.3109H160.041V82.9709H157.059Z" fill="#263238"/>
<path d="M162.663 87.0089L162.945 86.4089C163.439 86.807 164.057 87.0193 164.691 87.0089C165.609 87.0089 166.005 86.6489 166.005 86.1869C166.005 84.8909 162.795 85.7129 162.795 83.7449C162.795 82.9229 163.431 82.2269 164.823 82.2269C165.425 82.2162 166.017 82.3809 166.527 82.7009L166.275 83.3009C165.841 83.0252 165.338 82.8776 164.823 82.8749C163.923 82.8749 163.533 83.2529 163.533 83.7149C163.533 85.0049 166.743 84.1949 166.743 86.1149C166.743 86.9249 166.095 87.6209 164.691 87.6209C163.965 87.6557 163.249 87.4396 162.663 87.0089Z" fill="#263238"/>
<path d="M171.7 86.9549V87.6149H167.854V82.3109H171.592V82.9709H168.592V84.5969H171.25V85.2449H168.592V86.9549H171.7Z" fill="#263238"/>
<path d="M176.469 87.6148L175.329 85.9828C175.218 85.989 175.105 85.989 174.993 85.9828H173.685V87.5968H172.929V82.2928H174.993C176.373 82.2928 177.207 82.9888 177.207 84.1408C177.225 84.5101 177.12 84.8748 176.909 85.1778C176.697 85.4808 176.39 85.7049 176.037 85.8148L177.297 87.6148H176.469ZM176.469 84.1588C176.469 83.4028 175.965 82.9588 174.993 82.9588H173.709V85.3588H174.993C175.941 85.3588 176.445 84.9448 176.445 84.1588H176.469Z" fill="#263238"/>
<path d="M183.033 82.3109L180.711 87.6149H179.943L177.609 82.3109H178.431L180.339 86.6669L182.259 82.3109H183.033Z" fill="#263238"/>
<path d="M183.711 82.3109H184.467V87.6149H183.711V82.3109Z" fill="#263238"/>
<path d="M185.625 84.9448C185.621 84.5793 185.691 84.2166 185.832 83.8792C185.973 83.5418 186.181 83.2367 186.444 82.9827C186.707 82.7287 187.019 82.5312 187.361 82.4022C187.703 82.2733 188.068 82.2156 188.433 82.2328C188.809 82.2178 189.184 82.284 189.532 82.4269C189.88 82.5698 190.193 82.786 190.449 83.0608L189.957 83.5348C189.765 83.3345 189.533 83.1774 189.275 83.074C189.017 82.9705 188.741 82.9231 188.463 82.9348C188.126 82.9362 187.793 83.0214 187.497 83.1828C187.2 83.3443 186.948 83.5768 186.764 83.8596C186.579 84.1424 186.467 84.4666 186.439 84.8032C186.411 85.1398 186.466 85.4781 186.601 85.7879C186.735 86.0976 186.945 86.3691 187.21 86.578C187.476 86.7868 187.789 86.9265 188.121 86.9845C188.454 87.0425 188.796 87.017 189.117 86.9102C189.437 86.8034 189.726 86.6188 189.957 86.3728L190.449 86.8468C190.192 87.1229 189.878 87.3403 189.529 87.4842C189.18 87.6281 188.805 87.6952 188.427 87.6808C188.061 87.6973 187.694 87.6384 187.351 87.5076C187.008 87.3768 186.696 87.177 186.433 86.9205C186.17 86.664 185.963 86.3563 185.824 86.0165C185.685 85.6766 185.618 85.3119 185.625 84.9448Z" fill="#263238"/>
<path d="M195.381 86.9549V87.6149H191.535V82.3109H195.273V82.9709H192.273V84.5969H194.943V85.2449H192.285V86.9549H195.381Z" fill="#263238"/>
<path d="M126.754 93.0569L125.338 97.2569H124.708L123.543 93.9089L122.386 97.2809H121.743L120.333 93.0809H120.933L122.074 96.5189L123.274 93.0809H123.831L124.995 96.5369L126.159 93.0809L126.754 93.0569Z" fill="#E0E0E0"/>
<path d="M130.041 95.8769H127.443C127.482 96.1516 127.624 96.4012 127.84 96.575C128.057 96.7489 128.331 96.8339 128.607 96.8129C128.779 96.8183 128.95 96.7868 129.108 96.7205C129.266 96.6543 129.409 96.5548 129.525 96.4289L129.849 96.8009C129.689 96.974 129.492 97.1098 129.273 97.199C129.055 97.2881 128.819 97.3283 128.583 97.3169C128.361 97.3337 128.137 97.3037 127.927 97.2288C127.717 97.1539 127.525 97.0357 127.363 96.8819C127.201 96.7281 127.074 96.5421 126.988 96.3359C126.903 96.1298 126.862 95.908 126.867 95.6849C126.858 95.4707 126.893 95.2569 126.97 95.0568C127.047 94.8566 127.164 94.6744 127.314 94.5214C127.465 94.3684 127.645 94.2479 127.843 94.1673C128.042 94.0867 128.255 94.0477 128.469 94.0529C128.685 94.0474 128.899 94.0869 129.098 94.1687C129.297 94.2506 129.476 94.3731 129.625 94.5283C129.775 94.6836 129.89 94.8683 129.963 95.0705C130.037 95.2727 130.068 95.4881 130.053 95.7029C130.053 95.7449 130.047 95.8229 130.041 95.8769ZM127.443 95.4629H129.495C129.468 95.2099 129.348 94.976 129.159 94.806C128.969 94.636 128.724 94.542 128.469 94.542C128.215 94.542 127.969 94.636 127.78 94.806C127.591 94.976 127.471 95.2099 127.443 95.4629Z" fill="#E0E0E0"/>
<path d="M130.857 92.8049H131.457V97.2809H130.857V92.8049Z" fill="#E0E0E0"/>
<path d="M132.243 95.6848C132.239 95.4642 132.28 95.2449 132.364 95.0409C132.449 94.8369 132.574 94.6525 132.733 94.4993C132.892 94.346 133.081 94.2273 133.288 94.1504C133.495 94.0736 133.715 94.0404 133.935 94.0528C134.194 94.0387 134.452 94.0948 134.681 94.2152C134.91 94.3356 135.102 94.5159 135.237 94.7369L134.793 95.0188C134.701 94.8746 134.573 94.7568 134.422 94.6768C134.27 94.5969 134.101 94.5576 133.929 94.5628C133.645 94.5836 133.38 94.7112 133.186 94.9198C132.992 95.1285 132.884 95.4029 132.884 95.6878C132.884 95.9728 132.992 96.2472 133.186 96.4558C133.38 96.6645 133.645 96.7921 133.929 96.8128C134.101 96.818 134.27 96.7788 134.422 96.6988C134.573 96.6189 134.701 96.5011 134.793 96.3568L135.237 96.6328C135.102 96.8538 134.91 97.034 134.681 97.1545C134.452 97.2749 134.194 97.331 133.935 97.3168C133.715 97.3293 133.495 97.2961 133.288 97.2192C133.081 97.1424 132.892 97.0237 132.733 96.8704C132.574 96.7172 132.449 96.5328 132.364 96.3288C132.28 96.1247 132.239 95.9055 132.243 95.6848Z" fill="#E0E0E0"/>
<path d="M135.639 95.6849C135.633 95.3552 135.726 95.0313 135.904 94.7542C136.083 94.4771 136.34 94.2594 136.643 94.1288C136.946 93.9982 137.28 93.9607 137.605 94.0209C137.929 94.0811 138.228 94.2364 138.463 94.467C138.699 94.6976 138.861 94.993 138.928 95.3158C138.995 95.6386 138.965 95.9741 138.841 96.2797C138.717 96.5852 138.505 96.847 138.232 97.0317C137.959 97.2164 137.637 97.3157 137.307 97.3169C137.089 97.3268 136.87 97.2917 136.666 97.2137C136.461 97.1357 136.275 97.0164 136.119 96.8633C135.962 96.7103 135.839 96.5267 135.757 96.324C135.674 96.1212 135.634 95.9037 135.639 95.6849ZM138.381 95.6849C138.372 95.4733 138.301 95.2692 138.176 95.0979C138.052 94.9266 137.879 94.7957 137.681 94.7215C137.483 94.6472 137.267 94.6329 137.061 94.6804C136.854 94.7278 136.666 94.8348 136.52 94.9882C136.374 95.1416 136.277 95.3345 136.239 95.543C136.202 95.7514 136.227 95.9662 136.311 96.1607C136.395 96.3551 136.534 96.5206 136.711 96.6366C136.888 96.7526 137.096 96.8139 137.307 96.8129C137.454 96.8167 137.6 96.7896 137.736 96.7336C137.871 96.6775 137.994 96.5936 138.095 96.4873C138.196 96.381 138.274 96.2547 138.323 96.1165C138.372 95.9783 138.392 95.8313 138.381 95.6849Z" fill="#E0E0E0"/>
<path d="M145.077 95.4449V97.2809H144.477V95.5109C144.477 94.8809 144.171 94.5749 143.649 94.5749C143.127 94.5749 142.689 94.9409 142.689 95.6369V97.2809H142.089V95.5109C142.089 94.8809 141.783 94.5749 141.261 94.5749C140.739 94.5749 140.301 94.9409 140.301 95.6369V97.2809H139.701V94.0829H140.343V94.5629C140.472 94.3945 140.64 94.26 140.832 94.1711C141.025 94.0822 141.236 94.0417 141.447 94.0529C141.67 94.04 141.892 94.0893 142.088 94.1953C142.284 94.3012 142.446 94.4597 142.557 94.6529C142.697 94.4591 142.882 94.3029 143.097 94.1982C143.312 94.0935 143.549 94.0436 143.787 94.0529C143.97 94.0367 144.154 94.0625 144.325 94.1283C144.496 94.1941 144.649 94.2982 144.774 94.4326C144.898 94.5669 144.99 94.728 145.043 94.9035C145.096 95.079 145.107 95.2642 145.077 95.4449Z" fill="#E0E0E0"/>
<path d="M149.044 95.8769H146.452C146.488 96.1517 146.628 96.4021 146.843 96.5763C147.059 96.7506 147.333 96.8353 147.61 96.8129C147.782 96.8191 147.954 96.7881 148.113 96.7218C148.273 96.6555 148.416 96.5556 148.534 96.4289L148.852 96.8009C148.616 97.0455 148.313 97.2159 147.982 97.2912C147.651 97.3666 147.305 97.3436 146.986 97.2252C146.668 97.1067 146.391 96.8978 146.189 96.6242C145.988 96.3506 145.87 96.0242 145.852 95.6849C145.843 95.4704 145.879 95.2565 145.957 95.0563C146.034 94.8562 146.152 94.674 146.303 94.5211C146.453 94.3682 146.634 94.2478 146.833 94.1673C147.032 94.0867 147.245 94.0478 147.46 94.0529C147.674 94.0473 147.888 94.0868 148.087 94.1687C148.286 94.2506 148.465 94.3732 148.614 94.5286C148.762 94.684 148.877 94.8687 148.95 95.0709C149.023 95.2732 149.053 95.4884 149.038 95.7029C149.056 95.7449 149.05 95.8229 149.044 95.8769ZM146.452 95.4629H148.504C148.476 95.2099 148.356 94.976 148.167 94.806C147.977 94.636 147.732 94.542 147.478 94.542C147.223 94.542 146.978 94.636 146.788 94.806C146.599 94.976 146.479 95.2099 146.452 95.4629Z" fill="#E0E0E0"/>
<path d="M149.728 96.9449C149.728 96.8934 149.738 96.8425 149.758 96.7951C149.778 96.7477 149.807 96.7048 149.844 96.669C149.881 96.6332 149.925 96.6051 149.973 96.5866C150.021 96.568 150.072 96.5592 150.124 96.5609C150.225 96.5609 150.323 96.6013 150.395 96.6733C150.467 96.7453 150.508 96.843 150.508 96.9449C150.508 97.0467 150.467 97.1444 150.395 97.2164C150.323 97.2884 150.225 97.3289 150.124 97.3289C150.072 97.3305 150.021 97.3217 149.973 97.3031C149.925 97.2846 149.881 97.2565 149.844 97.2207C149.807 97.1849 149.778 97.142 149.758 97.0946C149.738 97.0472 149.728 96.9963 149.728 96.9449ZM149.782 93.0688H150.466L150.352 95.9609H149.89L149.782 93.0688Z" fill="#E0E0E0"/>
<path d="M203.776 65.0789H203.068C202.627 65.0789 202.27 65.4361 202.27 65.8769V240.423C202.27 240.864 202.627 241.221 203.068 241.221H203.776C204.216 241.221 204.574 240.864 204.574 240.423V65.8769C204.574 65.4361 204.216 65.0789 203.776 65.0789Z" fill="#E0E0E0"/>
<path d="M203.776 65.0789H203.068C202.627 65.0789 202.27 65.4361 202.27 65.8769V155.091C202.27 155.532 202.627 155.889 203.068 155.889H203.776C204.216 155.889 204.574 155.532 204.574 155.091V65.8769C204.574 65.4361 204.216 65.0789 203.776 65.0789Z" fill="#0062B8"/>
<path d="M98.7935 117.657V121.857H98.1935V118.185H97.2395V117.657H98.7935Z" fill="#263238"/>
<path d="M99.7055 121.503C99.7067 121.422 99.7316 121.344 99.7772 121.278C99.8227 121.212 99.8868 121.16 99.9615 121.13C100.036 121.1 100.118 121.093 100.197 121.109C100.275 121.126 100.348 121.165 100.404 121.222C100.461 121.28 100.499 121.352 100.514 121.431C100.529 121.51 100.521 121.592 100.49 121.666C100.459 121.741 100.406 121.804 100.34 121.848C100.273 121.893 100.194 121.917 100.113 121.917C100.059 121.918 100.005 121.907 99.955 121.887C99.9047 121.866 99.8591 121.836 99.821 121.797C99.7829 121.758 99.753 121.712 99.7331 121.662C99.7133 121.611 99.7039 121.557 99.7055 121.503Z" fill="#263238"/>
<path d="M103.893 118.185H102.441V117.657H105.939V118.185H104.487V121.881H103.887L103.893 118.185Z" fill="#263238"/>
<path d="M109.06 120.477H106.462C106.499 120.751 106.64 121.001 106.855 121.175C107.07 121.349 107.344 121.434 107.62 121.413C107.793 121.418 107.965 121.386 108.124 121.319C108.284 121.252 108.427 121.151 108.544 121.023L108.862 121.401C108.627 121.648 108.324 121.821 107.992 121.898C107.66 121.975 107.313 121.953 106.993 121.834C106.673 121.715 106.396 121.505 106.195 121.229C105.993 120.954 105.878 120.625 105.862 120.285C105.852 120.071 105.887 119.857 105.964 119.657C106.041 119.457 106.158 119.274 106.309 119.121C106.459 118.968 106.639 118.848 106.837 118.767C107.036 118.687 107.249 118.648 107.464 118.653C107.679 118.647 107.893 118.687 108.092 118.769C108.291 118.851 108.471 118.973 108.62 119.128C108.769 119.284 108.884 119.468 108.957 119.67C109.031 119.873 109.062 120.088 109.048 120.303C109.072 120.345 109.066 120.423 109.06 120.477ZM106.462 120.057H108.544C108.516 119.804 108.396 119.57 108.207 119.4C108.017 119.23 107.772 119.136 107.518 119.136C107.263 119.136 107.018 119.23 106.828 119.4C106.639 119.57 106.519 119.804 106.492 120.057H106.462Z" fill="#263238"/>
<path d="M111.591 118.653V119.217H111.459C111.318 119.208 111.177 119.23 111.045 119.282C110.914 119.334 110.796 119.415 110.699 119.518C110.603 119.621 110.531 119.745 110.488 119.879C110.445 120.014 110.432 120.157 110.451 120.297V121.887H109.851V118.689H110.403V119.229C110.523 119.027 110.7 118.865 110.911 118.763C111.122 118.66 111.359 118.622 111.591 118.653Z" fill="#263238"/>
<path d="M117.615 120.039V121.881H117.015V120.081C117.015 119.481 116.715 119.151 116.187 119.151C115.659 119.151 115.233 119.517 115.233 120.213V121.857H114.633V120.057C114.633 119.457 114.333 119.127 113.805 119.127C113.669 119.121 113.533 119.145 113.407 119.198C113.28 119.251 113.168 119.331 113.076 119.432C112.984 119.534 112.916 119.654 112.876 119.785C112.836 119.916 112.826 120.054 112.845 120.189V121.833H112.245V118.635H112.797V119.115C112.926 118.946 113.093 118.811 113.286 118.722C113.478 118.633 113.69 118.593 113.901 118.605C114.124 118.592 114.346 118.641 114.542 118.747C114.738 118.853 114.9 119.012 115.011 119.205C115.151 119.01 115.338 118.854 115.554 118.749C115.769 118.644 116.008 118.595 116.247 118.605C116.44 118.573 116.638 118.589 116.823 118.651C117.008 118.713 117.175 118.819 117.31 118.961C117.445 119.102 117.543 119.274 117.596 119.462C117.649 119.65 117.656 119.848 117.615 120.039Z" fill="#263238"/>
<path d="M100.449 186.897V187.419H97.4494V187.011L99.1654 185.349C99.6154 184.917 99.6994 184.653 99.6994 184.383C99.6994 183.951 99.3874 183.687 98.7994 183.687C98.5965 183.675 98.3936 183.71 98.2063 183.789C98.019 183.868 97.8524 183.989 97.7194 184.143L97.3054 183.789C97.4995 183.573 97.7391 183.404 98.0069 183.293C98.2747 183.182 98.5639 183.132 98.8534 183.147C99.7354 183.147 100.299 183.603 100.299 184.347C100.293 184.606 100.227 184.86 100.108 185.09C99.988 185.319 99.8176 185.519 99.6094 185.673L98.3134 186.921L100.449 186.897Z" fill="#263238"/>
<path d="M100.996 187.041C100.994 186.987 101.003 186.933 101.023 186.882C101.043 186.831 101.073 186.785 101.111 186.747C101.149 186.708 101.195 186.677 101.245 186.657C101.295 186.636 101.349 186.626 101.404 186.627C101.513 186.627 101.619 186.67 101.696 186.748C101.774 186.826 101.818 186.931 101.818 187.041C101.818 187.151 101.774 187.256 101.696 187.334C101.619 187.411 101.513 187.455 101.404 187.455C101.349 187.455 101.296 187.444 101.246 187.423C101.196 187.402 101.151 187.372 101.113 187.333C101.075 187.295 101.045 187.249 101.025 187.199C101.005 187.149 100.995 187.095 100.996 187.041Z" fill="#263238"/>
<path d="M104.344 183.195H104.944V186.897H107.23V187.419H104.344V183.195Z" fill="#263238"/>
<path d="M107.745 183.231C107.745 183.18 107.755 183.13 107.775 183.083C107.795 183.037 107.824 182.994 107.86 182.959C107.897 182.924 107.94 182.896 107.987 182.878C108.034 182.86 108.085 182.851 108.135 182.853C108.21 182.855 108.281 182.879 108.342 182.922C108.403 182.965 108.449 183.025 108.476 183.094C108.503 183.164 108.508 183.239 108.493 183.312C108.477 183.384 108.44 183.45 108.386 183.502C108.333 183.554 108.266 183.589 108.193 183.602C108.12 183.616 108.044 183.608 107.976 183.579C107.908 183.55 107.849 183.501 107.808 183.44C107.767 183.378 107.745 183.305 107.745 183.231ZM107.847 184.221H108.447V187.419H107.847V184.221Z" fill="#263238"/>
<path d="M109.233 185.823C109.229 185.603 109.27 185.384 109.354 185.18C109.438 184.977 109.563 184.793 109.721 184.64C109.879 184.486 110.067 184.368 110.273 184.29C110.48 184.213 110.7 184.179 110.919 184.191C111.179 184.175 111.438 184.23 111.669 184.351C111.899 184.471 112.092 184.653 112.227 184.875L111.783 185.157C111.691 185.013 111.563 184.895 111.412 184.815C111.26 184.735 111.091 184.696 110.919 184.701C110.635 184.722 110.37 184.849 110.176 185.058C109.982 185.267 109.874 185.541 109.874 185.826C109.874 186.111 109.982 186.385 110.176 186.594C110.37 186.803 110.635 186.93 110.919 186.951C111.091 186.955 111.261 186.914 111.412 186.833C111.564 186.753 111.691 186.634 111.783 186.489L112.227 186.765C112.093 186.988 111.9 187.17 111.669 187.292C111.439 187.413 111.18 187.47 110.919 187.455C110.7 187.467 110.48 187.433 110.273 187.355C110.067 187.278 109.879 187.159 109.721 187.006C109.563 186.853 109.438 186.669 109.354 186.465C109.27 186.262 109.229 186.043 109.233 185.823Z" fill="#263238"/>
<path d="M115.804 186.015H113.212C113.249 186.289 113.39 186.539 113.605 186.713C113.82 186.887 114.094 186.972 114.37 186.951C114.543 186.956 114.715 186.924 114.874 186.857C115.034 186.79 115.177 186.689 115.294 186.561L115.612 186.939C115.376 187.184 115.073 187.354 114.742 187.429C114.411 187.505 114.065 187.482 113.746 187.363C113.428 187.245 113.151 187.036 112.949 186.762C112.748 186.489 112.63 186.162 112.612 185.823C112.603 185.608 112.639 185.395 112.717 185.194C112.794 184.994 112.912 184.812 113.063 184.659C113.213 184.506 113.394 184.386 113.593 184.305C113.792 184.225 114.005 184.186 114.22 184.191C114.434 184.185 114.648 184.225 114.847 184.307C115.046 184.389 115.225 184.511 115.374 184.667C115.522 184.822 115.637 185.007 115.71 185.209C115.783 185.411 115.813 185.626 115.798 185.841C115.816 185.889 115.81 185.961 115.804 186.015ZM113.212 185.595H115.264C115.236 185.342 115.116 185.108 114.927 184.938C114.737 184.768 114.492 184.674 114.238 184.674C113.983 184.674 113.738 184.768 113.548 184.938C113.359 185.108 113.239 185.342 113.212 185.595Z" fill="#263238"/>
<path d="M119.656 185.577V187.419H119.056V185.619C119.056 185.019 118.743 184.689 118.197 184.689C118.057 184.678 117.917 184.698 117.785 184.749C117.654 184.799 117.536 184.878 117.439 184.979C117.342 185.081 117.268 185.203 117.224 185.336C117.18 185.47 117.166 185.611 117.183 185.751V187.395H116.583V184.197H117.142V184.677C117.279 184.506 117.455 184.37 117.655 184.281C117.856 184.193 118.075 184.153 118.293 184.167C118.482 184.145 118.672 184.168 118.851 184.232C119.029 184.296 119.19 184.4 119.322 184.536C119.454 184.673 119.552 184.837 119.61 185.018C119.668 185.198 119.683 185.389 119.656 185.577Z" fill="#263238"/>
<path d="M120.453 185.823C120.448 185.603 120.488 185.383 120.572 185.179C120.656 184.975 120.78 184.791 120.939 184.638C121.097 184.484 121.286 184.365 121.492 184.289C121.699 184.212 121.919 184.178 122.139 184.191C122.399 184.175 122.658 184.23 122.889 184.351C123.119 184.471 123.312 184.653 123.447 184.875L123.003 185.157C122.91 185.012 122.781 184.894 122.628 184.814C122.476 184.734 122.305 184.695 122.133 184.701C121.849 184.722 121.583 184.849 121.389 185.058C121.195 185.267 121.088 185.541 121.088 185.826C121.088 186.111 121.195 186.385 121.389 186.594C121.583 186.803 121.849 186.93 122.133 186.951C122.306 186.955 122.477 186.915 122.629 186.834C122.781 186.753 122.91 186.634 123.003 186.489L123.447 186.765C123.313 186.988 123.12 187.17 122.889 187.292C122.659 187.413 122.399 187.47 122.139 187.455C121.919 187.467 121.7 187.433 121.493 187.355C121.287 187.278 121.099 187.159 120.941 187.006C120.783 186.853 120.658 186.669 120.574 186.465C120.49 186.262 120.449 186.043 120.453 185.823Z" fill="#263238"/>
<path d="M127.023 186.015H124.431C124.469 186.289 124.61 186.539 124.825 186.713C125.04 186.887 125.314 186.972 125.589 186.951C125.763 186.956 125.935 186.924 126.094 186.857C126.254 186.79 126.397 186.689 126.513 186.561L126.831 186.939C126.596 187.184 126.293 187.354 125.962 187.429C125.631 187.505 125.285 187.482 124.966 187.363C124.648 187.245 124.371 187.036 124.169 186.762C123.968 186.489 123.85 186.162 123.831 185.823C123.823 185.608 123.859 185.395 123.937 185.194C124.014 184.994 124.132 184.812 124.283 184.659C124.433 184.506 124.614 184.386 124.813 184.305C125.012 184.225 125.225 184.186 125.439 184.191C125.654 184.185 125.868 184.225 126.067 184.307C126.266 184.389 126.445 184.511 126.594 184.667C126.742 184.822 126.857 185.007 126.93 185.209C127.003 185.411 127.033 185.626 127.017 185.841C127.035 185.889 127.029 185.961 127.023 186.015ZM124.431 185.595H126.483C126.456 185.342 126.336 185.108 126.147 184.938C125.957 184.768 125.712 184.674 125.457 184.674C125.203 184.674 124.958 184.768 124.768 184.938C124.579 185.108 124.459 185.342 124.431 185.595Z" fill="#263238"/>
<path d="M189.681 131.379C189.681 131.469 168.975 131.535 143.439 131.535C117.903 131.535 97.1914 131.469 97.1914 131.379C97.1914 131.289 117.897 131.223 143.439 131.223C168.981 131.223 189.681 131.295 189.681 131.379Z" fill="#263238"/>
<path d="M189.681 138.381C189.681 138.465 168.975 138.537 143.439 138.537C117.903 138.537 97.1914 138.465 97.1914 138.381C97.1914 138.297 117.897 138.225 143.439 138.225C168.981 138.225 189.681 138.291 189.681 138.381Z" fill="#263238"/>
<path d="M189.681 145.377C189.681 145.467 168.975 145.533 143.439 145.533C117.903 145.533 97.1914 145.467 97.1914 145.377C97.1914 145.287 117.897 145.221 143.439 145.221C168.981 145.221 189.681 145.293 189.681 145.377Z" fill="#263238"/>
<path d="M189.681 152.379C189.681 152.463 168.975 152.535 143.439 152.535C117.903 152.535 97.1914 152.463 97.1914 152.379C97.1914 152.295 117.897 152.223 143.439 152.223C168.981 152.223 189.681 152.289 189.681 152.379Z" fill="#263238"/>
<path d="M189.681 159.375C189.681 159.465 168.975 159.531 143.439 159.531C117.903 159.531 97.1914 159.465 97.1914 159.375C97.1914 159.285 117.897 159.219 143.439 159.219C168.981 159.219 189.681 159.291 189.681 159.375Z" fill="#263238"/>
<path d="M189.681 166.377C189.681 166.461 168.975 166.533 143.439 166.533C117.903 166.533 97.1914 166.461 97.1914 166.377C97.1914 166.293 117.897 166.221 143.439 166.221C168.981 166.221 189.681 166.287 189.681 166.377Z" fill="#263238"/>
<path d="M189.681 192.945C189.681 193.029 168.975 193.101 143.439 193.101C117.903 193.101 97.1914 193.029 97.1914 192.945C97.1914 192.861 117.897 192.789 143.439 192.789C168.981 192.789 189.681 192.873 189.681 192.945Z" fill="#263238"/>
<path d="M189.681 198.945C189.681 199.035 168.975 199.101 143.439 199.101C117.903 199.101 97.1914 199.035 97.1914 198.945C97.1914 198.855 117.897 198.789 143.439 198.789C168.981 198.789 189.681 198.861 189.681 198.945Z" fill="#E0E0E0"/>
<path d="M189.681 204.945C189.681 205.029 168.975 205.101 143.439 205.101C117.903 205.101 97.1914 205.029 97.1914 204.945C97.1914 204.861 117.897 204.789 143.439 204.789C168.981 204.789 189.681 204.849 189.681 204.945Z" fill="#EBEBEB"/>
<path d="M196.431 222.843H147.507V241.071H196.431V222.843Z" fill="#0062B8"/>
<path d="M163.804 232.899H161.404L160.905 234.033H160.24L162.291 229.503H162.928L164.986 234.033H164.308L163.804 232.899ZM163.576 232.383L162.597 230.163L161.626 232.383H163.576Z" fill="white"/>
<path d="M165.213 232.317C165.209 232.082 165.253 231.848 165.343 231.631C165.432 231.413 165.566 231.217 165.734 231.053C165.903 230.889 166.104 230.762 166.324 230.679C166.544 230.596 166.779 230.559 167.013 230.571C167.291 230.554 167.568 230.614 167.814 230.743C168.06 230.872 168.267 231.065 168.411 231.303L167.937 231.603C167.838 231.448 167.7 231.321 167.537 231.234C167.374 231.148 167.192 231.106 167.007 231.111C166.689 231.111 166.384 231.237 166.159 231.462C165.934 231.687 165.807 231.993 165.807 232.311C165.807 232.629 165.934 232.934 166.159 233.159C166.384 233.384 166.689 233.511 167.007 233.511C167.192 233.516 167.374 233.474 167.537 233.387C167.7 233.301 167.838 233.174 167.937 233.019L168.411 233.313C168.267 233.551 168.061 233.745 167.815 233.875C167.568 234.005 167.291 234.066 167.013 234.051C166.78 234.062 166.546 234.026 166.327 233.944C166.107 233.861 165.907 233.735 165.739 233.573C165.57 233.41 165.437 233.215 165.346 232.999C165.256 232.783 165.211 232.551 165.213 232.317Z" fill="white"/>
<path d="M168.856 232.317C168.851 232.082 168.895 231.848 168.985 231.631C169.074 231.414 169.208 231.217 169.376 231.053C169.545 230.889 169.746 230.762 169.966 230.679C170.186 230.596 170.421 230.559 170.656 230.571C170.933 230.554 171.21 230.613 171.457 230.742C171.703 230.871 171.91 231.065 172.054 231.303L171.58 231.603C171.48 231.448 171.342 231.321 171.179 231.234C171.016 231.148 170.834 231.106 170.65 231.111C170.331 231.111 170.026 231.237 169.801 231.462C169.576 231.687 169.45 231.993 169.45 232.311C169.45 232.629 169.576 232.934 169.801 233.159C170.026 233.384 170.331 233.511 170.65 233.511C170.834 233.516 171.016 233.474 171.179 233.387C171.342 233.301 171.48 233.174 171.58 233.019L172.054 233.313C171.91 233.552 171.704 233.746 171.457 233.876C171.211 234.007 170.934 234.067 170.656 234.051C170.422 234.062 170.188 234.026 169.969 233.944C169.75 233.861 169.55 233.735 169.381 233.573C169.212 233.41 169.079 233.215 168.988 232.999C168.898 232.783 168.853 232.551 168.856 232.317Z" fill="white"/>
<path d="M175.905 232.545H173.121C173.162 232.839 173.313 233.106 173.544 233.292C173.774 233.478 174.068 233.569 174.363 233.547C174.549 233.553 174.733 233.52 174.904 233.448C175.075 233.377 175.228 233.269 175.353 233.133L175.695 233.535C175.523 233.72 175.313 233.866 175.079 233.961C174.844 234.056 174.592 234.099 174.339 234.087C174.101 234.104 173.861 234.072 173.635 233.991C173.41 233.911 173.204 233.784 173.03 233.619C172.857 233.454 172.72 233.254 172.628 233.033C172.536 232.812 172.492 232.574 172.497 232.335C172.488 232.105 172.526 231.876 172.609 231.662C172.692 231.447 172.819 231.252 172.98 231.089C173.141 230.925 173.335 230.796 173.548 230.71C173.761 230.624 173.99 230.583 174.219 230.589C174.45 230.582 174.68 230.623 174.893 230.71C175.107 230.797 175.3 230.928 175.46 231.094C175.62 231.26 175.744 231.458 175.822 231.675C175.901 231.892 175.933 232.123 175.917 232.353C175.917 232.389 175.911 232.467 175.905 232.545ZM173.121 232.095H175.317C175.289 231.823 175.161 231.572 174.958 231.389C174.756 231.207 174.492 231.106 174.219 231.106C173.947 231.106 173.683 231.207 173.481 231.389C173.278 231.572 173.15 231.823 173.121 232.095Z" fill="white"/>
<path d="M180.327 232.317C180.34 232.549 180.304 232.781 180.222 232.998C180.14 233.215 180.013 233.413 179.849 233.578C179.686 233.743 179.49 233.872 179.273 233.956C179.057 234.041 178.825 234.079 178.593 234.069C178.364 234.076 178.137 234.03 177.928 233.935C177.72 233.839 177.537 233.696 177.393 233.517V235.287H176.793V230.601H177.393V231.147C177.53 230.958 177.711 230.804 177.92 230.7C178.129 230.596 178.36 230.543 178.593 230.547C178.827 230.536 179.06 230.575 179.278 230.661C179.496 230.746 179.693 230.877 179.856 231.044C180.02 231.211 180.147 231.411 180.228 231.63C180.309 231.85 180.343 232.084 180.327 232.317ZM179.697 232.317C179.689 232.09 179.614 231.87 179.482 231.685C179.35 231.501 179.166 231.359 178.954 231.277C178.742 231.196 178.511 231.179 178.289 231.228C178.067 231.278 177.865 231.391 177.707 231.555C177.549 231.718 177.443 231.925 177.402 232.148C177.36 232.371 177.385 232.602 177.474 232.811C177.563 233.02 177.711 233.199 177.901 233.324C178.09 233.45 178.312 233.517 178.539 233.517C178.696 233.52 178.852 233.492 178.997 233.432C179.142 233.372 179.273 233.283 179.381 233.171C179.49 233.058 179.574 232.924 179.629 232.777C179.683 232.63 179.707 232.473 179.697 232.317Z" fill="white"/>
<path d="M183.118 233.829C182.9 233.992 182.633 234.077 182.362 234.069C182.216 234.086 182.068 234.07 181.93 234.022C181.791 233.974 181.665 233.896 181.56 233.793C181.456 233.69 181.376 233.564 181.327 233.426C181.278 233.288 181.26 233.141 181.276 232.995V231.111H180.676V230.601H181.276V229.851H181.876V230.601H182.86V231.111H181.876V232.971C181.86 233.047 181.863 233.126 181.884 233.201C181.904 233.276 181.942 233.345 181.994 233.403C182.045 233.462 182.11 233.507 182.182 233.536C182.254 233.565 182.332 233.577 182.41 233.571C182.585 233.574 182.757 233.516 182.896 233.409L183.118 233.829Z" fill="white"/>
<path d="M94.9055 241.215C94.9055 241.215 94.8635 241.215 94.7855 241.137L94.4375 240.867L92.9795 239.745L92.9255 239.703L92.9915 239.673C98.8955 237.411 118.15 230.187 141.88 221.343L141.964 221.313L142.03 221.367L143.926 222.891L143.986 222.939V241.395H143.83L108.85 241.335L98.5955 241.293H95.8475H95.1395C95.0616 241.297 94.9835 241.297 94.9055 241.293H95.1515H95.8655H98.6315L108.898 241.251L143.83 241.191L143.68 241.341C143.68 237.111 143.68 232.683 143.68 228.141V223.113L143.74 223.233L141.844 221.703H141.994C118.258 230.535 98.9735 237.675 93.0275 239.823V239.757L94.4435 240.927L94.7915 241.215H94.9055Z" fill="#0062B8"/>
<path d="M141.927 221.463H93.0034V239.691H141.927V221.463Z" fill="white"/>
<path d="M141.933 239.691C141.933 239.691 141.933 239.577 141.933 239.361C141.933 239.145 141.933 238.827 141.933 238.419C141.933 237.585 141.933 236.367 141.933 234.819C141.933 231.681 141.897 227.139 141.873 221.481L141.981 221.589L93.0575 221.637L93.2135 221.481C93.2135 227.841 93.2135 233.997 93.2135 239.709L93.0635 239.559L128.085 239.631L138.285 239.673H141.027H141.741H141.987H141.759H141.063H138.357L128.187 239.715L93.0575 239.787H92.9075V239.637C92.9075 233.925 92.9075 227.769 92.9075 221.409V221.253H93.0695L141.993 221.301H142.101V221.409C142.101 227.091 142.053 231.657 142.041 234.813C142.041 236.367 142.041 237.573 142.041 238.413C142.041 238.809 142.041 239.115 142.041 239.337C142.041 239.559 141.933 239.691 141.933 239.691Z" fill="#0062B8"/>
<path d="M106.413 229.287H108.321C108.633 229.264 108.946 229.306 109.241 229.41C109.536 229.513 109.806 229.677 110.035 229.89C110.264 230.102 110.446 230.36 110.571 230.647C110.696 230.933 110.76 231.242 110.76 231.555C110.76 231.867 110.696 232.177 110.571 232.463C110.446 232.75 110.264 233.007 110.035 233.22C109.806 233.433 109.536 233.596 109.241 233.7C108.946 233.804 108.633 233.846 108.321 233.823H106.413V229.287ZM108.285 233.259C108.521 233.279 108.758 233.249 108.982 233.173C109.206 233.096 109.412 232.974 109.586 232.814C109.76 232.653 109.899 232.459 109.994 232.242C110.089 232.026 110.138 231.792 110.138 231.555C110.138 231.318 110.089 231.084 109.994 230.868C109.899 230.651 109.76 230.456 109.586 230.296C109.412 230.136 109.206 230.014 108.982 229.937C108.758 229.86 108.521 229.831 108.285 229.851H107.085V233.259H108.285Z" fill="#0062B8"/>
<path d="M114.753 232.311H111.969C112.01 232.606 112.162 232.874 112.394 233.06C112.626 233.247 112.921 233.337 113.217 233.313C113.403 233.321 113.587 233.288 113.758 233.216C113.93 233.144 114.083 233.036 114.207 232.899L114.549 233.301C114.295 233.557 113.973 233.735 113.62 233.812C113.267 233.889 112.9 233.863 112.562 233.736C112.224 233.609 111.93 233.387 111.715 233.097C111.5 232.807 111.374 232.461 111.351 232.101C111.341 231.871 111.379 231.641 111.462 231.426C111.544 231.211 111.67 231.015 111.832 230.851C111.993 230.686 112.187 230.557 112.4 230.471C112.614 230.384 112.843 230.343 113.073 230.349C113.304 230.342 113.534 230.384 113.748 230.472C113.961 230.56 114.155 230.691 114.314 230.858C114.474 231.025 114.598 231.223 114.676 231.44C114.755 231.657 114.787 231.888 114.771 232.119C114.771 232.179 114.759 232.251 114.753 232.311ZM111.969 231.867H114.171C114.137 231.599 114.006 231.353 113.804 231.175C113.601 230.996 113.34 230.898 113.07 230.898C112.8 230.898 112.54 230.996 112.337 231.175C112.134 231.353 112.004 231.599 111.969 231.867Z" fill="#0062B8"/>
<path d="M115.311 232.107C115.306 231.871 115.35 231.637 115.439 231.419C115.528 231.201 115.661 231.003 115.83 230.839C115.999 230.675 116.2 230.547 116.42 230.464C116.641 230.38 116.876 230.343 117.111 230.355C117.389 230.338 117.666 230.398 117.912 230.527C118.158 230.656 118.365 230.849 118.509 231.087L118.035 231.393C117.936 231.238 117.798 231.111 117.635 231.025C117.472 230.939 117.29 230.896 117.105 230.901C116.787 230.901 116.482 231.027 116.257 231.252C116.032 231.477 115.905 231.783 115.905 232.101C115.905 232.419 116.032 232.724 116.257 232.949C116.482 233.174 116.787 233.301 117.105 233.301C117.29 233.306 117.472 233.263 117.635 233.177C117.798 233.09 117.936 232.964 118.035 232.809L118.509 233.109C118.365 233.347 118.159 233.542 117.913 233.672C117.666 233.802 117.389 233.862 117.111 233.847C116.877 233.858 116.643 233.822 116.423 233.739C116.204 233.657 116.003 233.53 115.835 233.367C115.666 233.204 115.532 233.008 115.442 232.791C115.352 232.574 115.308 232.341 115.311 232.107Z" fill="#0062B8"/>
<path d="M119.277 229.017H119.877V233.817H119.277V229.017Z" fill="#0062B8"/>
<path d="M120.969 229.329C120.97 229.275 120.982 229.221 121.003 229.171C121.025 229.121 121.056 229.076 121.095 229.038C121.134 229 121.18 228.97 121.231 228.95C121.281 228.93 121.335 228.92 121.389 228.921C121.47 228.923 121.547 228.949 121.613 228.995C121.678 229.042 121.729 229.106 121.758 229.181C121.787 229.256 121.793 229.337 121.776 229.416C121.759 229.494 121.719 229.566 121.662 229.621C121.604 229.677 121.532 229.715 121.453 229.73C121.374 229.745 121.293 229.736 121.219 229.705C121.145 229.673 121.082 229.621 121.037 229.554C120.993 229.488 120.97 229.409 120.969 229.329ZM121.083 230.391H121.683V233.823H121.083V230.391Z" fill="#0062B8"/>
<path d="M126.142 231.849V233.823H125.542V231.945C125.542 231.273 125.2 230.943 124.612 230.943C124.461 230.932 124.311 230.955 124.17 231.009C124.03 231.063 123.903 231.148 123.8 231.257C123.696 231.366 123.617 231.496 123.57 231.639C123.523 231.782 123.507 231.933 123.526 232.083V233.853H122.926V230.421H123.526V230.937C123.672 230.753 123.861 230.606 124.076 230.51C124.291 230.414 124.526 230.371 124.762 230.385C124.952 230.377 125.142 230.41 125.319 230.482C125.495 230.554 125.655 230.663 125.785 230.802C125.916 230.941 126.016 231.106 126.077 231.287C126.139 231.467 126.161 231.659 126.142 231.849Z" fill="#0062B8"/>
<path d="M130.402 232.311H127.618C127.658 232.605 127.809 232.872 128.04 233.058C128.271 233.244 128.564 233.336 128.86 233.313C129.045 233.321 129.229 233.288 129.401 233.216C129.572 233.144 129.725 233.036 129.85 232.899L130.192 233.301C129.937 233.557 129.615 233.735 129.262 233.812C128.909 233.889 128.542 233.863 128.204 233.736C127.866 233.609 127.572 233.387 127.357 233.097C127.143 232.807 127.016 232.461 126.994 232.101C126.984 231.871 127.021 231.641 127.104 231.426C127.186 231.211 127.312 231.015 127.474 230.851C127.635 230.686 127.829 230.557 128.042 230.471C128.256 230.384 128.485 230.343 128.716 230.349C128.946 230.342 129.176 230.384 129.39 230.472C129.604 230.56 129.797 230.691 129.957 230.858C130.116 231.025 130.24 231.223 130.318 231.44C130.397 231.657 130.43 231.888 130.414 232.119C130.414 232.179 130.408 232.251 130.402 232.311ZM127.618 231.867H129.814C129.785 231.595 129.657 231.344 129.454 231.162C129.252 230.979 128.988 230.878 128.716 230.878C128.443 230.878 128.179 230.979 127.977 231.162C127.774 231.344 127.646 231.595 127.618 231.867Z" fill="#0062B8"/>
<path d="M143.83 241.215C143.77 241.281 143.296 240.921 142.774 240.417C142.252 239.913 141.874 239.457 141.934 239.391C141.994 239.325 142.468 239.691 142.99 240.195C143.512 240.699 143.89 241.155 143.83 241.215Z" fill="#0062B8"/>
<path d="M213.724 236.661L220.708 233.301L216.868 221.949L208.432 219.999C207.646 219.819 206.77 219.609 205.798 219.339C204.654 219.02 203.573 218.511 202.6 217.833C201.359 217.045 200.232 216.09 199.252 214.995C198.454 213.909 196.762 214.317 196.762 215.523C196.762 216.729 198.892 219.771 202.678 221.925C206.464 224.079 199.768 225.117 197.344 225.525C194.92 225.933 187.468 227.607 187.024 228.453C186.376 229.689 187.624 230.637 190.024 230.163C192.424 229.689 199.798 228.753 199.99 230.037V230.073C199.398 230.999 199.11 232.086 199.167 233.184C199.224 234.281 199.623 235.333 200.308 236.193C201.664 237.891 203.698 240.021 205.192 239.697C208 239.103 213.724 236.661 213.724 236.661Z" fill="#B78876"/>
<path d="M213.297 216.687L219.843 238.821L270.669 223.377C273.264 222.584 275.674 221.282 277.759 219.547C279.844 217.811 281.562 215.677 282.813 213.27C284.063 210.862 284.821 208.23 285.041 205.526C285.262 202.822 284.941 200.101 284.097 197.523L271.635 158.745L244.569 165.465L259.425 201.345L213.297 216.687Z" fill="#0062B8"/>
<path d="M271.815 222.987L271.569 223.077L270.837 223.311L267.993 224.193L257.343 227.457L220.347 238.683L220.209 238.719L220.161 238.587C217.899 231.819 215.703 224.379 213.165 216.735L213.117 216.591L213.267 216.537L214.545 216.117L259.401 201.219L259.329 201.381C255.729 192.681 252.813 185.553 250.773 180.585C249.765 178.113 248.973 176.181 248.433 174.855C248.175 174.201 247.971 173.697 247.833 173.349C247.695 173.001 247.641 172.833 247.641 172.833C247.641 172.833 247.725 173.001 247.869 173.337L248.505 174.825C249.057 176.145 249.867 178.071 250.905 180.531C252.969 185.487 255.933 192.603 259.557 201.291L259.605 201.411L259.479 201.453L214.623 216.411L213.345 216.837L213.441 216.639C215.985 224.289 218.169 231.729 220.425 238.491L220.245 238.395L257.271 227.283L267.963 224.097L270.819 223.263L271.563 223.053L271.815 222.987Z" fill="#263238"/>
<path d="M268.821 207.795C268.773 207.795 268.437 207.237 267.759 206.391C265.979 204.18 263.559 202.575 260.829 201.795C259.785 201.495 259.113 201.411 259.119 201.357C259.278 201.328 259.441 201.328 259.599 201.357C260.032 201.397 260.461 201.469 260.883 201.573C262.285 201.912 263.617 202.493 264.819 203.289C266.023 204.085 267.077 205.086 267.933 206.247C268.193 206.597 268.426 206.966 268.629 207.351C268.72 207.486 268.785 207.636 268.821 207.795Z" fill="#263238"/>
<path d="M256.503 167.349C256.346 166.263 256.294 165.163 256.347 164.067C256.294 162.97 256.346 161.871 256.503 160.785C256.711 162.968 256.711 165.166 256.503 167.349Z" fill="#FAFAFA"/>
<path d="M266.71 167.871C266.242 166.86 265.873 165.808 265.606 164.727C265.236 163.677 264.967 162.594 264.802 161.493C265.636 163.554 266.275 165.69 266.71 167.871Z" fill="#FAFAFA"/>
<path d="M260.379 177.081C258.278 177.065 256.223 176.462 254.445 175.341C254.487 175.257 255.741 175.851 257.379 176.325C259.017 176.799 260.385 176.991 260.379 177.081Z" fill="#FAFAFA"/>
<path d="M271.923 182.145C271.947 181.091 272.076 180.041 272.307 179.013C272.436 177.965 272.667 176.932 272.997 175.929C272.97 176.985 272.842 178.036 272.613 179.067C272.486 180.113 272.255 181.144 271.923 182.145Z" fill="#FAFAFA"/>
<path d="M267.795 190.413C266.707 188.542 265.805 186.568 265.101 184.521C266.186 186.394 267.088 188.367 267.795 190.413Z" fill="#FAFAFA"/>
<path d="M266.103 197.649C265.115 197.347 264.16 196.945 263.253 196.449C262.302 196.048 261.396 195.549 260.547 194.961C261.531 195.27 262.483 195.672 263.391 196.161C264.344 196.563 265.252 197.062 266.103 197.649Z" fill="#FAFAFA"/>
<path d="M279.087 195.723C278.764 196.664 278.381 197.584 277.941 198.477C277.599 199.409 277.198 200.319 276.741 201.201C277.169 199.243 277.965 197.383 279.087 195.723Z" fill="#FAFAFA"/>
<path d="M275.475 213.153C275.042 210.933 274.819 208.677 274.809 206.415C275.07 207.516 275.233 208.639 275.295 209.769C275.458 210.889 275.518 212.022 275.475 213.153Z" fill="#FAFAFA"/>
<path d="M266.307 218.655C265.442 218.079 264.637 217.416 263.907 216.675C263.112 216.013 262.384 215.273 261.735 214.467C262.601 215.043 263.405 215.706 264.135 216.447C264.931 217.109 265.659 217.848 266.307 218.655Z" fill="#FAFAFA"/>
<path d="M250.467 220.233C249.333 222.138 248.019 223.93 246.543 225.585C247.065 224.606 247.679 223.679 248.379 222.819C248.993 221.893 249.692 221.028 250.467 220.233Z" fill="#FAFAFA"/>
<path d="M255.489 212.811C254.579 212.222 253.76 211.503 253.059 210.675C252.284 209.919 251.629 209.049 251.115 208.095C251.187 208.041 252.081 209.169 253.287 210.465C254.493 211.761 255.543 212.745 255.489 212.811Z" fill="#FAFAFA"/>
<path d="M243.543 214.497C242.783 214.803 241.955 214.905 241.143 214.791C240.326 214.781 239.525 214.562 238.815 214.155C238.851 214.065 239.865 214.389 241.161 214.479C242.457 214.569 243.543 214.407 243.543 214.497Z" fill="#FAFAFA"/>
<path d="M235.977 227.625C235.678 226.791 235.476 225.925 235.377 225.045C235.175 224.182 235.076 223.297 235.083 222.411C235.585 224.108 235.885 225.858 235.977 227.625Z" fill="#FAFAFA"/>
<path d="M227.049 232.149C224.979 231.091 223.009 229.848 221.163 228.435C222.223 228.92 223.237 229.498 224.193 230.163C225.202 230.74 226.157 231.404 227.049 232.149Z" fill="#FAFAFA"/>
<path d="M230.235 216.177C230.301 216.237 229.431 217.269 228.465 218.613C227.499 219.957 226.779 221.103 226.701 221.061C227.064 220.11 227.572 219.221 228.207 218.427C228.76 217.574 229.445 216.815 230.235 216.177Z" fill="#FAFAFA"/>
<path d="M223.335 219.207C222.715 219.07 222.121 218.833 221.577 218.505C220.99 218.269 220.447 217.936 219.969 217.521C221.177 217.892 222.315 218.462 223.335 219.207Z" fill="#FAFAFA"/>
<g opacity="0.2">
<path d="M259 200.427C261.712 200.703 264.43 200.985 267.136 201.327C268.079 201.396 269.008 201.598 269.896 201.927C270.336 202.099 270.738 202.358 271.076 202.689C271.414 203.02 271.682 203.416 271.864 203.853C272.033 204.296 272.051 204.783 271.915 205.237C271.78 205.692 271.498 206.089 271.114 206.367C270.729 206.564 270.3 206.657 269.869 206.638C269.438 206.619 269.019 206.489 268.654 206.259C267.927 205.797 267.248 205.264 266.626 204.669C265.405 203.66 263.987 202.918 262.462 202.491C261.767 202.359 261.095 202.124 260.47 201.795C260.157 201.621 259.906 201.355 259.751 201.032C259.596 200.71 259.546 200.347 259.605 199.995" fill="black"/>
</g>
</svg>
