<svg width="666" height="615" viewBox="0 0 666 615" fill="none" xmlns="http://www.w3.org/2000/svg">
<path d="M666 470.352H0V470.659H666V470.352Z" fill="#EBEBEB"/>
<path d="M599.267 490.143H555.151V490.45H599.267V490.143Z" fill="#EBEBEB"/>
<path d="M441.185 493.488H429.61V493.796H441.185V493.488Z" fill="#EBEBEB"/>
<path d="M553.819 478.728H528.258V479.036H553.819V478.728Z" fill="#EBEBEB"/>
<path d="M127.406 480.795H69.8767V481.102H127.406V480.795Z" fill="#EBEBEB"/>
<path d="M147.705 480.795H139.274V481.102H147.705V480.795Z" fill="#EBEBEB"/>
<path d="M299.9 485.985H175.118V486.293H299.9V485.985Z" fill="#EBEBEB"/>
<path d="M315.684 415.494H58.4882C56.4733 415.491 54.5422 414.749 53.1187 413.433C51.6952 412.116 50.8957 410.331 50.8958 408.471V74.6118C50.9133 72.7619 51.7205 70.9931 53.1421 69.6896C54.5637 68.3861 56.4848 67.6532 58.4882 67.65H315.684C317.701 67.65 319.636 68.3899 321.062 69.7071C322.488 71.0242 323.29 72.8106 323.29 74.6733V408.471C323.29 410.333 322.488 412.12 321.062 413.437C319.636 414.754 317.701 415.494 315.684 415.494ZM58.4882 67.896C56.5616 67.8993 54.7152 68.6082 53.3542 69.8673C51.9932 71.1265 51.2287 72.8328 51.2288 74.6118V408.471C51.2287 410.25 51.9932 411.956 53.3542 413.215C54.7152 414.474 56.5616 415.183 58.4882 415.186H315.684C317.612 415.183 319.46 414.475 320.823 413.216C322.186 411.957 322.953 410.251 322.957 408.471V74.6118C322.953 72.8317 322.186 71.1253 320.823 69.8666C319.46 68.6078 317.612 67.8992 315.684 67.896H58.4882Z" fill="#EBEBEB"/>
<path d="M603.809 415.494H346.6C344.584 415.491 342.651 414.75 341.225 413.433C339.8 412.117 338.997 410.332 338.994 408.471V74.6118C339.015 72.7608 339.825 70.992 341.249 69.6888C342.673 68.3857 344.595 67.6531 346.6 67.65H603.809C605.81 67.6564 607.728 68.3908 609.146 69.6939C610.565 70.9971 611.37 72.764 611.388 74.6118V408.471C611.388 410.329 610.59 412.112 609.17 413.428C607.749 414.745 605.821 415.487 603.809 415.494ZM346.6 67.896C344.672 67.8992 342.824 68.6078 341.461 69.8666C340.098 71.1253 339.33 72.8317 339.327 74.6118V408.471C339.33 410.251 340.098 411.957 341.461 413.216C342.824 414.475 344.672 415.183 346.6 415.186H603.809C605.737 415.183 607.584 414.475 608.948 413.216C610.311 411.957 611.078 410.251 611.082 408.471V74.6118C611.078 72.8317 610.311 71.1253 608.948 69.8666C607.584 68.6078 605.737 67.8992 603.809 67.896H346.6Z" fill="#EBEBEB"/>
<path d="M588.891 195.779H354.072V470.352H588.891V195.779Z" fill="#F0F0F0"/>
<path d="M580.605 205.779H362.384V264.499H580.605V205.779Z" fill="#E0E0E0"/>
<path d="M374.785 215.287H362.384V264.499H374.785V215.287Z" fill="#EBEBEB"/>
<path d="M434.725 215.287H422.324V264.499H434.725V215.287Z" fill="#EBEBEB"/>
<path d="M502.778 214.043L490.557 215.988L499.61 264.485L511.831 262.54L502.778 214.043Z" fill="#EBEBEB"/>
<path d="M390.143 221.769H377.742V264.499H390.143V221.769Z" fill="#EBEBEB"/>
<path d="M418.634 221.769H406.233V264.499H418.634V221.769Z" fill="#EBEBEB"/>
<path d="M490.549 221.769H478.148V264.499H490.549V221.769Z" fill="#EBEBEB"/>
<path d="M451.017 220.282L438.912 222.766L448.951 264.478L461.056 261.994L451.017 220.282Z" fill="#EBEBEB"/>
<path d="M400.852 212.839H394.658V264.487H400.852V212.839Z" fill="#EBEBEB"/>
<path d="M474.578 212.839H468.385V264.487H474.578V212.839Z" fill="#EBEBEB"/>
<path d="M362.371 332.506H580.592V273.786H362.371V332.506Z" fill="#E0E0E0"/>
<path d="M568.191 332.506H580.592V283.294H568.191V332.506Z" fill="#EBEBEB"/>
<path d="M508.251 332.506H520.652V283.294H508.251V332.506Z" fill="#EBEBEB"/>
<path d="M431.177 330.561L443.397 332.506L452.45 284.009L440.229 282.064L431.177 330.561Z" fill="#EBEBEB"/>
<path d="M552.833 332.506H565.234V289.776H552.833V332.506Z" fill="#EBEBEB"/>
<path d="M524.342 332.506H536.743V289.776H524.342V332.506Z" fill="#EBEBEB"/>
<path d="M452.427 332.506H464.828V289.776H452.427V332.506Z" fill="#EBEBEB"/>
<path d="M481.006 327.498L493.159 330.017L503.339 288.142L491.186 285.622L481.006 327.498Z" fill="#EBEBEB"/>
<path d="M542.124 332.506H548.318V280.858H542.124V332.506Z" fill="#EBEBEB"/>
<path d="M468.398 332.506H474.592V280.858H468.398V332.506Z" fill="#EBEBEB"/>
<path d="M374.785 283.294H362.384V332.506H374.785V283.294Z" fill="#EBEBEB"/>
<path d="M390.143 289.788H377.742V332.518H390.143V289.788Z" fill="#EBEBEB"/>
<path d="M418.634 289.788H406.233V332.518H418.634V289.788Z" fill="#EBEBEB"/>
<path d="M400.852 280.858H394.658V332.506H400.852V280.858Z" fill="#EBEBEB"/>
<path d="M580.605 341.805H362.384V400.525H580.605V341.805Z" fill="#E0E0E0"/>
<path d="M500.033 351.313H487.632V400.525H500.033V351.313Z" fill="#EBEBEB"/>
<path d="M568.09 350.061L555.869 352.007L564.922 400.504L577.142 398.558L568.09 350.061Z" fill="#EBEBEB"/>
<path d="M455.451 357.795H443.05V400.525H455.451V357.795Z" fill="#EBEBEB"/>
<path d="M483.942 357.795H471.541V400.525H483.942V357.795Z" fill="#EBEBEB"/>
<path d="M555.857 357.795H543.456V400.525H555.857V357.795Z" fill="#EBEBEB"/>
<path d="M516.329 356.294L504.223 358.778L514.262 400.491L526.368 398.006L516.329 356.294Z" fill="#EBEBEB"/>
<path d="M466.16 348.865H459.966V400.513H466.16V348.865Z" fill="#EBEBEB"/>
<path d="M539.886 348.865H533.692V400.513H539.886V348.865Z" fill="#EBEBEB"/>
<path d="M425.467 350.071L413.246 352.016L422.299 400.513L434.52 398.568L425.467 350.071Z" fill="#EBEBEB"/>
<path d="M413.24 357.795H400.839V400.525H413.24V357.795Z" fill="#EBEBEB"/>
<path d="M373.712 356.305L361.606 358.789L371.645 400.502L383.751 398.017L373.712 356.305Z" fill="#EBEBEB"/>
<path d="M397.282 348.865H391.088V400.513H397.282V348.865Z" fill="#EBEBEB"/>
<path d="M448.031 98.9535H395.897V161.142H448.031V98.9535Z" fill="#E0E0E0"/>
<path d="M443.516 103H400.413V157.096H443.516V103Z" fill="#EBEBEB"/>
<path d="M436.03 107.859H407.898V110.811H436.03V107.859Z" fill="#E0E0E0"/>
<path d="M427.079 121.241C427.079 122.175 426.779 123.088 426.217 123.865C425.655 124.642 424.856 125.247 423.922 125.605C422.987 125.962 421.959 126.056 420.966 125.874C419.974 125.691 419.063 125.241 418.347 124.581C417.632 123.92 417.145 123.079 416.948 122.163C416.75 121.246 416.852 120.297 417.239 119.434C417.626 118.571 418.281 117.833 419.123 117.314C419.964 116.795 420.953 116.518 421.964 116.518C423.321 116.518 424.622 117.016 425.581 117.901C426.54 118.787 427.079 119.988 427.079 121.241Z" fill="#E0E0E0"/>
<path d="M431.235 132.262H412.694V135.017H431.235V132.262Z" fill="#E0E0E0"/>
<path d="M436.457 138.756H407.472V140.97H436.457V138.756Z" fill="#E0E0E0"/>
<path d="M433.579 145.767H410.349V150.183H433.579V145.767Z" fill="#E0E0E0"/>
<path d="M547.079 98.9535H494.945V161.142H547.079V98.9535Z" fill="#E0E0E0"/>
<path d="M542.563 103H499.46V157.096H542.563V103Z" fill="#EBEBEB"/>
<path d="M535.078 107.859H506.946V110.811H535.078V107.859Z" fill="#E0E0E0"/>
<path d="M526.14 121.241C526.14 122.175 525.84 123.088 525.278 123.865C524.716 124.642 523.917 125.247 522.982 125.605C522.048 125.962 521.019 126.056 520.027 125.874C519.035 125.691 518.124 125.241 517.408 124.581C516.693 123.92 516.206 123.079 516.008 122.163C515.811 121.246 515.912 120.297 516.299 119.434C516.687 118.571 517.342 117.833 518.183 117.314C519.024 116.795 520.013 116.518 521.025 116.518C521.697 116.516 522.363 116.637 522.984 116.874C523.606 117.111 524.17 117.459 524.646 117.898C525.121 118.337 525.498 118.858 525.754 119.432C526.011 120.005 526.142 120.62 526.14 121.241Z" fill="#E0E0E0"/>
<path d="M530.269 132.262H511.728V135.017H530.269V132.262Z" fill="#E0E0E0"/>
<path d="M535.504 138.756H506.52V140.97H535.504V138.756Z" fill="#E0E0E0"/>
<path d="M532.627 145.767H509.397V150.183H532.627V145.767Z" fill="#E0E0E0"/>
<path d="M304.029 139.31C319.36 139.31 331.788 127.833 331.788 113.677C331.788 99.5198 319.36 88.0434 304.029 88.0434C288.698 88.0434 276.27 99.5198 276.27 113.677C276.27 127.833 288.698 139.31 304.029 139.31Z" fill="#E0E0E0"/>
<path d="M304.029 135.226C316.917 135.226 327.366 125.578 327.366 113.677C327.366 101.775 316.917 92.127 304.029 92.127C291.141 92.127 280.692 101.775 280.692 113.677C280.692 125.578 291.141 135.226 304.029 135.226Z" fill="#EBEBEB"/>
<path d="M304.029 114.907H303.922C303.723 114.892 303.529 114.835 303.356 114.742C303.183 114.648 303.035 114.519 302.923 114.365L293.266 101.143C293.069 100.872 292.995 100.54 293.063 100.219C293.13 99.8986 293.333 99.6159 293.626 99.4332C293.919 99.2505 294.279 99.1829 294.626 99.2452C294.974 99.3074 295.28 99.4946 295.478 99.7653L304.189 111.696L310.263 105.546C310.503 105.307 310.837 105.165 311.19 105.152C311.543 105.139 311.888 105.257 312.148 105.479C312.407 105.7 312.561 106.008 312.575 106.335C312.588 106.661 312.461 106.979 312.221 107.219L305.028 114.501C304.902 114.63 304.748 114.733 304.576 114.802C304.403 114.872 304.217 114.908 304.029 114.907Z" fill="#E0E0E0"/>
<path d="M333 525.899C475.634 525.899 591.262 519.665 591.262 511.975C591.262 504.285 475.634 498.052 333 498.052C190.366 498.052 74.7385 504.285 74.7385 511.975C74.7385 519.665 190.366 525.899 333 525.899Z" fill="#F5F5F5"/>
<path d="M113.22 139.174V366.626C113.22 384.707 92.4808 390.894 90.3362 391.484C100.326 379.873 95.4644 364.929 95.4644 364.929C79.7202 358.951 70.596 340.895 67.5857 328.521C65.8274 321.141 73.26 300.809 80.9057 282.162C86.1005 269.505 91.4418 257.636 94.0658 251.129C99.7402 237.046 87.1927 220.674 88.2983 201.08C88.4621 198.175 88.935 195.291 89.7102 192.47C96.2503 169.002 113.22 139.174 113.22 139.174Z" fill="#407BFF"/>
<path opacity="0.2" d="M90.3362 391.669V391.595C100.326 379.984 95.4644 365.187 95.4644 365.187V365.31C106.706 366.54 116.43 374.08 90.3362 391.669Z" fill="black"/>
<path opacity="0.2" d="M113.22 276.332V330.071C100.896 315.026 90.0924 298.968 80.9456 282.101C86.1404 269.444 91.4817 257.574 94.1057 251.068C99.78 236.984 87.2326 220.613 88.3382 201.019C91.0022 216.923 95.0914 235.951 100.22 243.269C104.815 249.887 109.37 262.974 113.22 276.332Z" fill="black"/>
<path d="M117.349 135.706H111.395V504.3H117.349V135.706Z" fill="#263238"/>
<path opacity="0.2" d="M117.349 135.706H111.395V504.3H117.349V135.706Z" fill="white"/>
<path d="M106.054 500.044H122.691C126.409 504.495 131.746 507.553 137.716 508.654L143.75 509.773V512.233H85.0083V509.773L91.0423 508.654C97.008 507.552 102.34 504.494 106.054 500.044Z" fill="#263238"/>
<path opacity="0.1" d="M106.054 500.044H122.691C126.409 504.495 131.746 507.553 137.716 508.654L143.75 509.773H85.0083L91.0423 508.654C97.008 507.552 102.34 504.494 106.054 500.044Z" fill="white"/>
<path d="M118.242 135.706C118.244 136.415 118.019 137.109 117.594 137.699C117.169 138.29 116.564 138.75 115.855 139.023C115.146 139.295 114.366 139.367 113.613 139.229C112.86 139.092 112.168 138.75 111.625 138.249C111.082 137.748 110.712 137.109 110.563 136.413C110.414 135.718 110.492 134.997 110.787 134.343C111.082 133.688 111.581 133.129 112.22 132.737C112.86 132.345 113.611 132.136 114.379 132.139C115.403 132.139 116.386 132.515 117.11 133.184C117.835 133.853 118.242 134.76 118.242 135.706Z" fill="#263238"/>
<path opacity="0.3" d="M118.242 135.706C118.244 136.415 118.019 137.109 117.594 137.699C117.169 138.29 116.564 138.75 115.855 139.023C115.146 139.295 114.366 139.367 113.613 139.229C112.86 139.092 112.168 138.75 111.625 138.249C111.082 137.748 110.712 137.109 110.563 136.413C110.414 135.718 110.492 134.997 110.787 134.343C111.082 133.688 111.581 133.129 112.22 132.737C112.86 132.345 113.611 132.136 114.379 132.139C115.403 132.139 116.386 132.515 117.11 133.184C117.835 133.853 118.242 134.76 118.242 135.706Z" fill="white"/>
<path d="M223.11 196.554C234.312 200.183 258.288 234.315 255.291 249.383C252.294 264.45 220.912 269.063 220.912 269.063L223.11 196.554Z" fill="#263238"/>
<path opacity="0.3" d="M223.11 196.554C234.312 200.183 258.288 234.315 255.291 249.383C252.294 264.45 220.912 269.063 220.912 269.063L223.11 196.554Z" fill="black"/>
<path d="M216.677 503.107L227.492 504.152L228.052 498.15L227.852 498.039L229.104 482.701V482.64L218.515 481.582L218.581 481.705L217.116 498.039V498.15L216.677 503.107Z" fill="#B97964"/>
<path d="M162.771 501.84H173.24L173.36 498.888L173.373 498.617L173.853 486.17L173.866 485.899L174.106 479.7H163.836V479.995L163.636 480.241L162.504 497.99V498.273L162.771 501.84Z" fill="#B97964"/>
<path d="M174.692 501.262H161.971C161.762 501.261 161.559 501.326 161.397 501.447C161.234 501.568 161.122 501.737 161.079 501.926L159.014 510.536C158.932 510.906 159.011 511.292 159.236 511.608C159.461 511.924 159.812 512.144 160.213 512.221C160.324 512.233 160.435 512.233 160.546 512.221C164.662 512.16 167.659 511.926 172.827 511.926C176.011 511.926 185.614 512.234 190.01 512.234C194.406 512.234 194.978 508.224 193.18 507.855C185.108 506.231 179.034 503.98 176.45 501.84C175.966 501.446 175.337 501.239 174.692 501.262Z" fill="#263238"/>
<path d="M228.638 500.954H215.917C215.708 500.953 215.506 501.019 215.343 501.14C215.18 501.261 215.068 501.43 215.025 501.619L212.96 510.229C212.878 510.599 212.957 510.984 213.182 511.3C213.407 511.616 213.758 511.837 214.159 511.914C214.27 511.926 214.381 511.926 214.492 511.914C218.608 511.852 221.605 511.619 226.773 511.619C229.957 511.619 239.56 511.926 243.956 511.926C248.352 511.926 248.924 507.916 247.126 507.547C239.054 505.924 232.98 503.673 230.396 501.533C229.912 501.139 229.283 500.932 228.638 500.954Z" fill="#263238"/>
<path opacity="0.2" d="M217.156 498.15H228.065L229.517 482.701L218.714 481.668L218.701 481.705L217.169 498.039L217.156 498.15Z" fill="black"/>
<path opacity="0.2" d="M163.117 498.519L173.36 499.38H173.373L173.866 486.428L173.853 486.293L164.036 480.303L163.144 498.15L163.117 498.519Z" fill="black"/>
<path d="M160.493 496.305L176.557 498.039C176.557 498.039 188.425 424.682 193.42 393.059C193.5 392.555 193.566 392.062 193.646 391.583C195.618 379.098 197.882 355.618 199.8 333.551C200.892 336.257 201.891 339.246 202.824 342.506C203.023 343.182 203.223 343.871 203.41 344.572C203.596 345.273 203.849 346.233 204.062 347.032C204.276 347.832 204.462 348.656 204.662 349.492C205.008 350.993 205.354 352.543 205.687 354.117C216.477 405.199 216.69 495.432 216.69 495.432L231.875 496.28C242.93 418.016 230.729 324.08 224.735 289.973C224.742 290.026 224.742 290.079 224.735 290.132C224.628 289.493 224.509 288.902 224.402 288.226C224.408 288.181 224.408 288.136 224.402 288.091C224.109 286.43 223.829 285.311 223.576 284.081H168.045C168.045 284.081 168.045 284.524 168.045 284.831C168.045 285.139 168.045 285.557 168.045 285.987C168.045 286.418 168.045 286.627 168.045 286.996C168.045 287.365 168.045 287.414 168.045 287.636C168.045 287.857 168.045 288.091 168.045 288.337C168.045 289.444 168.045 290.735 168.045 292.187C168.045 292.703 168.045 293.244 168.045 293.81C168.045 294.13 168.045 294.45 168.045 294.769C168.045 295.089 168.045 295.68 168.045 296.159C167.872 309.197 167.512 330.599 166.966 351.509C166.966 352.334 166.966 353.158 166.9 353.969C166.833 354.781 166.9 355.273 166.9 355.925C166.7 363.305 166.473 370.464 166.207 377.118C165.941 383.772 165.661 389.824 165.354 394.953C165.354 395.42 165.354 395.912 165.275 396.404C165.275 397.105 165.195 397.831 165.141 398.581C163.023 430.5 160.493 496.305 160.493 496.305Z" fill="#263238"/>
<path opacity="0.3" d="M160.493 496.305L176.557 498.039C176.557 498.039 188.425 424.682 193.42 393.059C193.5 392.555 193.566 392.062 193.646 391.583C195.618 379.098 197.882 355.618 199.8 333.551C200.892 336.257 201.891 339.246 202.824 342.506C203.023 343.182 203.223 343.871 203.41 344.572C203.596 345.273 203.849 346.233 204.062 347.032C204.276 347.832 204.462 348.656 204.662 349.492C205.008 350.993 205.354 352.543 205.687 354.117C216.477 405.199 216.69 495.432 216.69 495.432L231.875 496.28C242.93 418.016 230.729 324.08 224.735 289.973C224.741 289.923 224.741 289.874 224.735 289.825C224.628 289.271 224.509 288.743 224.402 288.226C224.408 288.181 224.408 288.136 224.402 288.091C224.096 286.59 223.816 285.311 223.576 284.081H167.952C167.952 284.081 167.952 284.524 167.952 284.831C167.952 285.139 167.952 285.544 167.952 285.987C167.952 286.43 167.952 286.627 167.952 286.996V287.636C167.952 287.857 167.952 288.091 167.952 288.337C167.952 289.444 167.952 290.735 167.952 292.187C167.952 292.703 167.952 293.244 167.952 293.81C167.952 294.13 167.952 294.45 167.952 294.769C167.952 295.089 167.952 295.68 167.952 296.159C167.779 309.197 167.419 330.599 166.873 351.509C166.873 352.334 166.873 353.158 166.806 353.969C166.74 354.781 166.806 355.273 166.806 355.925C166.607 363.305 166.38 370.464 166.114 377.118C165.847 383.772 165.581 390.058 165.261 395.261C165.261 395.63 165.261 396.011 165.181 396.404C165.181 397.105 165.101 397.831 165.048 398.581C163.023 430.5 160.493 496.305 160.493 496.305Z" fill="black"/>
<path d="M152.061 447.991C152.061 447.991 193.953 458.089 245.927 447.991C245.927 447.991 243.583 366.368 235.165 284.105C233.3 265.84 231.169 247.525 228.611 230.084C226.933 218.436 225.108 207.169 223.11 196.554C201.717 191.365 179.12 192.308 158.322 199.26C158.322 199.26 159.374 224.241 159.893 259.591C159.987 265.741 160.067 272.125 160.107 278.792C160.533 333.256 159.347 403.44 152.061 447.991Z" fill="#263238"/>
<path d="M208.045 152.52C210.483 157.231 207.872 167.132 202.118 169.125C193.26 172.188 194.459 149.445 194.459 149.445C194.459 149.445 205.128 146.825 208.045 152.52Z" fill="#263238"/>
<path d="M176.863 195.878C181.965 200.158 194.459 198.571 194.459 198.571C194.459 198.571 202.264 196.603 200.626 194.352C196.031 193.651 193.806 191.671 192.887 189.137C192.384 187.566 192.225 185.919 192.421 184.291C192.497 183.383 192.626 182.48 192.807 181.585L177.356 170.97C179.381 177.993 181.858 190.822 176.863 195.878Z" fill="#B97964"/>
<path opacity="0.2" d="M180.926 177.735C181.539 186.345 189.158 188.657 192.914 189.137C192.41 187.566 192.252 185.919 192.448 184.291L180.926 177.735Z" fill="black"/>
<path d="M179.887 179.715C181.492 181.909 183.832 183.556 186.549 184.402C189.266 185.249 192.208 185.249 194.925 184.402C198.458 183.363 201.433 181.125 203.25 178.141C203.503 177.742 203.734 177.331 203.943 176.911C207.712 168.768 208.911 154.525 199.587 149.187C197.537 147.998 195.191 147.312 192.773 147.196C190.356 147.08 187.946 147.536 185.773 148.522C183.6 149.508 181.736 150.991 180.358 152.83C178.981 154.668 178.135 156.801 177.902 159.027C176.756 168.51 175.598 174.082 179.887 179.715Z" fill="#B97964"/>
<path d="M192.927 164.107C192.741 164.857 193.113 165.558 193.66 165.644C194.206 165.73 194.765 165.177 194.912 164.414C195.058 163.651 194.712 162.963 194.179 162.877C193.646 162.79 193.14 163.319 192.927 164.107Z" fill="#263238"/>
<path d="M202.344 165.583C202.144 166.333 202.531 167.046 203.077 167.132C203.623 167.219 204.169 166.653 204.316 165.902C204.462 165.152 204.129 164.439 203.583 164.353C203.037 164.267 202.464 164.82 202.344 165.583Z" fill="#263238"/>
<path d="M199.281 165.496C199.84 168.001 200.773 170.423 202.051 172.692C201.405 172.971 200.7 173.116 199.986 173.116C199.273 173.116 198.568 172.971 197.922 172.692L199.281 165.496Z" fill="#A24E3F"/>
<path d="M190.476 160.822C190.562 160.851 190.655 160.857 190.744 160.84C190.834 160.822 190.916 160.782 190.982 160.724C191.425 160.32 191.964 160.018 192.556 159.841C193.148 159.664 193.777 159.616 194.392 159.703C194.519 159.733 194.654 159.714 194.766 159.652C194.879 159.589 194.96 159.489 194.992 159.371C195.023 159.254 195.003 159.129 194.936 159.026C194.868 158.922 194.759 158.847 194.632 158.818C193.858 158.689 193.063 158.734 192.312 158.948C191.561 159.162 190.877 159.539 190.316 160.048C190.225 160.133 190.174 160.248 190.174 160.367C190.174 160.487 190.225 160.602 190.316 160.687C190.36 160.741 190.414 160.787 190.476 160.822Z" fill="#263238"/>
<path d="M195.804 176.517C194.582 176.498 193.382 176.206 192.308 175.667C191.235 175.127 190.318 174.355 189.637 173.418C189.603 173.362 189.593 173.296 189.611 173.234C189.628 173.172 189.671 173.119 189.73 173.086C189.787 173.053 189.855 173.043 189.92 173.057C189.985 173.071 190.041 173.108 190.077 173.159C190.727 174.015 191.585 174.718 192.581 175.214C193.578 175.709 194.686 175.983 195.817 176.013C195.884 176.016 195.946 176.042 195.993 176.085C196.04 176.128 196.067 176.186 196.071 176.247C196.071 176.309 196.044 176.368 195.996 176.412C195.949 176.456 195.885 176.48 195.817 176.48L195.804 176.517Z" fill="#263238"/>
<path d="M206.94 163.221C207.028 163.27 207.129 163.295 207.233 163.295C207.295 163.278 207.353 163.25 207.403 163.212C207.453 163.175 207.495 163.128 207.526 163.076C207.557 163.023 207.576 162.965 207.583 162.906C207.59 162.846 207.584 162.786 207.566 162.729C207.362 162.026 206.979 161.379 206.448 160.842C205.917 160.305 205.254 159.893 204.515 159.642C204.453 159.625 204.388 159.619 204.324 159.625C204.259 159.632 204.197 159.65 204.14 159.678C204.083 159.707 204.033 159.745 203.992 159.792C203.951 159.838 203.921 159.892 203.903 159.949C203.872 160.065 203.889 160.187 203.951 160.291C204.013 160.396 204.114 160.476 204.236 160.515C204.81 160.728 205.323 161.06 205.735 161.487C206.146 161.914 206.445 162.423 206.607 162.975C206.637 163.038 206.683 163.092 206.741 163.135C206.799 163.178 206.867 163.207 206.94 163.221Z" fill="#263238"/>
<path d="M181.485 142.68C173 144.734 171.881 155.595 173.08 165.496C174.119 174.106 179.034 178.141 179.034 178.141C176.81 174.045 177.476 166.05 178.928 165.841C180.379 165.632 180.26 167.182 180.26 167.182C183.47 165.324 188.145 162.36 184.562 153.442C184.136 152.385 183.816 149.912 185.374 148.99C188.371 147.194 192.554 148.904 192.554 148.904C192.554 148.904 202.97 160.982 207.965 150.982C210.456 146.026 190.809 140.429 181.485 142.68Z" fill="#263238"/>
<path opacity="0.2" d="M194.925 184.402C198.458 183.363 201.433 181.125 203.25 178.141C200.733 178.141 197.07 178.276 196.111 178.817C195.151 179.359 194.938 182.323 194.925 184.402Z" fill="black"/>
<path d="M172.001 166.05C172.746 168.364 174.45 170.314 176.743 171.474C179.793 172.987 182.071 170.626 181.858 167.612C181.645 164.918 179.847 160.81 176.463 160.576C173.08 160.343 171.135 163.196 172.001 166.05Z" fill="#B97964"/>
<path d="M176.783 194.008C176.783 194.008 199.001 250.305 189.264 442.185L169.377 439.577C169.377 439.577 186.906 300.12 163.05 196.554L176.783 194.008Z" fill="#407BFF"/>
<path d="M198.468 192.003C198.468 192.003 220.872 248.152 230.942 440.34L243.263 438.495C243.263 438.495 229.943 224.782 210.163 192.298L198.468 192.003Z" fill="#407BFF"/>
<path d="M216.21 213.909L203.676 195.066C201.6 194.652 199.752 193.565 198.468 192.003C196.55 189.543 195.338 179.703 196.244 179.285C197.149 178.867 206.9 179.9 207.566 181.105C208.232 182.311 210.163 192.298 210.163 192.298L224.602 207.932L216.21 213.909Z" fill="#B97964"/>
<path opacity="0.2" d="M212.334 217.402C212.334 217.402 220.326 275.889 235.165 284.105C233.3 265.84 231.169 247.525 228.611 230.084L212.334 217.402Z" fill="black"/>
<path d="M179.54 189.715C176.001 191.207 172.869 193.414 170.376 196.173L176.863 205.57L180.926 204.34L181.365 237.439C181.365 237.439 201.598 240.613 214.998 234.647L203.25 202.852L206.753 203.122C206.753 203.122 205.981 192.298 192.887 189.186C192.887 189.186 195.977 194.771 195.551 195.545L183.723 196.222L179.54 189.715Z" fill="#407BFF"/>
<path opacity="0.6" d="M179.54 189.715C176.001 191.207 172.869 193.414 170.376 196.173L176.863 205.57L180.926 204.34L181.365 237.439C181.365 237.439 201.598 240.613 214.998 234.647L203.25 202.852L206.753 203.122C206.753 203.122 205.981 192.298 192.887 189.186C192.887 189.186 195.977 194.771 195.551 195.545L183.723 196.222L179.54 189.715Z" fill="white"/>
<path opacity="0.2" d="M180.926 204.291L181.871 198.128L176.863 205.57L180.926 204.291Z" fill="black"/>
<path opacity="0.2" d="M203.25 202.802L197.922 196.173L206.753 203.073L203.25 202.802Z" fill="black"/>
<path opacity="0.2" d="M159.84 259.604C159.933 265.754 160.013 272.137 160.053 278.804C184.669 280.92 198.455 269.062 198.455 269.062L159.84 259.604Z" fill="black"/>
<path d="M255.451 244.573C255.145 238.743 222.91 203.073 222.91 203.073L212.334 217.402L233.22 266.147C233.22 266.147 256.437 263.896 255.451 244.573Z" fill="#263238"/>
<path d="M255.504 234.784L232.621 256.339C232.466 256.485 232.253 256.569 232.03 256.571C231.808 256.573 231.594 256.493 231.435 256.35L229.694 254.774C229.538 254.632 229.448 254.439 229.446 254.237C229.444 254.035 229.529 253.84 229.682 253.695L252.574 232.132L255.504 234.784Z" fill="#407BFF"/>
<path d="M258.595 242.396L265.814 235.582C262.585 230.406 257.876 226.15 252.201 223.282L244.968 230.01C248.186 235.22 252.902 239.507 258.595 242.396Z" fill="#407BFF"/>
<path opacity="0.2" d="M258.595 242.396L265.814 235.582C262.585 230.406 257.876 226.15 252.201 223.282L244.968 230.01C248.186 235.22 252.902 239.507 258.595 242.396Z" fill="black"/>
<path d="M245.358 231.621L253.881 223.593C254.138 223.35 254.134 222.961 253.872 222.723L252.511 221.492C252.249 221.254 251.827 221.258 251.57 221.501L243.047 229.529C242.789 229.771 242.794 230.161 243.056 230.399L244.417 231.63C244.679 231.868 245.101 231.864 245.358 231.621Z" fill="#407BFF"/>
<path d="M259.227 244.175L267.749 236.147C268.007 235.904 268.002 235.515 267.74 235.277L266.38 234.046C266.117 233.808 265.695 233.812 265.438 234.055L256.915 242.083C256.658 242.325 256.662 242.715 256.924 242.952L258.285 244.184C258.547 244.422 258.969 244.418 259.227 244.175Z" fill="#407BFF"/>
<path d="M205.008 244.327L228.904 242.79C230.264 241.301 232.152 240.307 234.232 239.985C237.549 239.567 247.472 243.097 247.472 244.044C247.472 244.991 241.958 252.47 240.479 252.47C239.001 252.47 228.491 249.407 228.491 249.407L206.806 253.995L205.008 244.327Z" fill="#B97964"/>
<path d="M158.322 199.26C146.067 205.09 132.081 244.143 142.338 260.76C152.594 277.377 207.526 273.97 207.526 273.97L219.327 242.31C219.327 242.31 176.037 247.513 167.046 241.523C161.505 237.833 161.239 221.498 160.493 210.379C160.32 206.599 159.59 202.858 158.322 199.26Z" fill="#263238"/>
<path opacity="0.3" d="M158.322 199.26C146.067 205.09 132.081 244.143 142.338 260.76C152.594 277.377 207.526 273.97 207.526 273.97L219.327 242.31C219.327 242.31 176.037 247.513 167.046 241.523C161.505 237.833 161.239 221.498 160.493 210.379C160.32 206.599 159.59 202.858 158.322 199.26Z" fill="black"/>
<path d="M197.296 168.633C197.299 169.105 197.149 169.568 196.867 169.962C196.585 170.356 196.182 170.664 195.71 170.846C195.238 171.029 194.718 171.078 194.216 170.987C193.714 170.896 193.252 170.67 192.89 170.337C192.527 170.004 192.279 169.579 192.179 169.115C192.078 168.652 192.128 168.172 192.323 167.735C192.519 167.298 192.85 166.925 193.275 166.662C193.7 166.399 194.2 166.259 194.712 166.259C195.395 166.259 196.05 166.509 196.534 166.954C197.019 167.398 197.293 168.002 197.296 168.633Z" stroke="#263238" stroke-width="0.5" stroke-miterlimit="10"/>
<path d="M206.46 169.826C206.46 170.299 206.308 170.76 206.024 171.153C205.739 171.546 205.335 171.852 204.862 172.032C204.389 172.212 203.869 172.259 203.367 172.166C202.865 172.072 202.405 171.844 202.044 171.509C201.683 171.174 201.438 170.748 201.34 170.284C201.242 169.82 201.295 169.34 201.493 168.904C201.69 168.469 202.023 168.097 202.45 167.836C202.877 167.575 203.378 167.437 203.889 167.44C204.229 167.438 204.565 167.499 204.878 167.618C205.192 167.738 205.477 167.914 205.716 168.136C205.955 168.358 206.144 168.622 206.272 168.912C206.4 169.202 206.464 169.513 206.46 169.826Z" stroke="#263238" stroke-width="0.5" stroke-miterlimit="10"/>
<path d="M181.871 163.295L192.141 168.203" stroke="#263238" stroke-width="0.5" stroke-miterlimit="10"/>
<path d="M197.296 169.125C197.296 169.125 199.96 167.735 201.292 169.826" stroke="#263238" stroke-width="0.5" stroke-miterlimit="10"/>
<path d="M440.825 236.332H435.125V244.832H440.825V236.332Z" fill="#407BFF"/>
<path opacity="0.2" d="M440.825 236.332H435.125V244.832H440.825V236.332Z" fill="black"/>
<path d="M433.832 500.241H442.131V307.402H433.832V500.241Z" fill="#263238"/>
<path d="M458.208 464.054C458.207 460.961 457.35 457.919 455.718 455.218C454.086 452.516 451.734 450.244 448.884 448.618L448.245 437.88H427.772L427.119 448.618C424.42 450.19 422.169 452.336 420.552 454.876C418.936 457.417 418.002 460.278 417.828 463.22C417.655 466.162 418.247 469.1 419.555 471.787C420.863 474.475 422.85 476.834 425.348 478.667L424.708 489.54H451.242L450.602 478.593C452.973 476.854 454.887 474.643 456.204 472.126C457.521 469.609 458.206 466.85 458.208 464.054Z" fill="#407BFF"/>
<path opacity="0.1" d="M448.817 448.95L448.178 437.88H427.772L427.119 448.95H448.817Z" fill="white"/>
<path opacity="0.2" d="M425.348 479.442L424.708 490.598H451.242L450.602 479.417L425.348 479.442Z" fill="black"/>
<path d="M419.181 484.62H456.756C465.157 494.658 477.199 501.559 490.669 504.054L504.295 506.514V512.184H371.628V506.514L385.255 504.054C398.731 501.565 410.779 494.663 419.181 484.62Z" fill="#263238"/>
<path opacity="0.1" d="M419.181 484.62H456.756C465.157 494.658 477.199 501.559 490.669 504.054L504.295 506.514H371.628L385.255 504.054C398.731 501.565 410.779 494.663 419.181 484.62Z" fill="white"/>
<path d="M444.249 270.514H431.701V312.814H444.249V270.514Z" fill="#407BFF"/>
<path opacity="0.2" d="M444.249 270.514H431.701V312.814H444.249V270.514Z" fill="black"/>
<path d="M441.025 238.054C441.276 237.614 441.409 237.125 441.411 236.627C441.411 235.786 441.049 234.979 440.405 234.383C439.76 233.788 438.886 233.454 437.975 233.454C437.063 233.454 436.189 233.788 435.545 234.383C434.9 234.979 434.538 235.786 434.538 236.627C434.544 237.123 434.671 237.611 434.911 238.054H441.025Z" fill="#407BFF"/>
<path d="M598.361 410.353C598.102 409.886 598.049 409.344 598.213 408.842C598.377 408.34 598.745 407.916 599.24 407.659C600.186 407.327 601.331 408.016 601.798 409.196C601.972 409.417 602.089 409.671 602.139 409.94C602.189 410.209 602.17 410.486 602.085 410.747C601.999 411.008 601.848 411.247 601.645 411.446C601.442 411.644 601.191 411.796 600.914 411.889C600.636 411.983 600.338 412.015 600.045 411.984C599.751 411.953 599.469 411.859 599.221 411.71C598.974 411.561 598.767 411.361 598.618 411.125C598.468 410.889 598.381 410.625 598.361 410.353Z" stroke="#263238" stroke-miterlimit="10"/>
<path d="M599.547 408.421L597.722 403.809" stroke="#263238" stroke-linecap="round" stroke-linejoin="round"/>
<path d="M595.617 403.44C595.597 403.115 595.675 402.79 595.842 402.504C596.01 402.217 596.26 401.978 596.566 401.815C596.872 401.652 597.22 401.571 597.573 401.58C597.926 401.59 598.269 401.689 598.564 401.868C598.859 402.047 599.094 402.298 599.244 402.593C599.394 402.888 599.451 403.216 599.411 403.54C599.371 403.863 599.234 404.17 599.015 404.426C598.797 404.683 598.506 404.878 598.175 404.99C597.229 405.285 596.083 404.596 595.617 403.44Z" stroke="#263238" stroke-miterlimit="10"/>
<path d="M596.803 401.497L594.978 396.872" stroke="#263238" stroke-linecap="round" stroke-linejoin="round"/>
<path d="M592.873 396.49C592.614 396.022 592.56 395.479 592.724 394.974C592.888 394.47 593.256 394.044 593.752 393.784C594.698 393.465 595.844 394.153 596.31 395.334C596.485 395.554 596.602 395.809 596.651 396.078C596.701 396.347 596.682 396.623 596.597 396.885C596.511 397.146 596.36 397.385 596.157 397.584C595.954 397.782 595.704 397.934 595.426 398.027C595.148 398.121 594.851 398.153 594.557 398.122C594.263 398.091 593.981 397.997 593.734 397.848C593.486 397.699 593.279 397.499 593.13 397.263C592.981 397.027 592.893 396.763 592.873 396.49Z" stroke="#263238" stroke-miterlimit="10"/>
<path d="M594.059 394.559L592.234 389.947" stroke="#263238" stroke-linecap="round" stroke-linejoin="round"/>
<path d="M590.076 389.553C590.071 389.235 590.159 388.921 590.332 388.646C590.505 388.37 590.755 388.143 591.057 387.989C591.358 387.834 591.699 387.758 592.044 387.769C592.388 387.78 592.723 387.876 593.013 388.049C593.303 388.221 593.536 388.463 593.689 388.749C593.841 389.034 593.907 389.353 593.879 389.67C593.851 389.987 593.73 390.292 593.53 390.55C593.329 390.809 593.056 391.013 592.74 391.14C591.741 391.423 590.596 390.734 590.076 389.553Z" stroke="#263238" stroke-miterlimit="10"/>
<path d="M591.315 387.634L589.49 383.01" stroke="#263238" stroke-linecap="round" stroke-linejoin="round"/>
<path d="M587.412 382.628C587.389 382.303 587.465 381.978 587.631 381.689C587.797 381.401 588.046 381.161 588.351 380.996C588.657 380.832 589.005 380.749 589.359 380.756C589.712 380.764 590.056 380.863 590.352 381.041C590.648 381.219 590.885 381.47 591.036 381.765C591.187 382.06 591.245 382.388 591.206 382.712C591.166 383.037 591.029 383.344 590.811 383.601C590.593 383.858 590.301 384.053 589.97 384.166C589.411 384.262 588.834 384.156 588.358 383.87C587.881 383.584 587.543 383.139 587.412 382.628Z" stroke="#263238" stroke-miterlimit="10"/>
<path d="M588.571 380.697L586.746 376.073" stroke="#263238" stroke-linecap="round" stroke-linejoin="round"/>
<path d="M584.641 375.691C584.619 375.366 584.694 375.04 584.86 374.752C585.026 374.464 585.276 374.224 585.581 374.059C585.886 373.895 586.234 373.811 586.588 373.819C586.941 373.827 587.285 373.926 587.581 374.104C587.878 374.282 588.114 374.532 588.265 374.828C588.416 375.123 588.475 375.451 588.435 375.775C588.395 376.1 588.259 376.407 588.04 376.664C587.822 376.921 587.531 377.116 587.199 377.229C586.64 377.328 586.061 377.223 585.584 376.937C585.107 376.65 584.769 376.203 584.641 375.691Z" stroke="#263238" stroke-miterlimit="10"/>
<path d="M585.827 373.772L584.002 369.148" stroke="#263238" stroke-linecap="round" stroke-linejoin="round"/>
<path d="M581.898 368.766C581.875 368.441 581.951 368.115 582.116 367.827C582.282 367.539 582.532 367.299 582.837 367.134C583.142 366.97 583.491 366.887 583.844 366.894C584.197 366.902 584.541 367.001 584.838 367.179C585.134 367.357 585.37 367.607 585.521 367.903C585.672 368.198 585.731 368.526 585.691 368.85C585.651 369.175 585.515 369.482 585.296 369.739C585.078 369.996 584.787 370.191 584.455 370.304C583.896 370.4 583.319 370.294 582.843 370.008C582.367 369.722 582.028 369.277 581.898 368.766Z" stroke="#263238" stroke-miterlimit="10"/>
<path d="M583.083 366.835L581.258 362.21" stroke="#263238" stroke-linecap="round" stroke-linejoin="round"/>
<path d="M579.154 361.829C579.131 361.503 579.207 361.178 579.372 360.89C579.538 360.602 579.788 360.362 580.093 360.197C580.398 360.032 580.747 359.949 581.1 359.957C581.453 359.965 581.797 360.063 582.094 360.242C582.39 360.42 582.627 360.67 582.777 360.965C582.928 361.261 582.987 361.589 582.947 361.913C582.907 362.237 582.771 362.545 582.552 362.802C582.334 363.059 582.043 363.254 581.711 363.367C581.152 363.466 580.573 363.361 580.096 363.075C579.619 362.788 579.281 362.341 579.154 361.829Z" stroke="#263238" stroke-miterlimit="10"/>
<path d="M580.339 359.91L578.514 355.286" stroke="#263238" stroke-linecap="round" stroke-linejoin="round"/>
<path d="M576.41 354.904C576.383 354.575 576.457 354.246 576.623 353.953C576.788 353.661 577.039 353.417 577.347 353.249C577.654 353.081 578.007 352.996 578.364 353.003C578.722 353.01 579.07 353.109 579.369 353.289C579.669 353.469 579.908 353.723 580.059 354.022C580.211 354.321 580.269 354.653 580.228 354.981C580.186 355.308 580.046 355.619 579.823 355.877C579.6 356.135 579.304 356.331 578.967 356.442C578.409 356.538 577.831 356.432 577.355 356.146C576.879 355.859 576.54 355.415 576.41 354.904Z" stroke="#263238" stroke-miterlimit="10"/>
<path d="M577.595 352.973L575.771 348.348" stroke="#263238" stroke-linecap="round" stroke-linejoin="round"/>
<path d="M573.666 347.967C573.408 347.499 573.357 346.956 573.523 346.454C573.69 345.952 574.061 345.528 574.558 345.273C575.504 344.941 576.649 345.642 577.116 346.811C577.286 347.032 577.399 347.286 577.446 347.554C577.492 347.821 577.471 348.096 577.384 348.355C577.296 348.614 577.146 348.85 576.943 349.047C576.74 349.243 576.491 349.393 576.215 349.486C575.939 349.578 575.643 349.61 575.351 349.58C575.059 349.55 574.779 349.457 574.532 349.31C574.285 349.163 574.079 348.965 573.928 348.732C573.778 348.499 573.688 348.237 573.666 347.967Z" stroke="#263238" stroke-miterlimit="10"/>
<path d="M574.864 346.036L573.026 341.423" stroke="#263238" stroke-linecap="round" stroke-linejoin="round"/>
<path d="M570.922 341.042C570.896 340.714 570.971 340.385 571.136 340.093C571.302 339.802 571.552 339.558 571.859 339.391C572.166 339.223 572.518 339.138 572.874 339.145C573.231 339.152 573.578 339.25 573.878 339.429C574.177 339.608 574.416 339.861 574.569 340.158C574.721 340.456 574.781 340.787 574.741 341.114C574.701 341.442 574.563 341.752 574.342 342.011C574.122 342.27 573.828 342.467 573.493 342.58C572.932 342.679 572.351 342.575 571.872 342.288C571.393 342.002 571.053 341.555 570.922 341.042Z" stroke="#263238" stroke-miterlimit="10"/>
<path d="M572.121 339.111L570.282 334.486" stroke="#263238" stroke-linecap="round" stroke-linejoin="round"/>
<path d="M568.191 334.105C567.932 333.636 567.878 333.093 568.042 332.589C568.206 332.085 568.574 331.658 569.07 331.399C570.016 331.079 571.162 331.768 571.628 332.949C571.803 333.169 571.92 333.424 571.969 333.693C572.019 333.962 572.001 334.238 571.915 334.499C571.829 334.76 571.679 335 571.475 335.198C571.272 335.396 571.022 335.548 570.744 335.642C570.466 335.735 570.169 335.768 569.875 335.736C569.581 335.705 569.299 335.612 569.052 335.462C568.804 335.313 568.597 335.113 568.448 334.877C568.299 334.642 568.211 334.377 568.191 334.105Z" stroke="#263238" stroke-miterlimit="10"/>
<path d="M569.377 332.174L567.539 327.561" stroke="#263238" stroke-linecap="round" stroke-linejoin="round"/>
<path d="M565.447 327.18C565.185 326.714 565.13 326.171 565.295 325.668C565.459 325.165 565.829 324.741 566.327 324.486C566.758 324.19 567.28 324.026 567.818 324.019C568.356 324.012 568.882 324.162 569.323 324.447C569.763 324.733 570.095 325.139 570.271 325.608C570.447 326.078 570.458 326.586 570.303 327.062C570.147 327.538 569.834 327.956 569.406 328.257C568.979 328.559 568.459 328.728 567.921 328.741C567.383 328.754 566.855 328.611 566.411 328.33C565.967 328.05 565.63 327.647 565.447 327.18Z" stroke="#263238" stroke-miterlimit="10"/>
<path d="M566.633 325.249L564.795 320.624" stroke="#263238" stroke-linecap="round" stroke-linejoin="round"/>
<path d="M562.703 320.243C562.681 319.917 562.756 319.592 562.922 319.304C563.088 319.016 563.338 318.776 563.643 318.611C563.948 318.446 564.297 318.363 564.65 318.371C565.003 318.379 565.347 318.477 565.643 318.655C565.94 318.833 566.176 319.084 566.327 319.379C566.478 319.674 566.537 320.003 566.497 320.327C566.457 320.651 566.321 320.959 566.102 321.216C565.884 321.472 565.593 321.668 565.261 321.78C564.702 321.877 564.125 321.771 563.649 321.484C563.173 321.198 562.834 320.753 562.703 320.243Z" stroke="#263238" stroke-miterlimit="10"/>
<path d="M563.889 318.312L562.064 313.687" stroke="#263238" stroke-linecap="round" stroke-linejoin="round"/>
<path d="M559.96 313.306C559.937 312.98 560.012 312.655 560.178 312.367C560.344 312.078 560.594 311.838 560.899 311.674C561.204 311.509 561.553 311.426 561.906 311.434C562.259 311.441 562.603 311.54 562.9 311.718C563.196 311.896 563.432 312.147 563.583 312.442C563.734 312.737 563.793 313.065 563.753 313.39C563.713 313.714 563.577 314.022 563.358 314.278C563.14 314.535 562.849 314.731 562.517 314.843C561.958 314.942 561.379 314.838 560.902 314.551C560.425 314.264 560.087 313.818 559.96 313.306Z" stroke="#263238" stroke-miterlimit="10"/>
<path d="M561.145 311.387L559.32 306.762" stroke="#263238" stroke-linecap="round" stroke-linejoin="round"/>
<path d="M557.216 306.381C557.193 306.055 557.269 305.73 557.435 305.442C557.6 305.153 557.85 304.914 558.155 304.749C558.46 304.584 558.809 304.501 559.162 304.509C559.515 304.517 559.859 304.615 560.156 304.793C560.452 304.971 560.689 305.222 560.839 305.517C560.99 305.812 561.049 306.14 561.009 306.465C560.969 306.789 560.833 307.097 560.615 307.353C560.396 307.61 560.105 307.806 559.773 307.918C559.215 308.014 558.637 307.908 558.161 307.622C557.685 307.336 557.346 306.891 557.216 306.381Z" stroke="#263238" stroke-miterlimit="10"/>
<path d="M558.401 304.45L556.576 299.825" stroke="#263238" stroke-linecap="round" stroke-linejoin="round"/>
<path d="M554.472 299.443C554.449 299.118 554.525 298.793 554.691 298.504C554.856 298.216 555.106 297.976 555.411 297.812C555.716 297.647 556.065 297.564 556.418 297.572C556.772 297.579 557.116 297.678 557.412 297.856C557.708 298.034 557.945 298.285 558.095 298.58C558.246 298.875 558.305 299.203 558.265 299.527C558.226 299.852 558.089 300.16 557.871 300.416C557.652 300.673 557.361 300.868 557.029 300.981C556.47 301.08 555.891 300.976 555.414 300.689C554.937 300.402 554.599 299.956 554.472 299.443Z" stroke="#263238" stroke-miterlimit="10"/>
<path d="M555.657 297.525L553.832 292.9" stroke="#263238" stroke-linecap="round" stroke-linejoin="round"/>
<path d="M551.728 292.519C551.705 292.193 551.781 291.868 551.947 291.58C552.113 291.291 552.362 291.051 552.667 290.887C552.972 290.722 553.321 290.639 553.674 290.647C554.028 290.654 554.372 290.753 554.668 290.931C554.964 291.109 555.201 291.36 555.352 291.655C555.502 291.95 555.561 292.278 555.521 292.603C555.482 292.927 555.345 293.235 555.127 293.491C554.908 293.748 554.617 293.944 554.285 294.056C553.727 294.152 553.15 294.046 552.673 293.76C552.197 293.474 551.859 293.029 551.728 292.519Z" stroke="#263238" stroke-miterlimit="10"/>
<path d="M552.913 290.588L551.088 285.963" stroke="#263238" stroke-linecap="round" stroke-linejoin="round"/>
<path d="M503.203 410.353C503.462 409.886 503.515 409.344 503.351 408.842C503.187 408.34 502.819 407.916 502.324 407.659C501.378 407.327 500.233 408.016 499.767 409.196C499.592 409.417 499.475 409.671 499.425 409.94C499.375 410.209 499.394 410.486 499.48 410.747C499.565 411.008 499.716 411.247 499.919 411.446C500.122 411.644 500.373 411.796 500.65 411.889C500.928 411.983 501.226 412.015 501.519 411.984C501.813 411.953 502.095 411.859 502.343 411.71C502.59 411.561 502.797 411.361 502.946 411.125C503.096 410.889 503.184 410.625 503.203 410.353Z" stroke="#263238" stroke-miterlimit="10"/>
<path d="M502.018 408.421L503.842 403.809" stroke="#263238" stroke-linecap="round" stroke-linejoin="round"/>
<path d="M505.947 403.44C505.967 403.115 505.889 402.79 505.722 402.504C505.554 402.217 505.304 401.978 504.998 401.815C504.693 401.652 504.344 401.571 503.991 401.58C503.638 401.59 503.295 401.689 503 401.868C502.705 402.047 502.47 402.298 502.32 402.593C502.171 402.888 502.113 403.216 502.153 403.54C502.193 403.863 502.33 404.17 502.549 404.426C502.767 404.683 503.058 404.878 503.39 404.99C504.335 405.285 505.481 404.596 505.947 403.44Z" stroke="#263238" stroke-miterlimit="10"/>
<path d="M504.761 401.497L506.586 396.872" stroke="#263238" stroke-linecap="round" stroke-linejoin="round"/>
<path d="M508.691 396.49C508.95 396.022 509.004 395.479 508.84 394.974C508.676 394.47 508.308 394.044 507.812 393.784C506.866 393.465 505.721 394.153 505.254 395.334C505.079 395.554 504.963 395.809 504.913 396.078C504.863 396.347 504.882 396.623 504.967 396.885C505.053 397.146 505.204 397.385 505.407 397.584C505.61 397.782 505.86 397.934 506.138 398.027C506.416 398.121 506.714 398.153 507.007 398.122C507.301 398.091 507.583 397.997 507.83 397.848C508.078 397.699 508.285 397.499 508.434 397.263C508.584 397.027 508.671 396.763 508.691 396.49Z" stroke="#263238" stroke-miterlimit="10"/>
<path d="M507.505 394.559L509.33 389.947" stroke="#263238" stroke-linecap="round" stroke-linejoin="round"/>
<path d="M511.488 389.553C511.493 389.235 511.405 388.921 511.232 388.646C511.059 388.37 510.809 388.143 510.507 387.989C510.206 387.834 509.865 387.758 509.52 387.769C509.176 387.78 508.841 387.876 508.551 388.049C508.261 388.221 508.028 388.463 507.875 388.749C507.723 389.034 507.657 389.353 507.685 389.67C507.713 389.987 507.834 390.292 508.034 390.55C508.235 390.809 508.508 391.013 508.824 391.14C509.823 391.423 510.969 390.734 511.488 389.553Z" stroke="#263238" stroke-miterlimit="10"/>
<path d="M510.249 387.634L512.074 383.01" stroke="#263238" stroke-linecap="round" stroke-linejoin="round"/>
<path d="M514.152 382.628C514.175 382.303 514.099 381.978 513.933 381.689C513.767 381.401 513.518 381.161 513.213 380.996C512.908 380.832 512.559 380.749 512.206 380.756C511.852 380.764 511.508 380.863 511.212 381.041C510.916 381.219 510.679 381.47 510.528 381.765C510.378 382.06 510.319 382.388 510.358 382.712C510.398 383.037 510.535 383.344 510.753 383.601C510.971 383.858 511.263 384.053 511.595 384.166C512.153 384.262 512.73 384.156 513.207 383.87C513.683 383.584 514.021 383.139 514.152 382.628Z" stroke="#263238" stroke-miterlimit="10"/>
<path d="M512.993 380.697L514.818 376.073" stroke="#263238" stroke-linecap="round" stroke-linejoin="round"/>
<path d="M516.922 375.691C516.945 375.366 516.87 375.04 516.704 374.752C516.538 374.464 516.288 374.224 515.983 374.059C515.678 373.895 515.329 373.811 514.976 373.819C514.623 373.827 514.279 373.926 513.982 374.104C513.686 374.282 513.45 374.532 513.299 374.828C513.148 375.123 513.089 375.451 513.129 375.775C513.169 376.1 513.305 376.407 513.524 376.664C513.742 376.921 514.033 377.116 514.365 377.229C514.924 377.328 515.503 377.223 515.98 376.937C516.457 376.65 516.795 376.203 516.922 375.691Z" stroke="#263238" stroke-miterlimit="10"/>
<path d="M515.737 373.772L517.562 369.148" stroke="#263238" stroke-linecap="round" stroke-linejoin="round"/>
<path d="M519.667 368.766C519.693 368.437 519.619 368.108 519.454 367.815C519.288 367.523 519.037 367.279 518.73 367.111C518.422 366.943 518.07 366.858 517.712 366.865C517.355 366.872 517.007 366.971 516.707 367.151C516.408 367.331 516.169 367.585 516.017 367.884C515.865 368.183 515.807 368.515 515.849 368.843C515.891 369.17 516.031 369.481 516.253 369.739C516.476 369.997 516.773 370.193 517.109 370.304C517.668 370.4 518.245 370.294 518.721 370.008C519.197 369.722 519.536 369.277 519.667 368.766Z" stroke="#263238" stroke-miterlimit="10"/>
<path d="M518.481 366.835L520.306 362.21" stroke="#263238" stroke-linecap="round" stroke-linejoin="round"/>
<path d="M522.411 361.829C522.433 361.503 522.358 361.178 522.192 360.89C522.026 360.602 521.776 360.362 521.471 360.197C521.166 360.032 520.817 359.949 520.464 359.957C520.111 359.965 519.767 360.063 519.471 360.242C519.174 360.42 518.938 360.67 518.787 360.965C518.636 361.261 518.577 361.589 518.617 361.913C518.657 362.237 518.793 362.545 519.012 362.802C519.23 363.059 519.521 363.254 519.853 363.367C520.412 363.463 520.989 363.357 521.465 363.071C521.941 362.784 522.28 362.34 522.411 361.829Z" stroke="#263238" stroke-miterlimit="10"/>
<path d="M521.225 359.91L523.05 355.286" stroke="#263238" stroke-linecap="round" stroke-linejoin="round"/>
<path d="M525.154 354.904C525.181 354.575 525.107 354.246 524.941 353.953C524.776 353.661 524.525 353.417 524.217 353.249C523.91 353.081 523.557 352.996 523.2 353.003C522.843 353.01 522.495 353.109 522.195 353.289C521.896 353.469 521.656 353.723 521.505 354.022C521.353 354.321 521.295 354.653 521.337 354.981C521.378 355.308 521.519 355.619 521.741 355.877C521.964 356.135 522.26 356.331 522.597 356.442C523.156 356.538 523.733 356.432 524.209 356.146C524.685 355.859 525.024 355.415 525.154 354.904Z" stroke="#263238" stroke-miterlimit="10"/>
<path d="M523.956 352.973L525.794 348.348" stroke="#263238" stroke-linecap="round" stroke-linejoin="round"/>
<path d="M527.898 347.967C528.156 347.499 528.207 346.956 528.041 346.454C527.874 345.952 527.503 345.528 527.006 345.273C526.06 344.941 524.915 345.642 524.449 346.811C524.278 347.032 524.165 347.286 524.119 347.554C524.072 347.821 524.093 348.096 524.18 348.355C524.268 348.614 524.419 348.85 524.621 349.047C524.824 349.243 525.073 349.393 525.349 349.486C525.626 349.578 525.921 349.61 526.213 349.58C526.505 349.55 526.785 349.457 527.032 349.31C527.279 349.163 527.485 348.965 527.636 348.732C527.786 348.499 527.876 348.237 527.898 347.967Z" stroke="#263238" stroke-miterlimit="10"/>
<path d="M526.699 346.036L528.538 341.423" stroke="#263238" stroke-linecap="round" stroke-linejoin="round"/>
<path d="M530.642 341.042C530.668 340.714 530.594 340.385 530.428 340.093C530.262 339.802 530.012 339.558 529.705 339.391C529.398 339.223 529.046 339.138 528.69 339.145C528.333 339.152 527.986 339.25 527.686 339.429C527.387 339.608 527.148 339.861 526.995 340.158C526.843 340.456 526.783 340.787 526.823 341.114C526.863 341.442 527.001 341.752 527.222 342.011C527.442 342.27 527.737 342.467 528.072 342.58C528.632 342.679 529.213 342.575 529.692 342.288C530.171 342.002 530.512 341.555 530.642 341.042Z" stroke="#263238" stroke-miterlimit="10"/>
<path d="M529.443 339.111L531.281 334.486" stroke="#263238" stroke-linecap="round" stroke-linejoin="round"/>
<path d="M533.373 334.105C533.632 333.636 533.686 333.093 533.522 332.589C533.358 332.085 532.99 331.658 532.494 331.399C531.548 331.079 530.402 331.768 529.936 332.949C529.761 333.169 529.644 333.424 529.595 333.693C529.545 333.962 529.564 334.238 529.649 334.499C529.735 334.76 529.885 335 530.089 335.198C530.292 335.396 530.542 335.548 530.82 335.642C531.098 335.735 531.395 335.768 531.689 335.736C531.983 335.705 532.265 335.612 532.512 335.462C532.76 335.313 532.967 335.113 533.116 334.877C533.265 334.642 533.353 334.377 533.373 334.105Z" stroke="#263238" stroke-miterlimit="10"/>
<path d="M532.187 332.174L534.025 327.561" stroke="#263238" stroke-linecap="round" stroke-linejoin="round"/>
<path d="M536.117 327.18C536.379 326.714 536.434 326.171 536.27 325.668C536.105 325.165 535.735 324.741 535.238 324.486C534.806 324.19 534.284 324.026 533.746 324.019C533.209 324.012 532.682 324.162 532.242 324.447C531.801 324.733 531.469 325.139 531.293 325.608C531.118 326.078 531.106 326.586 531.262 327.062C531.417 327.538 531.731 327.956 532.158 328.257C532.586 328.559 533.105 328.728 533.643 328.741C534.181 328.754 534.709 328.611 535.153 328.33C535.598 328.05 535.935 327.647 536.117 327.18Z" stroke="#263238" stroke-miterlimit="10"/>
<path d="M534.931 325.249L536.769 320.624" stroke="#263238" stroke-linecap="round" stroke-linejoin="round"/>
<path d="M538.861 320.243C538.884 319.917 538.808 319.592 538.642 319.304C538.476 319.016 538.227 318.776 537.921 318.611C537.616 318.446 537.268 318.363 536.914 318.371C536.561 318.379 536.217 318.477 535.921 318.655C535.625 318.833 535.388 319.084 535.237 319.379C535.086 319.674 535.028 320.003 535.067 320.327C535.107 320.651 535.244 320.959 535.462 321.216C535.68 321.472 535.972 321.668 536.303 321.78C536.862 321.877 537.439 321.771 537.915 321.484C538.391 321.198 538.73 320.753 538.861 320.243Z" stroke="#263238" stroke-miterlimit="10"/>
<path d="M537.675 318.312L539.5 313.687" stroke="#263238" stroke-linecap="round" stroke-linejoin="round"/>
<path d="M541.605 313.306C541.627 312.98 541.552 312.655 541.386 312.367C541.22 312.078 540.97 311.838 540.665 311.674C540.36 311.509 540.012 311.426 539.658 311.434C539.305 311.441 538.961 311.54 538.665 311.718C538.368 311.896 538.132 312.147 537.981 312.442C537.83 312.737 537.771 313.065 537.811 313.39C537.851 313.714 537.987 314.022 538.206 314.278C538.424 314.535 538.715 314.731 539.047 314.843C539.606 314.942 540.185 314.838 540.662 314.551C541.139 314.264 541.477 313.818 541.605 313.306Z" stroke="#263238" stroke-miterlimit="10"/>
<path d="M540.419 311.387L542.244 306.762" stroke="#263238" stroke-linecap="round" stroke-linejoin="round"/>
<path d="M544.349 306.381C544.371 306.055 544.296 305.73 544.13 305.442C543.964 305.153 543.714 304.914 543.409 304.749C543.104 304.584 542.755 304.501 542.402 304.509C542.049 304.517 541.705 304.615 541.408 304.793C541.112 304.971 540.876 305.222 540.725 305.517C540.574 305.812 540.515 306.14 540.555 306.465C540.595 306.789 540.731 307.097 540.95 307.353C541.168 307.61 541.459 307.806 541.791 307.918C542.35 308.014 542.927 307.908 543.403 307.622C543.879 307.336 544.218 306.891 544.349 306.381Z" stroke="#263238" stroke-miterlimit="10"/>
<path d="M543.163 304.45L544.988 299.825" stroke="#263238" stroke-linecap="round" stroke-linejoin="round"/>
<path d="M547.092 299.443C547.115 299.118 547.039 298.793 546.874 298.504C546.708 298.216 546.458 297.976 546.153 297.812C545.848 297.647 545.499 297.564 545.146 297.572C544.793 297.579 544.449 297.678 544.152 297.856C543.856 298.034 543.619 298.285 543.469 298.58C543.318 298.875 543.259 299.203 543.299 299.527C543.339 299.852 543.475 300.16 543.694 300.416C543.912 300.673 544.203 300.868 544.535 300.981C545.094 301.08 545.673 300.976 546.15 300.689C546.627 300.402 546.965 299.956 547.092 299.443Z" stroke="#263238" stroke-miterlimit="10"/>
<path d="M545.907 297.525L547.732 292.9" stroke="#263238" stroke-linecap="round" stroke-linejoin="round"/>
<path d="M549.836 292.519C549.859 292.193 549.783 291.868 549.617 291.58C549.452 291.291 549.202 291.051 548.897 290.887C548.592 290.722 548.243 290.639 547.89 290.647C547.537 290.654 547.192 290.753 546.896 290.931C546.6 291.109 546.363 291.36 546.213 291.655C546.062 291.95 546.003 292.278 546.043 292.603C546.083 292.927 546.219 293.235 546.437 293.491C546.656 293.748 546.947 293.944 547.279 294.056C547.837 294.152 548.415 294.046 548.891 293.76C549.367 293.474 549.706 293.029 549.836 292.519Z" stroke="#263238" stroke-miterlimit="10"/>
<path d="M548.651 290.588L550.476 285.963" stroke="#263238" stroke-linecap="round" stroke-linejoin="round"/>
<path d="M548.944 414.719C548.944 413.489 549.77 412.456 550.782 412.456C551.794 412.456 552.607 413.465 552.607 414.719C552.607 415.974 551.794 416.97 550.782 416.97C549.77 416.97 548.944 415.961 548.944 414.719Z" stroke="#263238" stroke-miterlimit="10"/>
<path d="M550.782 413.28V408.36" stroke="#263238" stroke-linecap="round" stroke-linejoin="round"/>
<path d="M548.944 407.339C548.944 406.109 549.77 405.076 550.782 405.076C551.794 405.076 552.607 406.084 552.607 407.339C552.607 408.594 551.794 409.59 550.782 409.59C549.77 409.59 548.944 408.581 548.944 407.339Z" stroke="#263238" stroke-miterlimit="10"/>
<path d="M550.782 405.9V400.98" stroke="#263238" stroke-linecap="round" stroke-linejoin="round"/>
<path d="M548.944 399.959C548.944 398.729 549.77 397.696 550.782 397.696C551.794 397.696 552.607 398.705 552.607 399.959C552.607 401.214 551.794 402.21 550.782 402.21C549.77 402.21 548.944 401.201 548.944 399.959Z" stroke="#263238" stroke-miterlimit="10"/>
<path d="M550.782 398.52V393.6" stroke="#263238" stroke-linecap="round" stroke-linejoin="round"/>
<path d="M548.944 392.579C548.944 391.349 549.77 390.316 550.782 390.316C551.794 390.316 552.607 391.324 552.607 392.579C552.607 393.834 551.794 394.83 550.782 394.83C549.77 394.83 548.944 393.821 548.944 392.579Z" stroke="#263238" stroke-miterlimit="10"/>
<path d="M550.782 391.14V386.22" stroke="#263238" stroke-linecap="round" stroke-linejoin="round"/>
<path d="M548.944 385.199C548.944 383.969 549.77 382.936 550.782 382.936C551.794 382.936 552.607 383.945 552.607 385.199C552.607 386.454 551.794 387.45 550.782 387.45C549.77 387.45 548.944 386.441 548.944 385.199Z" stroke="#263238" stroke-miterlimit="10"/>
<path d="M550.782 383.76V378.84" stroke="#263238" stroke-linecap="round" stroke-linejoin="round"/>
<path d="M548.944 377.819C548.944 376.589 549.77 375.556 550.782 375.556C551.794 375.556 552.607 376.565 552.607 377.819C552.607 379.074 551.794 380.07 550.782 380.07C549.77 380.07 548.944 379.061 548.944 377.819Z" stroke="#263238" stroke-miterlimit="10"/>
<path d="M550.782 376.38V371.46" stroke="#263238" stroke-linecap="round" stroke-linejoin="round"/>
<path d="M548.944 370.439C548.944 369.209 549.77 368.176 550.782 368.176C551.794 368.176 552.607 369.185 552.607 370.439C552.607 371.694 551.794 372.69 550.782 372.69C549.77 372.69 548.944 371.681 548.944 370.439Z" stroke="#263238" stroke-miterlimit="10"/>
<path d="M550.782 369V364.08" stroke="#263238" stroke-linecap="round" stroke-linejoin="round"/>
<path d="M548.944 363.059C548.944 361.829 549.77 360.796 550.782 360.796C551.794 360.796 552.607 361.805 552.607 363.059C552.607 364.314 551.794 365.31 550.782 365.31C549.77 365.31 548.944 364.301 548.944 363.059Z" stroke="#263238" stroke-miterlimit="10"/>
<path d="M550.782 361.62V356.7" stroke="#263238" stroke-linecap="round" stroke-linejoin="round"/>
<path d="M548.944 355.679C548.944 354.449 549.77 353.416 550.782 353.416C551.794 353.416 552.607 354.425 552.607 355.679C552.607 356.934 551.794 357.93 550.782 357.93C549.77 357.93 548.944 356.921 548.944 355.679Z" stroke="#263238" stroke-miterlimit="10"/>
<path d="M550.782 354.24V349.32" stroke="#263238" stroke-linecap="round" stroke-linejoin="round"/>
<path d="M548.944 348.299C548.944 347.069 549.77 346.036 550.782 346.036C551.794 346.036 552.607 347.045 552.607 348.299C552.607 349.554 551.794 350.55 550.782 350.55C549.77 350.55 548.944 349.541 548.944 348.299Z" stroke="#263238" stroke-miterlimit="10"/>
<path d="M550.782 346.86V341.94" stroke="#263238" stroke-linecap="round" stroke-linejoin="round"/>
<path d="M548.944 340.919C548.944 339.689 549.77 338.656 550.782 338.656C551.794 338.656 552.607 339.665 552.607 340.919C552.607 342.174 551.794 343.17 550.782 343.17C549.77 343.17 548.944 342.161 548.944 340.919Z" stroke="#263238" stroke-miterlimit="10"/>
<path d="M550.782 339.48V334.56" stroke="#263238" stroke-linecap="round" stroke-linejoin="round"/>
<path d="M548.944 333.539C548.944 332.309 549.77 331.276 550.782 331.276C551.794 331.276 552.607 332.285 552.607 333.539C552.607 334.794 551.794 335.79 550.782 335.79C549.77 335.79 548.944 334.781 548.944 333.539Z" stroke="#263238" stroke-miterlimit="10"/>
<path d="M550.782 332.1V327.18" stroke="#263238" stroke-linecap="round" stroke-linejoin="round"/>
<path d="M548.944 326.159C548.944 324.929 549.77 323.896 550.782 323.896C551.794 323.896 552.607 324.905 552.607 326.159C552.607 327.414 551.794 328.41 550.782 328.41C549.77 328.41 548.944 327.401 548.944 326.159Z" stroke="#263238" stroke-miterlimit="10"/>
<path d="M550.782 324.72V319.8" stroke="#263238" stroke-linecap="round" stroke-linejoin="round"/>
<path d="M548.944 318.779C548.944 317.549 549.77 316.516 550.782 316.516C551.794 316.516 552.607 317.525 552.607 318.779C552.607 320.034 551.794 321.03 550.782 321.03C549.77 321.03 548.944 320.021 548.944 318.779Z" stroke="#263238" stroke-miterlimit="10"/>
<path d="M550.782 317.34V312.42" stroke="#263238" stroke-linecap="round" stroke-linejoin="round"/>
<path d="M548.944 311.399C548.944 310.169 549.77 309.136 550.782 309.136C551.794 309.136 552.607 310.144 552.607 311.399C552.607 312.654 551.794 313.65 550.782 313.65C549.77 313.65 548.944 312.641 548.944 311.399Z" stroke="#263238" stroke-miterlimit="10"/>
<path d="M550.782 309.96V305.04" stroke="#263238" stroke-linecap="round" stroke-linejoin="round"/>
<path d="M548.944 304.019C548.944 302.789 549.77 301.756 550.782 301.756C551.794 301.756 552.607 302.765 552.607 304.019C552.607 305.274 551.794 306.27 550.782 306.27C549.77 306.27 548.944 305.261 548.944 304.019Z" stroke="#263238" stroke-miterlimit="10"/>
<path d="M550.782 302.58V297.66" stroke="#263238" stroke-linecap="round" stroke-linejoin="round"/>
<path d="M548.944 296.639C548.944 295.409 549.77 294.376 550.782 294.376C551.794 294.376 552.607 295.385 552.607 296.639C552.607 297.894 551.794 298.89 550.782 298.89C549.77 298.89 548.944 297.881 548.944 296.639Z" stroke="#263238" stroke-miterlimit="10"/>
<path d="M550.782 295.2V290.28" stroke="#263238" stroke-linecap="round" stroke-linejoin="round"/>
<path d="M548.944 289.259C548.944 288.029 549.77 286.996 550.782 286.996C551.794 286.996 552.607 288.005 552.607 289.259C552.607 290.514 551.794 291.51 550.782 291.51C549.77 291.51 548.944 290.501 548.944 289.259Z" stroke="#263238" stroke-miterlimit="10"/>
<path d="M550.782 287.82V282.9" stroke="#263238" stroke-linecap="round" stroke-linejoin="round"/>
<path d="M548.944 281.879C548.944 280.649 549.77 279.616 550.782 279.616C551.794 279.616 552.607 280.625 552.607 281.879C552.607 283.134 551.794 284.13 550.782 284.13C549.77 284.13 548.944 283.121 548.944 281.879Z" stroke="#263238" stroke-miterlimit="10"/>
<path d="M550.782 280.44V275.52" stroke="#263238" stroke-linecap="round" stroke-linejoin="round"/>
<path d="M495.904 409.59C495.904 413.28 520.479 418.963 550.782 418.963C581.085 418.963 605.66 413.28 605.66 409.59H495.904Z" fill="#407BFF"/>
<path opacity="0.2" d="M605.66 409.59C605.66 413.28 581.085 418.963 550.782 418.963C520.479 418.963 495.904 413.28 495.904 409.59H605.66Z" fill="black"/>
<path d="M373.253 410.353C372.994 409.886 372.941 409.344 373.105 408.842C373.269 408.34 373.637 407.916 374.132 407.659C375.078 407.327 376.223 408.016 376.69 409.196C376.865 409.417 376.981 409.671 377.031 409.94C377.081 410.209 377.062 410.486 376.977 410.747C376.891 411.008 376.74 411.247 376.537 411.446C376.334 411.644 376.084 411.796 375.806 411.889C375.528 411.983 375.231 412.015 374.937 411.984C374.643 411.953 374.361 411.859 374.114 411.71C373.866 411.561 373.659 411.361 373.51 411.125C373.361 410.889 373.273 410.625 373.253 410.353Z" stroke="#263238" stroke-miterlimit="10"/>
<path d="M374.439 408.421L372.614 403.809" stroke="#263238" stroke-linecap="round" stroke-linejoin="round"/>
<path d="M370.509 403.44C370.489 403.115 370.567 402.79 370.734 402.504C370.902 402.217 371.152 401.978 371.458 401.815C371.764 401.652 372.112 401.571 372.465 401.58C372.818 401.59 373.161 401.689 373.456 401.868C373.751 402.047 373.986 402.298 374.136 402.593C374.286 402.888 374.343 403.216 374.303 403.54C374.263 403.863 374.126 404.17 373.907 404.426C373.689 404.683 373.398 404.878 373.067 404.99C372.121 405.285 370.975 404.596 370.509 403.44Z" stroke="#263238" stroke-miterlimit="10"/>
<path d="M371.695 401.497L369.87 396.872" stroke="#263238" stroke-linecap="round" stroke-linejoin="round"/>
<path d="M367.765 396.49C367.506 396.022 367.452 395.479 367.616 394.974C367.78 394.47 368.148 394.044 368.644 393.784C369.59 393.465 370.736 394.153 371.202 395.334C371.377 395.554 371.494 395.809 371.543 396.078C371.593 396.347 371.575 396.623 371.489 396.885C371.403 397.146 371.253 397.385 371.049 397.584C370.846 397.782 370.596 397.934 370.318 398.027C370.04 398.121 369.743 398.153 369.449 398.122C369.155 398.091 368.873 397.997 368.626 397.848C368.378 397.699 368.171 397.499 368.022 397.263C367.873 397.027 367.785 396.763 367.765 396.49Z" stroke="#263238" stroke-miterlimit="10"/>
<path d="M368.951 394.559L367.126 389.947" stroke="#263238" stroke-linecap="round" stroke-linejoin="round"/>
<path d="M364.968 389.553C364.963 389.235 365.051 388.921 365.224 388.646C365.397 388.37 365.647 388.143 365.949 387.989C366.25 387.834 366.591 387.758 366.936 387.769C367.28 387.78 367.615 387.876 367.905 388.049C368.195 388.221 368.428 388.463 368.581 388.749C368.733 389.034 368.799 389.353 368.771 389.67C368.743 389.987 368.622 390.292 368.422 390.55C368.221 390.809 367.948 391.013 367.632 391.14C366.633 391.423 365.487 390.734 364.968 389.553Z" stroke="#263238" stroke-miterlimit="10"/>
<path d="M366.207 387.634L364.382 383.01" stroke="#263238" stroke-linecap="round" stroke-linejoin="round"/>
<path d="M362.304 382.628C362.281 382.303 362.357 381.978 362.523 381.689C362.689 381.401 362.938 381.161 363.243 380.996C363.548 380.832 363.897 380.749 364.25 380.756C364.604 380.764 364.948 380.863 365.244 381.041C365.54 381.219 365.777 381.47 365.928 381.765C366.078 382.06 366.137 382.388 366.098 382.712C366.058 383.037 365.921 383.344 365.703 383.601C365.485 383.858 365.193 384.053 364.861 384.166C364.303 384.262 363.726 384.156 363.249 383.87C362.773 383.584 362.435 383.139 362.304 382.628Z" stroke="#263238" stroke-miterlimit="10"/>
<path d="M363.463 380.697L361.638 376.073" stroke="#263238" stroke-linecap="round" stroke-linejoin="round"/>
<path d="M359.534 375.691C359.511 375.366 359.586 375.04 359.752 374.752C359.918 374.464 360.168 374.224 360.473 374.059C360.778 373.895 361.127 373.811 361.48 373.819C361.833 373.827 362.177 373.926 362.474 374.104C362.77 374.282 363.006 374.532 363.157 374.828C363.308 375.123 363.367 375.451 363.327 375.775C363.287 376.1 363.151 376.407 362.932 376.664C362.714 376.921 362.423 377.116 362.091 377.229C361.532 377.328 360.953 377.223 360.476 376.937C359.999 376.65 359.661 376.203 359.534 375.691Z" stroke="#263238" stroke-miterlimit="10"/>
<path d="M360.719 373.772L358.894 369.148" stroke="#263238" stroke-linecap="round" stroke-linejoin="round"/>
<path d="M356.79 368.766C356.767 368.441 356.843 368.115 357.008 367.827C357.174 367.539 357.424 367.299 357.729 367.134C358.034 366.97 358.383 366.887 358.736 366.894C359.089 366.902 359.433 367.001 359.73 367.179C360.026 367.357 360.263 367.607 360.413 367.903C360.564 368.198 360.623 368.526 360.583 368.85C360.543 369.175 360.407 369.482 360.188 369.739C359.97 369.996 359.679 370.191 359.347 370.304C358.789 370.4 358.211 370.294 357.735 370.008C357.259 369.722 356.92 369.277 356.79 368.766Z" stroke="#263238" stroke-miterlimit="10"/>
<path d="M357.975 366.835L356.15 362.21" stroke="#263238" stroke-linecap="round" stroke-linejoin="round"/>
<path d="M354.046 361.829C354.023 361.503 354.099 361.178 354.265 360.89C354.43 360.602 354.68 360.362 354.985 360.197C355.29 360.032 355.639 359.949 355.992 359.957C356.346 359.965 356.69 360.063 356.986 360.242C357.282 360.42 357.519 360.67 357.669 360.965C357.82 361.261 357.879 361.589 357.839 361.913C357.8 362.237 357.663 362.545 357.445 362.802C357.226 363.059 356.935 363.254 356.603 363.367C356.044 363.466 355.465 363.361 354.988 363.075C354.511 362.788 354.173 362.341 354.046 361.829Z" stroke="#263238" stroke-miterlimit="10"/>
<path d="M355.231 359.91L353.406 355.286" stroke="#263238" stroke-linecap="round" stroke-linejoin="round"/>
<path d="M351.302 354.904C351.275 354.575 351.349 354.246 351.515 353.953C351.68 353.661 351.931 353.417 352.239 353.249C352.546 353.081 352.899 352.996 353.256 353.003C353.613 353.01 353.961 353.109 354.261 353.289C354.561 353.469 354.8 353.723 354.951 354.022C355.103 354.321 355.161 354.653 355.119 354.981C355.078 355.308 354.937 355.619 354.715 355.877C354.492 356.135 354.196 356.331 353.859 356.442C353.301 356.538 352.723 356.432 352.247 356.146C351.771 355.859 351.432 355.415 351.302 354.904Z" stroke="#263238" stroke-miterlimit="10"/>
<path d="M352.487 352.973L350.662 348.348" stroke="#263238" stroke-linecap="round" stroke-linejoin="round"/>
<path d="M348.558 347.967C348.3 347.499 348.249 346.956 348.415 346.454C348.582 345.952 348.953 345.528 349.45 345.273C350.396 344.941 351.541 345.642 352.008 346.811C352.178 347.032 352.291 347.286 352.338 347.554C352.384 347.821 352.363 348.096 352.276 348.355C352.189 348.614 352.038 348.85 351.835 349.047C351.632 349.243 351.383 349.393 351.107 349.486C350.831 349.578 350.535 349.61 350.243 349.58C349.951 349.55 349.671 349.457 349.424 349.31C349.178 349.163 348.971 348.965 348.821 348.732C348.67 348.499 348.58 348.237 348.558 347.967Z" stroke="#263238" stroke-miterlimit="10"/>
<path d="M349.757 346.036L347.918 341.423" stroke="#263238" stroke-linecap="round" stroke-linejoin="round"/>
<path d="M345.814 341.042C345.789 340.714 345.863 340.385 346.028 340.093C346.194 339.802 346.444 339.558 346.751 339.391C347.058 339.223 347.41 339.138 347.766 339.145C348.123 339.152 348.471 339.25 348.77 339.429C349.069 339.608 349.309 339.861 349.461 340.158C349.614 340.456 349.673 340.787 349.633 341.114C349.593 341.442 349.455 341.752 349.235 342.011C349.014 342.27 348.72 342.467 348.385 342.58C347.824 342.679 347.244 342.575 346.764 342.288C346.285 342.002 345.945 341.555 345.814 341.042Z" stroke="#263238" stroke-miterlimit="10"/>
<path d="M347.013 339.111L345.175 334.486" stroke="#263238" stroke-linecap="round" stroke-linejoin="round"/>
<path d="M343.083 334.105C342.824 333.636 342.771 333.093 342.934 332.589C343.098 332.085 343.467 331.658 343.963 331.399C344.908 331.079 346.054 331.768 346.52 332.949C346.695 333.169 346.812 333.424 346.862 333.693C346.911 333.962 346.893 334.238 346.807 334.499C346.721 334.76 346.571 335 346.367 335.198C346.164 335.396 345.914 335.548 345.636 335.642C345.358 335.735 345.061 335.768 344.767 335.736C344.473 335.705 344.191 335.612 343.944 335.462C343.696 335.313 343.489 335.113 343.34 334.877C343.191 334.642 343.103 334.377 343.083 334.105Z" stroke="#263238" stroke-miterlimit="10"/>
<path d="M344.269 332.174L342.431 327.561" stroke="#263238" stroke-linecap="round" stroke-linejoin="round"/>
<path d="M340.339 327.18C340.077 326.714 340.022 326.171 340.186 325.668C340.351 325.165 340.721 324.741 341.218 324.486C341.65 324.19 342.172 324.026 342.71 324.019C343.248 324.012 343.774 324.162 344.214 324.447C344.655 324.733 344.987 325.139 345.163 325.608C345.338 326.078 345.35 326.586 345.194 327.062C345.039 327.538 344.726 327.956 344.298 328.257C343.87 328.559 343.351 328.728 342.813 328.741C342.275 328.754 341.747 328.611 341.303 328.33C340.859 328.05 340.521 327.647 340.339 327.18Z" stroke="#263238" stroke-miterlimit="10"/>
<path d="M341.525 325.249L339.687 320.624" stroke="#263238" stroke-linecap="round" stroke-linejoin="round"/>
<path d="M337.596 320.243C337.573 319.917 337.648 319.592 337.814 319.304C337.98 319.016 338.23 318.776 338.535 318.611C338.84 318.446 339.189 318.363 339.542 318.371C339.895 318.379 340.239 318.477 340.536 318.655C340.832 318.833 341.068 319.084 341.219 319.379C341.37 319.674 341.429 320.003 341.389 320.327C341.349 320.651 341.213 320.959 340.994 321.216C340.776 321.472 340.485 321.668 340.153 321.78C339.594 321.877 339.017 321.771 338.541 321.484C338.065 321.198 337.726 320.753 337.596 320.243Z" stroke="#263238" stroke-miterlimit="10"/>
<path d="M338.781 318.312L336.956 313.687" stroke="#263238" stroke-linecap="round" stroke-linejoin="round"/>
<path d="M334.852 313.306C334.829 312.98 334.905 312.655 335.07 312.367C335.236 312.078 335.486 311.838 335.791 311.674C336.096 311.509 336.445 311.426 336.798 311.434C337.151 311.441 337.495 311.54 337.792 311.718C338.088 311.896 338.325 312.147 338.475 312.442C338.626 312.737 338.685 313.065 338.645 313.39C338.605 313.714 338.469 314.022 338.25 314.278C338.032 314.535 337.741 314.731 337.409 314.843C336.85 314.942 336.271 314.838 335.794 314.551C335.317 314.264 334.979 313.818 334.852 313.306Z" stroke="#263238" stroke-miterlimit="10"/>
<path d="M336.037 311.387L334.212 306.762" stroke="#263238" stroke-linecap="round" stroke-linejoin="round"/>
<path d="M332.107 306.381C332.085 306.055 332.16 305.73 332.326 305.442C332.492 305.153 332.742 304.914 333.047 304.749C333.352 304.584 333.701 304.501 334.054 304.509C334.407 304.517 334.751 304.615 335.048 304.793C335.344 304.971 335.58 305.222 335.731 305.517C335.882 305.812 335.941 306.14 335.901 306.465C335.861 306.789 335.725 307.097 335.506 307.353C335.288 307.61 334.997 307.806 334.665 307.918C334.106 308.014 333.529 307.908 333.053 307.622C332.577 307.336 332.238 306.891 332.107 306.381Z" stroke="#263238" stroke-miterlimit="10"/>
<path d="M333.293 304.45L331.468 299.825" stroke="#263238" stroke-linecap="round" stroke-linejoin="round"/>
<path d="M329.364 299.443C329.341 299.118 329.417 298.793 329.582 298.504C329.748 298.216 329.998 297.976 330.303 297.812C330.608 297.647 330.957 297.564 331.31 297.572C331.663 297.579 332.007 297.678 332.304 297.856C332.6 298.034 332.837 298.285 332.987 298.58C333.138 298.875 333.197 299.203 333.157 299.527C333.117 299.852 332.981 300.16 332.762 300.416C332.544 300.673 332.253 300.868 331.921 300.981C331.362 301.08 330.783 300.976 330.306 300.689C329.829 300.402 329.491 299.956 329.364 299.443Z" stroke="#263238" stroke-miterlimit="10"/>
<path d="M330.549 297.525L328.724 292.9" stroke="#263238" stroke-linecap="round" stroke-linejoin="round"/>
<path d="M326.62 292.519C326.597 292.193 326.673 291.868 326.839 291.58C327.004 291.291 327.254 291.051 327.559 290.887C327.864 290.722 328.213 290.639 328.566 290.647C328.919 290.654 329.264 290.753 329.56 290.931C329.856 291.109 330.093 291.36 330.243 291.655C330.394 291.95 330.453 292.278 330.413 292.603C330.373 292.927 330.237 293.235 330.019 293.491C329.8 293.748 329.509 293.944 329.177 294.056C328.619 294.152 328.041 294.046 327.565 293.76C327.089 293.474 326.75 293.029 326.62 292.519Z" stroke="#263238" stroke-miterlimit="10"/>
<path d="M327.805 290.588L325.98 285.963" stroke="#263238" stroke-linecap="round" stroke-linejoin="round"/>
<path d="M278.095 410.353C278.354 409.886 278.407 409.344 278.243 408.842C278.079 408.34 277.711 407.916 277.216 407.659C276.27 407.327 275.125 408.016 274.658 409.196C274.484 409.417 274.367 409.671 274.317 409.94C274.267 410.209 274.286 410.486 274.371 410.747C274.457 411.008 274.608 411.247 274.811 411.446C275.014 411.644 275.264 411.796 275.542 411.889C275.82 411.983 276.118 412.015 276.411 411.984C276.705 411.953 276.987 411.859 277.235 411.71C277.482 411.561 277.689 411.361 277.838 411.125C277.988 410.889 278.075 410.625 278.095 410.353Z" stroke="#263238" stroke-miterlimit="10"/>
<path d="M276.909 408.421L278.734 403.809" stroke="#263238" stroke-linecap="round" stroke-linejoin="round"/>
<path d="M280.839 403.44C280.859 403.115 280.782 402.79 280.614 402.504C280.446 402.217 280.196 401.978 279.89 401.815C279.585 401.652 279.236 401.571 278.883 401.58C278.531 401.59 278.187 401.689 277.892 401.868C277.597 402.047 277.362 402.298 277.212 402.593C277.063 402.888 277.005 403.216 277.045 403.54C277.086 403.863 277.223 404.17 277.441 404.426C277.659 404.683 277.95 404.878 278.282 404.99C279.227 405.285 280.373 404.596 280.839 403.44Z" stroke="#263238" stroke-miterlimit="10"/>
<path d="M279.654 401.497L281.478 396.872" stroke="#263238" stroke-linecap="round" stroke-linejoin="round"/>
<path d="M283.583 396.49C283.842 396.022 283.896 395.479 283.732 394.974C283.568 394.47 283.2 394.044 282.704 393.784C281.758 393.465 280.613 394.153 280.146 395.334C279.972 395.554 279.855 395.809 279.805 396.078C279.755 396.347 279.774 396.623 279.859 396.885C279.945 397.146 280.096 397.385 280.299 397.584C280.502 397.782 280.753 397.934 281.03 398.027C281.308 398.121 281.606 398.153 281.899 398.122C282.193 398.091 282.475 397.997 282.723 397.848C282.97 397.699 283.177 397.499 283.326 397.263C283.476 397.027 283.563 396.763 283.583 396.49Z" stroke="#263238" stroke-miterlimit="10"/>
<path d="M282.397 394.559L284.222 389.947" stroke="#263238" stroke-linecap="round" stroke-linejoin="round"/>
<path d="M286.38 389.553C286.385 389.235 286.297 388.921 286.124 388.646C285.951 388.37 285.701 388.143 285.4 387.989C285.098 387.834 284.757 387.758 284.412 387.769C284.068 387.78 283.733 387.876 283.443 388.049C283.153 388.221 282.92 388.463 282.767 388.749C282.615 389.034 282.549 389.353 282.577 389.67C282.605 389.987 282.726 390.292 282.926 390.55C283.127 390.809 283.4 391.013 283.716 391.14C284.715 391.423 285.861 390.734 286.38 389.553Z" stroke="#263238" stroke-miterlimit="10"/>
<path d="M285.141 387.634L286.966 383.01" stroke="#263238" stroke-linecap="round" stroke-linejoin="round"/>
<path d="M289.044 382.628C289.067 382.303 288.991 381.978 288.825 381.689C288.659 381.401 288.41 381.161 288.105 380.996C287.8 380.832 287.451 380.749 287.098 380.756C286.744 380.764 286.4 380.863 286.104 381.041C285.808 381.219 285.571 381.47 285.42 381.765C285.27 382.06 285.211 382.388 285.251 382.712C285.29 383.037 285.427 383.344 285.645 383.601C285.864 383.858 286.155 384.053 286.487 384.166C287.045 384.262 287.622 384.156 288.099 383.87C288.575 383.584 288.913 383.139 289.044 382.628Z" stroke="#263238" stroke-miterlimit="10"/>
<path d="M287.885 380.697L289.71 376.073" stroke="#263238" stroke-linecap="round" stroke-linejoin="round"/>
<path d="M291.815 375.691C291.837 375.366 291.762 375.04 291.596 374.752C291.43 374.464 291.18 374.224 290.875 374.059C290.57 373.895 290.221 373.811 289.868 373.819C289.515 373.827 289.171 373.926 288.875 374.104C288.578 374.282 288.342 374.532 288.191 374.828C288.04 375.123 287.981 375.451 288.021 375.775C288.061 376.1 288.197 376.407 288.416 376.664C288.634 376.921 288.925 377.116 289.257 377.229C289.816 377.328 290.395 377.223 290.872 376.937C291.349 376.65 291.687 376.203 291.815 375.691Z" stroke="#263238" stroke-miterlimit="10"/>
<path d="M290.629 373.772L292.454 369.148" stroke="#263238" stroke-linecap="round" stroke-linejoin="round"/>
<path d="M294.558 368.766C294.585 368.437 294.511 368.108 294.346 367.815C294.18 367.523 293.929 367.279 293.622 367.111C293.314 366.943 292.961 366.858 292.604 366.865C292.247 366.872 291.899 366.971 291.599 367.151C291.3 367.331 291.06 367.585 290.909 367.884C290.757 368.183 290.699 368.515 290.741 368.843C290.782 369.17 290.923 369.481 291.145 369.739C291.368 369.997 291.664 370.193 292.001 370.304C292.56 370.4 293.137 370.294 293.613 370.008C294.089 369.722 294.428 369.277 294.558 368.766Z" stroke="#263238" stroke-miterlimit="10"/>
<path d="M293.373 366.835L295.198 362.21" stroke="#263238" stroke-linecap="round" stroke-linejoin="round"/>
<path d="M297.302 361.829C297.325 361.503 297.249 361.178 297.084 360.89C296.918 360.602 296.668 360.362 296.363 360.197C296.058 360.032 295.709 359.949 295.356 359.957C295.003 359.965 294.659 360.063 294.362 360.242C294.066 360.42 293.829 360.67 293.679 360.965C293.528 361.261 293.469 361.589 293.509 361.913C293.549 362.237 293.685 362.545 293.904 362.802C294.122 363.059 294.413 363.254 294.745 363.367C295.303 363.463 295.881 363.357 296.357 363.071C296.833 362.784 297.172 362.34 297.302 361.829Z" stroke="#263238" stroke-miterlimit="10"/>
<path d="M296.117 359.91L297.942 355.286" stroke="#263238" stroke-linecap="round" stroke-linejoin="round"/>
<path d="M300.046 354.904C300.073 354.575 299.999 354.246 299.833 353.953C299.668 353.661 299.417 353.417 299.109 353.249C298.802 353.081 298.449 352.996 298.092 353.003C297.735 353.01 297.386 353.109 297.087 353.289C296.787 353.469 296.548 353.723 296.397 354.022C296.245 354.321 296.187 354.653 296.228 354.981C296.27 355.308 296.41 355.619 296.633 355.877C296.856 356.135 297.152 356.331 297.489 356.442C298.047 356.538 298.625 356.432 299.101 356.146C299.577 355.859 299.916 355.415 300.046 354.904Z" stroke="#263238" stroke-miterlimit="10"/>
<path d="M298.848 352.973L300.686 348.348" stroke="#263238" stroke-linecap="round" stroke-linejoin="round"/>
<path d="M302.79 347.967C303.048 347.499 303.099 346.956 302.933 346.454C302.766 345.952 302.395 345.528 301.898 345.273C300.952 344.941 299.807 345.642 299.34 346.811C299.17 347.032 299.057 347.286 299.01 347.554C298.964 347.821 298.985 348.096 299.072 348.355C299.159 348.614 299.31 348.85 299.513 349.047C299.716 349.243 299.965 349.393 300.241 349.486C300.517 349.578 300.813 349.61 301.105 349.58C301.397 349.55 301.677 349.457 301.924 349.31C302.17 349.163 302.377 348.965 302.527 348.732C302.678 348.499 302.768 348.237 302.79 347.967Z" stroke="#263238" stroke-miterlimit="10"/>
<path d="M301.592 346.036L303.43 341.423" stroke="#263238" stroke-linecap="round" stroke-linejoin="round"/>
<path d="M305.534 341.042C305.56 340.714 305.485 340.385 305.32 340.093C305.154 339.802 304.904 339.558 304.597 339.391C304.29 339.223 303.938 339.138 303.582 339.145C303.225 339.152 302.878 339.25 302.578 339.429C302.279 339.608 302.04 339.861 301.887 340.158C301.735 340.456 301.675 340.787 301.715 341.114C301.755 341.442 301.893 341.752 302.114 342.011C302.334 342.27 302.628 342.467 302.963 342.58C303.524 342.679 304.105 342.575 304.584 342.288C305.063 342.002 305.403 341.555 305.534 341.042Z" stroke="#263238" stroke-miterlimit="10"/>
<path d="M304.335 339.111L306.174 334.486" stroke="#263238" stroke-linecap="round" stroke-linejoin="round"/>
<path d="M308.265 334.105C308.524 333.636 308.578 333.093 308.414 332.589C308.25 332.085 307.882 331.658 307.386 331.399C306.44 331.079 305.294 331.768 304.828 332.949C304.653 333.169 304.536 333.424 304.487 333.693C304.437 333.962 304.456 334.238 304.541 334.499C304.627 334.76 304.778 335 304.981 335.198C305.184 335.396 305.434 335.548 305.712 335.642C305.99 335.735 306.287 335.768 306.581 335.736C306.875 335.705 307.157 335.612 307.404 335.462C307.652 335.313 307.859 335.113 308.008 334.877C308.157 334.642 308.245 334.377 308.265 334.105Z" stroke="#263238" stroke-miterlimit="10"/>
<path d="M307.079 332.174L308.918 327.561" stroke="#263238" stroke-linecap="round" stroke-linejoin="round"/>
<path d="M311.009 327.18C311.271 326.714 311.326 326.171 311.162 325.668C310.998 325.165 310.627 324.741 310.13 324.486C309.698 324.19 309.176 324.026 308.639 324.019C308.101 324.012 307.574 324.162 307.134 324.447C306.693 324.733 306.361 325.139 306.186 325.608C306.01 326.078 305.998 326.586 306.154 327.062C306.309 327.538 306.623 327.956 307.05 328.257C307.478 328.559 307.997 328.728 308.535 328.741C309.073 328.754 309.601 328.611 310.045 328.33C310.49 328.05 310.827 327.647 311.009 327.18Z" stroke="#263238" stroke-miterlimit="10"/>
<path d="M309.823 325.249L311.661 320.624" stroke="#263238" stroke-linecap="round" stroke-linejoin="round"/>
<path d="M313.753 320.243C313.775 319.917 313.7 319.592 313.534 319.304C313.368 319.016 313.118 318.776 312.813 318.611C312.508 318.446 312.159 318.363 311.806 318.371C311.453 318.379 311.109 318.477 310.813 318.655C310.516 318.833 310.28 319.084 310.129 319.379C309.978 319.674 309.919 320.003 309.959 320.327C309.999 320.651 310.135 320.959 310.354 321.216C310.572 321.472 310.863 321.668 311.195 321.78C311.754 321.877 312.331 321.771 312.807 321.484C313.283 321.198 313.622 320.753 313.753 320.243Z" stroke="#263238" stroke-miterlimit="10"/>
<path d="M312.567 318.312L314.392 313.687" stroke="#263238" stroke-linecap="round" stroke-linejoin="round"/>
<path d="M316.497 313.306C316.52 312.98 316.444 312.655 316.278 312.367C316.112 312.078 315.863 311.838 315.557 311.674C315.252 311.509 314.904 311.426 314.55 311.434C314.197 311.441 313.853 311.54 313.557 311.718C313.26 311.896 313.024 312.147 312.873 312.442C312.722 312.737 312.664 313.065 312.703 313.39C312.743 313.714 312.88 314.022 313.098 314.278C313.316 314.535 313.607 314.731 313.939 314.843C314.498 314.942 315.077 314.838 315.554 314.551C316.031 314.264 316.369 313.818 316.497 313.306Z" stroke="#263238" stroke-miterlimit="10"/>
<path d="M315.311 311.387L317.136 306.762" stroke="#263238" stroke-linecap="round" stroke-linejoin="round"/>
<path d="M319.241 306.381C319.263 306.055 319.188 305.73 319.022 305.442C318.856 305.153 318.606 304.914 318.301 304.749C317.996 304.584 317.647 304.501 317.294 304.509C316.941 304.517 316.597 304.615 316.301 304.793C316.004 304.971 315.768 305.222 315.617 305.517C315.466 305.812 315.407 306.14 315.447 306.465C315.487 306.789 315.623 307.097 315.842 307.353C316.06 307.61 316.351 307.806 316.683 307.918C317.242 308.014 317.819 307.908 318.295 307.622C318.771 307.336 319.11 306.891 319.241 306.381Z" stroke="#263238" stroke-miterlimit="10"/>
<path d="M318.055 304.45L319.88 299.825" stroke="#263238" stroke-linecap="round" stroke-linejoin="round"/>
<path d="M321.984 299.443C322.007 299.118 321.932 298.793 321.766 298.504C321.6 298.216 321.35 297.976 321.045 297.812C320.74 297.647 320.391 297.564 320.038 297.572C319.685 297.579 319.341 297.678 319.044 297.856C318.748 298.034 318.512 298.285 318.361 298.58C318.21 298.875 318.151 299.203 318.191 299.527C318.231 299.852 318.367 300.16 318.586 300.416C318.804 300.673 319.095 300.868 319.427 300.981C319.986 301.08 320.565 300.976 321.042 300.689C321.519 300.402 321.857 299.956 321.984 299.443Z" stroke="#263238" stroke-miterlimit="10"/>
<path d="M320.799 297.525L322.624 292.9" stroke="#263238" stroke-linecap="round" stroke-linejoin="round"/>
<path d="M324.728 292.519C324.751 292.193 324.675 291.868 324.51 291.58C324.344 291.291 324.094 291.051 323.789 290.887C323.484 290.722 323.135 290.639 322.782 290.647C322.429 290.654 322.085 290.753 321.788 290.931C321.492 291.109 321.255 291.36 321.105 291.655C320.954 291.95 320.895 292.278 320.935 292.603C320.975 292.927 321.111 293.235 321.33 293.491C321.548 293.748 321.839 293.944 322.171 294.056C322.73 294.152 323.307 294.046 323.783 293.76C324.259 293.474 324.598 293.029 324.728 292.519Z" stroke="#263238" stroke-miterlimit="10"/>
<path d="M323.543 290.588L325.368 285.963" stroke="#263238" stroke-linecap="round" stroke-linejoin="round"/>
<path d="M323.836 414.719C323.836 413.489 324.662 412.456 325.674 412.456C326.686 412.456 327.499 413.465 327.499 414.719C327.499 415.974 326.686 416.97 325.674 416.97C324.662 416.97 323.836 415.961 323.836 414.719Z" stroke="#263238" stroke-miterlimit="10"/>
<path d="M325.674 413.28V408.36" stroke="#263238" stroke-linecap="round" stroke-linejoin="round"/>
<path d="M323.836 407.339C323.836 406.109 324.662 405.076 325.674 405.076C326.686 405.076 327.499 406.084 327.499 407.339C327.499 408.594 326.686 409.59 325.674 409.59C324.662 409.59 323.836 408.581 323.836 407.339Z" stroke="#263238" stroke-miterlimit="10"/>
<path d="M325.674 405.9V400.98" stroke="#263238" stroke-linecap="round" stroke-linejoin="round"/>
<path d="M323.836 399.959C323.836 398.729 324.662 397.696 325.674 397.696C326.686 397.696 327.499 398.705 327.499 399.959C327.499 401.214 326.686 402.21 325.674 402.21C324.662 402.21 323.836 401.201 323.836 399.959Z" stroke="#263238" stroke-miterlimit="10"/>
<path d="M325.674 398.52V393.6" stroke="#263238" stroke-linecap="round" stroke-linejoin="round"/>
<path d="M323.836 392.579C323.836 391.349 324.662 390.316 325.674 390.316C326.686 390.316 327.499 391.324 327.499 392.579C327.499 393.834 326.686 394.83 325.674 394.83C324.662 394.83 323.836 393.821 323.836 392.579Z" stroke="#263238" stroke-miterlimit="10"/>
<path d="M325.674 391.14V386.22" stroke="#263238" stroke-linecap="round" stroke-linejoin="round"/>
<path d="M323.836 385.199C323.836 383.969 324.662 382.936 325.674 382.936C326.686 382.936 327.499 383.945 327.499 385.199C327.499 386.454 326.686 387.45 325.674 387.45C324.662 387.45 323.836 386.441 323.836 385.199Z" stroke="#263238" stroke-miterlimit="10"/>
<path d="M325.674 383.76V378.84" stroke="#263238" stroke-linecap="round" stroke-linejoin="round"/>
<path d="M323.836 377.819C323.836 376.589 324.662 375.556 325.674 375.556C326.686 375.556 327.499 376.565 327.499 377.819C327.499 379.074 326.686 380.07 325.674 380.07C324.662 380.07 323.836 379.061 323.836 377.819Z" stroke="#263238" stroke-miterlimit="10"/>
<path d="M325.674 376.38V371.46" stroke="#263238" stroke-linecap="round" stroke-linejoin="round"/>
<path d="M323.836 370.439C323.836 369.209 324.662 368.176 325.674 368.176C326.686 368.176 327.499 369.185 327.499 370.439C327.499 371.694 326.686 372.69 325.674 372.69C324.662 372.69 323.836 371.681 323.836 370.439Z" stroke="#263238" stroke-miterlimit="10"/>
<path d="M325.674 369V364.08" stroke="#263238" stroke-linecap="round" stroke-linejoin="round"/>
<path d="M323.836 363.059C323.836 361.829 324.662 360.796 325.674 360.796C326.686 360.796 327.499 361.805 327.499 363.059C327.499 364.314 326.686 365.31 325.674 365.31C324.662 365.31 323.836 364.301 323.836 363.059Z" stroke="#263238" stroke-miterlimit="10"/>
<path d="M325.674 361.62V356.7" stroke="#263238" stroke-linecap="round" stroke-linejoin="round"/>
<path d="M323.836 355.679C323.836 354.449 324.662 353.416 325.674 353.416C326.686 353.416 327.499 354.425 327.499 355.679C327.499 356.934 326.686 357.93 325.674 357.93C324.662 357.93 323.836 356.921 323.836 355.679Z" stroke="#263238" stroke-miterlimit="10"/>
<path d="M325.674 354.24V349.32" stroke="#263238" stroke-linecap="round" stroke-linejoin="round"/>
<path d="M323.836 348.299C323.836 347.069 324.662 346.036 325.674 346.036C326.686 346.036 327.499 347.045 327.499 348.299C327.499 349.554 326.686 350.55 325.674 350.55C324.662 350.55 323.836 349.541 323.836 348.299Z" stroke="#263238" stroke-miterlimit="10"/>
<path d="M325.674 346.86V341.94" stroke="#263238" stroke-linecap="round" stroke-linejoin="round"/>
<path d="M323.836 340.919C323.836 339.689 324.662 338.656 325.674 338.656C326.686 338.656 327.499 339.665 327.499 340.919C327.499 342.174 326.686 343.17 325.674 343.17C324.662 343.17 323.836 342.161 323.836 340.919Z" stroke="#263238" stroke-miterlimit="10"/>
<path d="M325.674 339.48V334.56" stroke="#263238" stroke-linecap="round" stroke-linejoin="round"/>
<path d="M323.836 333.539C323.836 332.309 324.662 331.276 325.674 331.276C326.686 331.276 327.499 332.285 327.499 333.539C327.499 334.794 326.686 335.79 325.674 335.79C324.662 335.79 323.836 334.781 323.836 333.539Z" stroke="#263238" stroke-miterlimit="10"/>
<path d="M325.674 332.1V327.18" stroke="#263238" stroke-linecap="round" stroke-linejoin="round"/>
<path d="M323.836 326.159C323.836 324.929 324.662 323.896 325.674 323.896C326.686 323.896 327.499 324.905 327.499 326.159C327.499 327.414 326.686 328.41 325.674 328.41C324.662 328.41 323.836 327.401 323.836 326.159Z" stroke="#263238" stroke-miterlimit="10"/>
<path d="M325.674 324.72V319.8" stroke="#263238" stroke-linecap="round" stroke-linejoin="round"/>
<path d="M323.836 318.779C323.836 317.549 324.662 316.516 325.674 316.516C326.686 316.516 327.499 317.525 327.499 318.779C327.499 320.034 326.686 321.03 325.674 321.03C324.662 321.03 323.836 320.021 323.836 318.779Z" stroke="#263238" stroke-miterlimit="10"/>
<path d="M325.674 317.34V312.42" stroke="#263238" stroke-linecap="round" stroke-linejoin="round"/>
<path d="M323.836 311.399C323.836 310.169 324.662 309.136 325.674 309.136C326.686 309.136 327.499 310.144 327.499 311.399C327.499 312.654 326.686 313.65 325.674 313.65C324.662 313.65 323.836 312.641 323.836 311.399Z" stroke="#263238" stroke-miterlimit="10"/>
<path d="M325.674 309.96V305.04" stroke="#263238" stroke-linecap="round" stroke-linejoin="round"/>
<path d="M323.836 304.019C323.836 302.789 324.662 301.756 325.674 301.756C326.686 301.756 327.499 302.765 327.499 304.019C327.499 305.274 326.686 306.27 325.674 306.27C324.662 306.27 323.836 305.261 323.836 304.019Z" stroke="#263238" stroke-miterlimit="10"/>
<path d="M325.674 302.58V297.66" stroke="#263238" stroke-linecap="round" stroke-linejoin="round"/>
<path d="M323.836 296.639C323.836 295.409 324.662 294.376 325.674 294.376C326.686 294.376 327.499 295.385 327.499 296.639C327.499 297.894 326.686 298.89 325.674 298.89C324.662 298.89 323.836 297.881 323.836 296.639Z" stroke="#263238" stroke-miterlimit="10"/>
<path d="M325.674 295.2V290.28" stroke="#263238" stroke-linecap="round" stroke-linejoin="round"/>
<path d="M323.836 289.259C323.836 288.029 324.662 286.996 325.674 286.996C326.686 286.996 327.499 288.005 327.499 289.259C327.499 290.514 326.686 291.51 325.674 291.51C324.662 291.51 323.836 290.501 323.836 289.259Z" stroke="#263238" stroke-miterlimit="10"/>
<path d="M325.674 287.82V282.9" stroke="#263238" stroke-linecap="round" stroke-linejoin="round"/>
<path d="M323.836 281.879C323.836 280.649 324.662 279.616 325.674 279.616C326.686 279.616 327.499 280.625 327.499 281.879C327.499 283.134 326.686 284.13 325.674 284.13C324.662 284.13 323.836 283.121 323.836 281.879Z" stroke="#263238" stroke-miterlimit="10"/>
<path d="M325.674 280.44V275.52" stroke="#263238" stroke-linecap="round" stroke-linejoin="round"/>
<path d="M270.796 409.59C270.796 413.28 295.371 418.963 325.674 418.963C355.977 418.963 380.552 413.28 380.552 409.59H270.796Z" fill="#407BFF"/>
<path opacity="0.2" d="M380.552 409.59C380.552 413.28 355.977 418.963 325.674 418.963C295.371 418.963 270.796 413.28 270.796 409.59H380.552Z" fill="black"/>
<path d="M437.802 255.717L442.983 255.951C443.796 255.951 444.755 256.061 445.807 256.16L449.177 256.48C450.403 256.566 451.628 256.787 452.96 256.972C454.292 257.156 455.624 257.316 457.103 257.636L461.565 258.509L466.28 259.739C467.892 260.17 469.517 260.674 471.195 261.154C472.873 261.633 474.525 262.273 476.23 262.851C479.6 264.081 483.037 265.446 486.433 266.959C489.83 268.472 493.213 270.071 496.57 271.67C499.926 273.269 503.23 274.843 506.52 276.27C509.673 277.653 512.948 278.785 516.31 279.653C519.44 280.46 522.647 280.987 525.887 281.227C528.771 281.447 531.672 281.397 534.545 281.08C535.211 281.006 535.877 280.87 536.463 280.772L537.396 280.624L538.275 280.403L539.966 279.973L541.511 279.431C541.765 279.345 542.004 279.271 542.244 279.173L542.923 278.866L544.189 278.275C544.975 277.845 545.654 277.402 546.293 277.045L547.812 275.815C548.178 275.51 548.521 275.181 548.837 274.831L549.663 273.982L552.407 275.877L551.475 276.934C551.115 277.368 550.723 277.779 550.303 278.164L548.531 279.677C547.798 280.145 547.013 280.711 546.107 281.252L544.642 282.002L543.869 282.396C543.603 282.519 543.31 282.617 543.03 282.728L541.272 283.417C540.659 283.613 540.02 283.786 539.367 283.982L538.368 284.265L537.329 284.487C536.636 284.622 535.917 284.794 535.184 284.905C532.024 285.376 528.819 285.55 525.621 285.421C522.075 285.297 518.551 284.856 515.098 284.105C511.421 283.302 507.825 282.211 504.349 280.846C500.859 279.481 497.396 278.005 493.986 276.529C490.576 275.053 487.192 273.589 483.836 272.273C480.479 270.957 477.176 269.813 473.899 268.706C472.261 268.226 470.662 267.734 469.091 267.291C467.519 266.848 465.947 266.479 464.429 266.123L459.98 265.213L455.784 264.548C454.452 264.302 453.12 264.229 451.908 264.081C450.696 263.933 449.51 263.773 448.431 263.749L445.394 263.577C444.462 263.515 443.609 263.466 442.73 263.478H437.549L437.802 255.717Z" fill="#407BFF"/>
<path d="M438.947 255.717L433.766 255.951C432.967 255.951 432.008 256.061 430.955 256.16L427.572 256.48C426.36 256.566 425.121 256.787 423.803 256.972C422.484 257.156 421.139 257.316 419.66 257.636L415.198 258.509L410.469 259.739C408.871 260.17 407.232 260.674 405.567 261.154C403.902 261.633 402.237 262.273 400.533 262.851C397.163 264.081 393.713 265.446 390.329 266.959C386.946 268.472 383.536 270.071 380.18 271.67C376.823 273.269 373.52 274.843 370.23 276.27C367.077 277.655 363.802 278.787 360.439 279.653C357.309 280.462 354.102 280.989 350.862 281.227C347.983 281.447 345.086 281.397 342.218 281.08C341.552 281.006 340.886 280.87 340.286 280.772L339.354 280.624L338.475 280.403L336.783 279.973L335.238 279.431C334.998 279.345 334.745 279.271 334.505 279.173L333.839 278.866L332.507 278.275C331.735 277.845 331.055 277.402 330.416 277.045L328.884 275.815C328.521 275.51 328.183 275.181 327.872 274.831L327.046 273.982L324.289 275.877L325.235 276.934C325.595 277.368 325.986 277.779 326.407 278.164L328.165 279.677C328.898 280.145 329.697 280.711 330.589 281.252L332.054 282.002L332.84 282.396C333.107 282.519 333.386 282.617 333.666 282.728L335.424 283.417C336.037 283.613 336.69 283.786 337.342 283.982L338.341 284.265L339.367 284.487C340.073 284.622 340.792 284.794 341.525 284.905C344.681 285.377 347.881 285.55 351.075 285.421C354.621 285.298 358.145 284.857 361.598 284.105C365.275 283.302 368.871 282.211 372.347 280.846C375.851 279.481 379.3 278.005 382.724 276.529C386.147 275.053 389.517 273.589 392.874 272.273C396.23 270.957 399.533 269.813 402.797 268.706C404.435 268.226 406.034 267.734 407.619 267.291C409.204 266.848 410.762 266.479 412.281 266.123L416.716 265.213L420.912 264.45C422.244 264.204 423.576 264.13 424.788 263.983C426 263.835 427.199 263.675 428.278 263.65L431.315 263.478C432.247 263.417 433.1 263.368 433.979 263.38H439.161L438.947 255.717Z" fill="#407BFF"/>
<path opacity="0.1" d="M437.802 255.717L442.983 255.951C443.796 255.951 444.755 256.061 445.807 256.16L449.177 256.48C450.403 256.566 451.628 256.787 452.96 256.972C454.292 257.156 455.624 257.316 457.103 257.636L461.565 258.509L466.28 259.739C467.892 260.17 469.517 260.674 471.195 261.154C472.873 261.633 474.525 262.273 476.23 262.851C479.6 264.081 483.037 265.446 486.433 266.959C489.83 268.472 493.213 270.071 496.57 271.67C499.926 273.269 503.23 274.843 506.52 276.27C509.673 277.653 512.948 278.785 516.31 279.653C519.44 280.46 522.647 280.987 525.887 281.227C528.771 281.447 531.672 281.397 534.545 281.08C535.211 281.006 535.877 280.87 536.463 280.772L537.396 280.624L538.275 280.403L539.966 279.973L541.511 279.431C541.765 279.345 542.004 279.271 542.244 279.173L542.923 278.866L544.189 278.275C544.975 277.845 545.654 277.402 546.293 277.045L547.812 275.815C548.178 275.51 548.521 275.181 548.837 274.831L549.663 273.982L552.407 275.877L551.475 276.934C551.115 277.368 550.723 277.779 550.303 278.164L548.531 279.677C547.798 280.145 547.013 280.711 546.107 281.252L544.642 282.002L543.869 282.396C543.603 282.519 543.31 282.617 543.03 282.728L541.272 283.417C540.659 283.613 540.02 283.786 539.367 283.982L538.368 284.265L537.329 284.487C536.636 284.622 535.917 284.794 535.184 284.905C532.024 285.376 528.819 285.55 525.621 285.421C522.075 285.297 518.551 284.856 515.098 284.105C511.421 283.302 507.825 282.211 504.349 280.846C500.859 279.481 497.396 278.005 493.986 276.529C490.576 275.053 487.192 273.589 483.836 272.273C480.479 270.957 477.176 269.813 473.899 268.706C472.261 268.226 470.662 267.734 469.091 267.291C467.519 266.848 465.947 266.479 464.429 266.123L459.98 265.213L455.784 264.548C454.452 264.302 453.12 264.229 451.908 264.081C450.696 263.933 449.51 263.773 448.431 263.749L445.394 263.577C444.462 263.515 443.609 263.466 442.73 263.478H437.549L437.802 255.717Z" fill="white"/>
<path opacity="0.1" d="M438.947 255.717L433.766 255.951C432.967 255.951 432.008 256.061 430.955 256.16L427.572 256.48C426.36 256.566 425.121 256.787 423.803 256.972C422.484 257.156 421.139 257.316 419.66 257.636L415.198 258.509L410.469 259.739C408.871 260.17 407.232 260.674 405.567 261.154C403.902 261.633 402.237 262.273 400.533 262.851C397.163 264.081 393.713 265.446 390.329 266.959C386.946 268.472 383.536 270.071 380.18 271.67C376.823 273.269 373.52 274.843 370.23 276.27C367.077 277.655 363.802 278.787 360.439 279.653C357.309 280.462 354.102 280.989 350.862 281.227C347.983 281.447 345.086 281.397 342.218 281.08C341.552 281.006 340.886 280.87 340.286 280.772L339.354 280.624L338.475 280.403L336.783 279.973L335.238 279.431C334.998 279.345 334.745 279.271 334.505 279.173L333.839 278.866L332.507 278.275C331.735 277.845 331.055 277.402 330.416 277.045L328.884 275.815C328.521 275.51 328.183 275.181 327.872 274.831L327.046 273.982L324.289 275.877L325.235 276.934C325.595 277.368 325.986 277.779 326.407 278.164L328.165 279.677C328.898 280.145 329.697 280.711 330.589 281.252L332.054 282.002L332.84 282.396C333.107 282.519 333.386 282.617 333.666 282.728L335.424 283.417C336.037 283.613 336.69 283.786 337.342 283.982L338.341 284.265L339.367 284.487C340.073 284.622 340.792 284.794 341.525 284.905C344.681 285.377 347.881 285.55 351.075 285.421C354.621 285.298 358.145 284.857 361.598 284.105C365.275 283.302 368.871 282.211 372.347 280.846C375.851 279.481 379.3 278.005 382.724 276.529C386.147 275.053 389.517 273.589 392.874 272.273C396.23 270.957 399.533 269.813 402.797 268.706C404.435 268.226 406.034 267.734 407.619 267.291C409.204 266.848 410.762 266.479 412.281 266.123L416.716 265.213L420.912 264.45C422.244 264.204 423.576 264.13 424.788 263.983C426 263.835 427.199 263.675 428.278 263.65L431.315 263.478C432.247 263.417 433.1 263.368 433.979 263.38H439.161L438.947 255.717Z" fill="white"/>
<path d="M550.476 278.054C552.374 278.054 553.912 276.633 553.912 274.88C553.912 273.128 552.374 271.707 550.476 271.707C548.578 271.707 547.039 273.128 547.039 274.88C547.039 276.633 548.578 278.054 550.476 278.054Z" fill="#407BFF"/>
<path d="M325.168 271.707C324.488 271.705 323.822 271.889 323.255 272.236C322.688 272.583 322.246 273.078 321.983 273.657C321.721 274.237 321.651 274.876 321.782 275.492C321.914 276.108 322.24 276.675 322.72 277.12C323.2 277.565 323.812 277.868 324.479 277.992C325.146 278.115 325.838 278.053 326.467 277.813C327.095 277.574 327.633 277.167 328.011 276.645C328.389 276.123 328.591 275.509 328.591 274.88C328.591 274.041 328.231 273.236 327.589 272.641C326.948 272.046 326.077 271.71 325.168 271.707Z" fill="#407BFF"/>
<path d="M448.618 249.69C448.618 247.08 447.495 244.577 445.497 242.732C443.498 240.887 440.788 239.85 437.962 239.85C435.136 239.85 432.425 240.887 430.427 242.732C428.428 244.577 427.306 247.08 427.306 249.69C427.305 251.741 428.067 253.729 429.464 255.323L430.369 274.265H445.514L446.42 255.323C447.836 253.737 448.612 251.746 448.618 249.69Z" fill="#407BFF"/>
<path opacity="0.1" d="M429.49 256.037H446.447C447.852 254.413 448.617 252.396 448.618 250.317C448.618 247.708 447.495 245.205 445.497 243.359C443.498 241.514 440.788 240.477 437.962 240.477C435.136 240.477 432.425 241.514 430.427 243.359C428.428 245.205 427.306 247.708 427.306 250.317C427.307 252.394 428.068 254.409 429.464 256.037H429.49Z" fill="white"/>
</svg>
