<svg width="707" height="707" viewBox="0 0 707 707" fill="none" xmlns="http://www.w3.org/2000/svg">
<path d="M707 540.714H0V541.067H707V540.714Z" fill="#EBEBEB"/>
<path d="M636.159 563.465H589.327V563.818H636.159V563.465Z" fill="#EBEBEB"/>
<path d="M468.345 567.311H456.057V567.664H468.345V567.311Z" fill="#EBEBEB"/>
<path d="M587.913 550.343H560.778V550.696H587.913V550.343Z" fill="#EBEBEB"/>
<path d="M135.249 552.719H74.1785V553.072H135.249V552.719Z" fill="#EBEBEB"/>
<path d="M156.799 552.719H147.848V553.072H156.799V552.719Z" fill="#EBEBEB"/>
<path d="M318.362 558.686H185.899V559.039H318.362V558.686Z" fill="#EBEBEB"/>
<path d="M335.118 477.649H62.0887C59.9498 477.645 57.8998 476.793 56.3887 475.279C54.8776 473.766 54.0289 471.714 54.0289 469.575V85.7732C54.0476 83.6466 54.9045 81.6132 56.4136 80.1147C57.9227 78.6162 59.962 77.7736 62.0887 77.77H335.118C337.259 77.77 339.313 78.6206 340.827 80.1348C342.341 81.6489 343.192 83.7026 343.192 85.8439V469.575C343.192 471.717 342.341 473.77 340.827 475.284C339.313 476.799 337.259 477.649 335.118 477.649ZM62.0887 78.0528C60.0436 78.0565 58.0835 78.8716 56.6387 80.319C55.1939 81.7665 54.3824 83.7281 54.3824 85.7732V469.575C54.3824 471.62 55.1939 473.582 56.6387 475.029C58.0835 476.477 60.0436 477.292 62.0887 477.296H335.118C337.164 477.292 339.126 476.477 340.573 475.03C342.02 473.583 342.835 471.622 342.838 469.575V85.7732C342.835 83.7268 342.02 81.7652 340.573 80.3182C339.126 78.8711 337.164 78.0565 335.118 78.0528H62.0887Z" fill="#EBEBEB"/>
<path d="M640.98 477.649H367.937C365.797 477.645 363.745 476.794 362.232 475.28C360.719 473.767 359.867 471.715 359.863 469.575V85.7732C359.885 83.6453 360.745 81.6119 362.257 80.1138C363.768 78.6157 365.809 77.7736 367.937 77.77H640.98C643.105 77.7773 645.14 78.6216 646.646 80.1197C648.152 81.6178 649.007 83.6491 649.026 85.7732V469.575C649.026 471.712 648.179 473.761 646.671 475.274C645.163 476.788 643.117 477.642 640.98 477.649ZM367.937 78.0528C365.891 78.0565 363.929 78.8711 362.482 80.3182C361.035 81.7652 360.22 83.7268 360.217 85.7732V469.575C360.22 471.622 361.035 473.583 362.482 475.03C363.929 476.477 365.891 477.292 367.937 477.296H640.98C643.027 477.292 644.988 476.477 646.435 475.03C647.882 473.583 648.697 471.622 648.701 469.575V85.7732C648.697 83.7268 647.882 81.7652 646.435 80.3182C644.988 78.8711 643.027 78.0565 640.98 78.0528H367.937Z" fill="#EBEBEB"/>
<path d="M588.549 93.0695H496.201V111.027H588.549V93.0695Z" fill="#F0F0F0"/>
<path d="M581.847 111.027H502.889V120.232H581.847V111.027Z" fill="#E0E0E0"/>
<path d="M573.632 120.232H511.09V531.395H573.632V120.232Z" fill="#F0F0F0"/>
<path d="M565.996 120.232H518.754V531.395H565.996V120.232Z" fill="#E0E0E0"/>
<path d="M552.012 120.232H532.739V531.395H552.012V120.232Z" fill="#F0F0F0"/>
<path d="M496.187 558.572H588.535V540.615H496.187V558.572Z" fill="#F0F0F0"/>
<path d="M502.889 540.615H581.847V531.395H502.889V540.615Z" fill="#E0E0E0"/>
<path d="M210.813 93.0695H118.465V111.027H210.813V93.0695Z" fill="#F0F0F0"/>
<path d="M204.111 111.027H125.153V120.232H204.111V111.027Z" fill="#E0E0E0"/>
<path d="M195.896 120.232H133.354V531.395H195.896V120.232Z" fill="#F0F0F0"/>
<path d="M188.26 120.232H141.018V531.395H188.26V120.232Z" fill="#E0E0E0"/>
<path d="M174.276 120.232H155.003V531.395H174.276V120.232Z" fill="#F0F0F0"/>
<path d="M118.451 558.572H210.799V540.615H118.451V558.572Z" fill="#F0F0F0"/>
<path d="M125.153 540.615H204.111V531.395H125.153V540.615Z" fill="#E0E0E0"/>
<path d="M353.5 604.57C504.915 604.57 627.661 597.403 627.661 588.563C627.661 579.723 504.915 572.557 353.5 572.557C202.085 572.557 79.3396 579.723 79.3396 588.563C79.3396 597.403 202.085 604.57 353.5 604.57Z" fill="#F5F5F5"/>
<path d="M410.06 177.485C410.06 177.485 401.972 175.209 380.267 178.348C380.267 178.348 380.875 213.5 384.509 231.147C392.731 231.907 401.02 231.459 409.113 229.817C409.113 229.817 404.955 190.197 410.06 177.485Z" fill="white"/>
<path opacity="0.1" d="M410.06 177.485C410.06 177.485 401.972 175.209 380.267 178.348C380.267 178.348 380.875 213.5 384.509 231.147C392.731 231.907 401.02 231.459 409.113 229.817C409.113 229.817 404.955 190.197 410.06 177.485Z" fill="black"/>
<path d="M385.866 257.56L380.493 235.997C380.493 235.997 374.583 232.447 374.088 228.502C373.593 224.557 379.871 213.571 381.087 213.585C382.303 213.599 390.236 219.524 390.222 221.277C390.207 223.03 388.638 232.391 388.638 232.391L399.427 253.304L385.866 257.56Z" fill="#E2877B"/>
<path d="M382.515 249.529L379.419 242.275L394.676 233.409L399.427 241.469L382.515 249.529Z" fill="#407BFF"/>
<path opacity="0.8" d="M382.515 249.529L379.419 242.275L394.676 233.409L399.427 241.469L382.515 249.529Z" fill="white"/>
<path d="M452.126 224.119C442.964 230.199 422.616 259.808 417.582 259.37C411.078 258.819 400.289 237.001 400.289 237.001L380.267 249.062C380.267 249.062 403.711 296.403 416.791 293.419C429.87 290.436 454.658 254.124 456.383 248.779C458.108 243.434 463.495 216.568 452.126 224.119Z" fill="#263238"/>
<path opacity="0.3" d="M452.126 224.119C442.964 230.199 422.616 259.808 417.582 259.37C411.078 258.819 400.289 237.001 400.289 237.001L380.267 249.062C380.267 249.062 403.711 296.403 416.791 293.419C429.87 290.436 454.658 254.124 456.383 248.779C458.108 243.434 463.495 216.568 452.126 224.119Z" fill="black"/>
<path d="M448.987 576.361L437.52 577.577L435.371 552.832L446.838 551.616L448.987 576.361Z" fill="#E2877B"/>
<path d="M506.226 575.526H495.112L494.193 549.777H505.321L506.226 575.526Z" fill="#E2877B"/>
<path d="M493.571 574.24H507.075C507.296 574.238 507.512 574.313 507.684 574.452C507.857 574.592 507.976 574.786 508.022 575.003L510.214 584.901C510.259 585.141 510.251 585.388 510.191 585.625C510.131 585.862 510.019 586.082 509.864 586.271C509.709 586.46 509.514 586.613 509.293 586.718C509.073 586.823 508.832 586.879 508.588 586.881C504.218 586.81 501.037 586.541 495.55 586.541C492.171 586.541 481.976 586.895 477.31 586.895C472.644 586.895 472.036 582.285 473.945 581.861C482.513 579.995 488.961 577.407 491.704 574.947C492.212 574.479 492.881 574.225 493.571 574.24Z" fill="#263238"/>
<path d="M489.894 576.191C489.139 576.248 488.387 576.049 487.759 575.625C487.556 575.455 487.399 575.236 487.303 574.989C487.207 574.742 487.174 574.474 487.208 574.211C487.206 574.058 487.247 573.908 487.327 573.778C487.407 573.648 487.523 573.543 487.66 573.476C488.89 572.84 492.482 575.045 492.878 575.3C492.925 575.321 492.963 575.358 492.987 575.405C493.01 575.451 493.016 575.504 493.005 575.555C492.998 575.608 492.976 575.658 492.941 575.698C492.906 575.738 492.859 575.767 492.807 575.781C491.854 576.024 490.877 576.162 489.894 576.191ZM488.24 573.886C488.122 573.873 488.004 573.898 487.901 573.957C487.83 573.957 487.745 574.056 487.731 574.268C487.709 574.443 487.729 574.62 487.791 574.785C487.853 574.95 487.953 575.098 488.084 575.215C489.331 575.781 490.747 575.851 492.044 575.413C490.887 574.662 489.595 574.143 488.24 573.886Z" fill="#407BFF"/>
<path d="M492.736 575.795H492.609C491.464 575.173 489.244 572.727 489.47 571.553C489.509 571.357 489.616 571.181 489.77 571.055C489.925 570.928 490.119 570.859 490.319 570.86C490.518 570.834 490.721 570.851 490.914 570.909C491.106 570.968 491.284 571.067 491.436 571.199C492.722 572.246 492.991 575.441 493.005 575.597C493.006 575.645 492.995 575.692 492.972 575.734C492.95 575.776 492.918 575.811 492.878 575.837C492.828 575.837 492.779 575.822 492.736 575.795ZM490.502 571.256H490.375C490.036 571.256 490.007 571.454 489.993 571.525C489.852 572.246 491.266 574.098 492.411 574.961C492.34 573.694 491.881 572.48 491.096 571.482C490.931 571.339 490.721 571.258 490.502 571.256Z" fill="#407BFF"/>
<path d="M436.304 573.886H449.808C450.029 573.885 450.245 573.96 450.417 574.099C450.59 574.238 450.709 574.433 450.755 574.65L452.947 584.548C452.992 584.788 452.984 585.035 452.924 585.272C452.864 585.508 452.752 585.729 452.597 585.918C452.442 586.107 452.247 586.259 452.026 586.364C451.806 586.47 451.565 586.525 451.321 586.527C446.951 586.456 443.77 586.188 438.283 586.188C434.904 586.188 424.709 586.541 420.043 586.541C415.377 586.541 414.769 581.932 416.678 581.507C425.246 579.641 431.694 577.053 434.437 574.593C434.945 574.125 435.614 573.872 436.304 573.886Z" fill="#263238"/>
<path d="M432.684 575.837C431.929 575.894 431.177 575.695 430.549 575.272C430.346 575.101 430.189 574.882 430.093 574.635C429.996 574.388 429.963 574.121 429.997 573.858C429.995 573.705 430.037 573.555 430.117 573.424C430.197 573.294 430.312 573.19 430.45 573.123C431.68 572.486 435.271 574.692 435.667 574.947C435.715 574.968 435.753 575.005 435.776 575.051C435.799 575.098 435.806 575.151 435.795 575.201C435.788 575.254 435.766 575.304 435.73 575.344C435.695 575.385 435.649 575.414 435.597 575.427C434.644 575.671 433.667 575.808 432.684 575.837ZM431.03 573.533C430.912 573.52 430.793 573.545 430.69 573.603C430.619 573.603 430.535 573.702 430.52 573.914C430.498 574.089 430.519 574.267 430.581 574.432C430.642 574.597 430.743 574.744 430.874 574.862C432.121 575.427 433.536 575.498 434.833 575.06C433.66 574.301 432.348 573.782 430.973 573.533H431.03Z" fill="#407BFF"/>
<path d="M435.512 575.498H435.385C434.239 574.876 432.019 572.43 432.246 571.256C432.285 571.06 432.391 570.884 432.546 570.758C432.7 570.631 432.894 570.563 433.094 570.563C433.294 570.537 433.497 570.554 433.689 570.612C433.882 570.671 434.06 570.77 434.211 570.903C435.498 571.949 435.767 575.145 435.781 575.3C435.781 575.348 435.77 575.395 435.748 575.437C435.726 575.479 435.693 575.514 435.653 575.54C435.603 575.54 435.554 575.525 435.512 575.498ZM433.278 570.987H433.151C432.811 570.987 432.783 571.185 432.769 571.256C432.627 571.977 434.041 573.83 435.187 574.692C435.115 573.425 434.656 572.211 433.872 571.214C433.705 571.04 433.476 570.938 433.235 570.931L433.278 570.987Z" fill="#407BFF"/>
<path opacity="0.2" d="M505.321 549.792H494.193L494.674 563.069H505.802L505.321 549.792Z" fill="black"/>
<path d="M500.74 323.919H441.734C436.078 354.546 419.336 472.276 431.935 568.852L451.914 566.378C451.914 566.378 449.284 428.838 466.917 381.441C468.953 406.808 471.357 433.759 473.45 448.153C478.582 483.503 490.05 567.24 490.05 567.24H510.454C510.454 567.24 505.816 486.812 503.893 452.07C501.715 414.302 500.811 331.668 500.74 323.919Z" fill="#263238"/>
<g opacity="0.3">
<path d="M500.74 323.919H441.734C436.078 354.546 419.336 472.276 431.935 568.852L451.914 566.378C451.914 566.378 449.284 428.838 466.917 381.441C468.953 406.808 471.357 433.759 473.45 448.153C478.582 483.503 490.05 567.24 490.05 567.24H510.454C510.454 567.24 505.816 486.812 503.893 452.07C501.715 414.302 500.811 331.668 500.74 323.919Z" fill="black"/>
</g>
<path opacity="0.4" d="M439.358 338.172C439.358 338.172 456.75 342.188 468.868 338.172L467.779 328.741H439.57L439.358 338.172Z" fill="black"/>
<path opacity="0.1" d="M448.111 339.544C451.829 339.946 455.574 340.05 459.31 339.855V328.755H448.111V339.544Z" fill="white"/>
<path opacity="0.2" d="M466.917 381.441C464.014 389.75 461.81 398.287 460.328 406.963C458.673 384.339 465.277 360.443 465.277 360.443L466.917 381.441Z" fill="black"/>
<path d="M492.963 189.476C492.963 189.476 492.524 200.307 484.083 197.762C475.641 195.217 485.511 185.644 492.963 189.476Z" fill="#263238"/>
<path d="M467.779 216.568C469.526 215.188 470.826 213.324 471.517 211.209C472.209 209.094 472.261 206.821 471.668 204.677L486.939 192.361C486.939 192.361 484.96 207.476 488.65 215.479C488.65 215.479 479.431 224.826 472.403 222.691C465.376 220.556 467.779 216.568 467.779 216.568Z" fill="#E2877B"/>
<path opacity="0.2" d="M483.503 199.742L477.465 199.996L471.668 204.677C472.191 206.735 472.167 208.894 471.597 210.941C480.845 209.456 483.503 199.742 483.503 199.742Z" fill="black"/>
<path d="M483.107 227.484L470.466 222.691L459.847 223.483C459.847 223.483 448.62 249.076 444.463 275.504C441.826 293.894 440.409 312.44 440.221 331.017C440.602 330.933 455.775 334.255 469.844 329.476C469.844 329.476 460.469 289.884 465.602 271.743C470.735 253.601 483.051 227.484 483.051 227.484" fill="#407BFF"/>
<path opacity="0.8" d="M483.107 227.484L470.466 222.691L459.847 223.483C459.847 223.483 448.62 249.076 444.463 275.504C441.826 293.894 440.409 312.44 440.221 331.017C440.602 330.933 455.775 334.255 469.844 329.476C469.844 329.476 460.469 289.884 465.602 271.743C470.735 253.601 483.051 227.484 483.051 227.484" fill="white"/>
<path opacity="0.4" d="M465.517 223.059L466.281 230.015C466.281 230.015 456.877 248.298 453.555 260.53C450.232 272.761 447.489 309.85 447.489 309.85L453.371 319.96L458.772 309.85C458.772 309.85 457.358 280.156 461.685 260.134C466.012 240.111 468.402 231.118 468.402 231.118L474.906 226.41L470.494 222.691L465.517 223.059Z" fill="black"/>
<path d="M467.78 216.568L472.135 220.895L488.636 215.479L476.334 233.692L470.24 223.907L460.314 226.721L467.78 216.568Z" fill="white"/>
<path d="M467.779 216.568C467.779 216.568 445.056 221.531 440.206 242.02C435.356 262.509 432.5 351.987 431.793 359.198C431.086 366.41 445.325 367.301 445.325 367.301C445.325 367.301 444.561 321.02 445.721 308.733C446.145 304.293 446.796 289.304 448.803 277.625C452.353 256.952 458.518 230.369 467.779 216.568Z" fill="#263238"/>
<path d="M463.071 218.223C459.988 220.938 452.621 226.707 448.931 232.801L454.672 235.841L446.824 240.833C446.824 240.833 447.474 262.877 449.397 274.429C453.017 254.322 459.013 229.676 467.779 216.568C467.779 216.568 465.913 217.091 463.071 218.223Z" fill="#263238"/>
<path opacity="0.1" d="M463.071 218.223C459.988 220.938 452.621 226.707 448.931 232.801L454.672 235.841L446.824 240.833C446.824 240.833 447.474 262.877 449.397 274.429C453.017 254.322 459.013 229.676 467.779 216.568C467.779 216.568 465.913 217.091 463.071 218.223Z" fill="white"/>
<path d="M450.373 169.114C450.373 169.114 449.581 177.429 456.029 179.281C456.029 179.281 459.72 169.991 455.237 169.114C450.755 168.238 450.373 169.114 450.373 169.114Z" fill="#263238"/>
<path d="M455.958 192.53C456.991 198.412 461.402 210.743 473.888 206.981C486.374 203.22 486.897 193.365 487.109 190.522C487.321 187.68 484.663 165.622 476.688 163.515C468.713 161.408 459.013 164.01 455.958 168.577C452.904 173.144 455.958 192.53 455.958 192.53Z" fill="#E2877B"/>
<path d="M486.416 183.41C486.614 183.664 478.158 188.727 478.427 171.235C478.427 171.235 472.304 173.837 470.89 166.894C470.89 166.894 445.297 175.718 447.842 165.763C451.25 152.472 471.951 151.468 480.873 158.425C480.873 158.425 485.299 153.461 489.47 158.806C494.462 165.198 494.377 182.519 494.377 182.519L486.416 183.41Z" fill="#263238"/>
<path d="M492.779 181.162C489.781 176.453 476.391 181.388 473.789 182.406L473.704 181.741C473.668 181.5 473.585 181.268 473.459 181.059C473.333 180.851 473.166 180.669 472.969 180.525C472.765 180.385 472.534 180.288 472.29 180.242C472.047 180.196 471.796 180.201 471.555 180.257L466.054 181.444C465.604 181.531 465.206 181.788 464.942 182.163C464.678 182.537 464.57 183 464.64 183.452C464.64 183.622 464.711 183.834 464.739 184.018C464.297 183.854 463.821 183.803 463.355 183.869C462.888 183.936 462.445 184.118 462.067 184.4V183.947C461.996 183.478 461.741 183.056 461.36 182.774C461.174 182.633 460.962 182.532 460.736 182.477C460.51 182.421 460.275 182.411 460.045 182.448L455.421 183.141C454.977 183.208 454.576 183.441 454.297 183.793C454.019 184.144 453.885 184.589 453.922 185.036C454.007 186.04 454.106 186.931 454.205 187.652C454.241 187.882 454.321 188.103 454.443 188.302C454.564 188.501 454.724 188.674 454.912 188.811C455.214 189.037 455.582 189.156 455.958 189.151H456.213L460.922 188.458C461.152 188.425 461.374 188.347 461.574 188.228C461.774 188.109 461.949 187.952 462.088 187.765C462.228 187.579 462.329 187.367 462.386 187.141C462.443 186.915 462.454 186.68 462.42 186.45L462.251 185.234C462.594 184.882 463.047 184.658 463.535 184.596C464.023 184.534 464.517 184.64 464.937 184.895C465.008 185.276 465.079 185.672 465.149 186.04C465.24 186.501 465.51 186.908 465.899 187.171C466.187 187.365 466.527 187.468 466.875 187.468C466.997 187.483 467.12 187.483 467.242 187.468L472.644 186.365C473.086 186.276 473.479 186.022 473.741 185.654C474.004 185.287 474.117 184.833 474.058 184.386L473.888 183.184C475.896 182.406 489.442 177.301 492.185 181.6C492.211 181.639 492.244 181.673 492.283 181.7C492.322 181.726 492.366 181.744 492.412 181.753C492.458 181.763 492.505 181.763 492.551 181.753C492.597 181.744 492.641 181.725 492.68 181.699C492.728 181.676 492.769 181.642 492.802 181.599C492.834 181.557 492.856 181.508 492.865 181.455C492.875 181.403 492.872 181.349 492.857 181.298C492.842 181.247 492.815 181.2 492.779 181.162ZM460.837 187.751L456.128 188.43C455.85 188.471 455.567 188.406 455.336 188.246C455.226 188.163 455.132 188.059 455.062 187.94C454.992 187.821 454.945 187.69 454.926 187.553C454.827 186.846 454.728 185.969 454.643 184.965C454.623 184.697 454.705 184.431 454.873 184.221C455.041 184.011 455.282 183.873 455.548 183.834L460.172 183.141H460.328C460.555 183.144 460.776 183.212 460.964 183.339C461.188 183.512 461.336 183.766 461.374 184.046L461.742 186.549C461.778 186.828 461.704 187.11 461.535 187.335C461.365 187.559 461.115 187.709 460.837 187.751ZM472.516 185.616L467.115 186.719C466.836 186.776 466.546 186.72 466.309 186.563C466.193 186.488 466.094 186.39 466.016 186.276C465.939 186.162 465.884 186.034 465.856 185.899C465.701 185.036 465.531 184.089 465.418 183.339C465.372 183.072 465.432 182.797 465.585 182.572C465.738 182.348 465.972 182.192 466.238 182.137L471.725 180.95C471.799 180.937 471.876 180.937 471.951 180.95C472.168 180.945 472.38 181.01 472.559 181.133C472.681 181.218 472.784 181.327 472.862 181.454C472.94 181.58 472.991 181.721 473.011 181.869L473.351 184.456C473.381 184.719 473.312 184.983 473.158 185.198C473.004 185.412 472.775 185.561 472.516 185.616Z" fill="black"/>
<path d="M470.367 183.509C470.579 184.371 470.183 185.177 469.589 185.276C468.996 185.375 468.43 184.739 468.274 183.862C468.119 182.986 468.472 182.18 469.052 182.081C469.632 181.982 470.212 182.618 470.367 183.509Z" fill="#263238"/>
<path d="M459.394 185.234C459.607 186.111 459.196 186.917 458.617 187.016C458.037 187.115 457.457 186.464 457.302 185.602C457.146 184.739 457.5 183.933 458.079 183.834C458.659 183.735 459.253 184.371 459.394 185.234Z" fill="#263238"/>
<path d="M463.622 185.107C463.039 187.992 462.054 190.781 460.695 193.393C461.381 193.714 462.129 193.881 462.887 193.881C463.645 193.881 464.393 193.714 465.079 193.393L463.622 185.107Z" fill="#DC5753"/>
<path d="M472.276 178.249C472.219 178.327 472.14 178.387 472.05 178.422C471.96 178.457 471.862 178.466 471.767 178.447C471.119 178.32 470.451 178.346 469.815 178.523C469.18 178.699 468.594 179.022 468.105 179.465C468.062 179.53 468.005 179.585 467.939 179.625C467.872 179.666 467.798 179.692 467.721 179.701C467.643 179.711 467.565 179.703 467.491 179.679C467.417 179.655 467.349 179.615 467.292 179.562C467.234 179.509 467.19 179.444 467.16 179.372C467.13 179.3 467.117 179.222 467.12 179.145C467.123 179.067 467.144 178.991 467.179 178.921C467.215 178.852 467.265 178.792 467.327 178.744C467.935 178.173 468.67 177.754 469.471 177.523C470.273 177.292 471.118 177.255 471.937 177.415C472.073 177.439 472.195 177.513 472.279 177.623C472.362 177.733 472.402 177.871 472.389 178.008C472.368 178.096 472.33 178.177 472.276 178.249Z" fill="#263238"/>
<path d="M467.299 197.79C468.595 197.763 469.866 197.425 471.005 196.805C472.144 196.185 473.118 195.301 473.846 194.227C473.882 194.163 473.892 194.087 473.874 194.016C473.855 193.945 473.81 193.883 473.747 193.845C473.697 193.799 473.631 193.773 473.563 193.773C473.494 193.773 473.429 193.799 473.379 193.845C472.688 194.829 471.778 195.637 470.72 196.207C469.662 196.776 468.486 197.091 467.285 197.126C467.249 197.124 467.213 197.129 467.179 197.142C467.146 197.155 467.115 197.175 467.09 197.2C467.065 197.225 467.045 197.256 467.032 197.289C467.019 197.323 467.014 197.359 467.016 197.394C467.016 197.466 467.044 197.534 467.095 197.584C467.145 197.635 467.213 197.663 467.285 197.663L467.299 197.79Z" fill="#263238"/>
<path d="M455.619 179.833C455.522 179.808 455.435 179.751 455.374 179.672C455.312 179.592 455.279 179.495 455.279 179.394C455.279 179.294 455.312 179.196 455.374 179.117C455.435 179.037 455.522 178.981 455.619 178.956C456.389 178.629 457.226 178.493 458.061 178.556C458.895 178.62 459.701 178.883 460.412 179.324C460.47 179.363 460.518 179.414 460.556 179.472C460.593 179.531 460.618 179.596 460.63 179.664C460.642 179.733 460.64 179.803 460.625 179.871C460.609 179.938 460.58 180.002 460.54 180.059C460.455 180.168 460.333 180.242 460.197 180.266C460.061 180.289 459.921 180.261 459.804 180.186C459.233 179.852 458.592 179.656 457.931 179.615C457.271 179.573 456.61 179.686 456.001 179.946C455.864 179.96 455.726 179.919 455.619 179.833Z" fill="#263238"/>
<path d="M488.65 215.479C488.65 215.479 503.766 224.303 511.571 227.612C519.376 230.92 507.541 284.78 507.244 294.07C506.947 303.36 515.389 367.173 515.389 367.173C515.389 367.173 491.351 373.437 471.654 368.757C471.654 368.757 457.74 315.676 459.451 287.862C461.105 261.081 469.137 234.724 488.65 215.479Z" fill="#263238"/>
<path d="M494.9 219.043C491.323 217.021 488.721 215.479 488.721 215.479C469.844 234.088 461.742 259.313 459.734 285.204C467.907 265.252 486.953 247.026 486.953 247.026L481.071 238.415L491.86 237.566C492.069 231.286 493.091 225.06 494.9 219.043Z" fill="#263238"/>
<path opacity="0.1" d="M494.9 219.043C491.323 217.021 488.721 215.479 488.721 215.479C469.844 234.088 461.742 259.313 459.734 285.204C467.907 265.252 486.953 247.026 486.953 247.026L481.071 238.415L491.86 237.566C492.069 231.286 493.091 225.06 494.9 219.043Z" fill="white"/>
<path d="M488.367 250.716C488.353 250.594 488.292 250.481 488.198 250.403C488.103 250.324 487.981 250.284 487.858 250.292L453.922 253.12V255.496H450.345L454.898 310.401C454.898 310.656 455.082 310.656 455.096 310.84H455.464L455.76 310.415L456.892 310.316L457.259 310.684L492.68 307.701C492.741 307.697 492.801 307.681 492.857 307.654C492.912 307.628 492.961 307.59 493.002 307.544C493.043 307.498 493.074 307.445 493.094 307.386C493.114 307.328 493.122 307.267 493.118 307.206L488.367 250.716Z" fill="#407BFF"/>
<path d="M451.66 306.697C451.7 307.671 452.05 308.607 452.657 309.369C453.265 310.132 454.099 310.681 455.039 310.939C454.799 308.04 454.46 305.283 454.46 305.283C454.46 305.283 451.363 263.16 450.557 253.502C449.715 253.674 448.955 254.122 448.396 254.775C447.838 255.429 447.514 256.249 447.474 257.108C447.587 258.423 447.814 261.095 447.814 261.095C447.814 261.095 450.769 296.205 451.66 306.697Z" fill="#407BFF"/>
<path opacity="0.2" d="M451.66 306.697C451.7 307.671 452.05 308.607 452.657 309.369C453.265 310.132 454.099 310.681 455.039 310.939C454.799 308.04 454.46 305.283 454.46 305.283C454.46 305.283 451.363 263.16 450.557 253.502C449.715 253.674 448.955 254.122 448.396 254.775C447.838 255.429 447.514 256.249 447.474 257.108C447.587 258.423 447.814 261.095 447.814 261.095C447.814 261.095 450.769 296.205 451.66 306.697Z" fill="black"/>
<path d="M455.053 309.666L491.648 306.697L489.527 300.418L454.53 303.374C453.947 303.676 453.481 304.164 453.204 304.76C452.928 305.357 452.857 306.028 453.003 306.668C453.043 307.306 453.255 307.922 453.616 308.449C453.977 308.977 454.473 309.397 455.053 309.666Z" fill="#407BFF"/>
<path opacity="0.6" d="M455.053 309.666L491.648 306.697L489.527 300.418L454.53 303.374C453.947 303.676 453.481 304.164 453.204 304.76C452.928 305.357 452.857 306.028 453.003 306.668C453.043 307.306 453.255 307.922 453.616 308.449C453.977 308.977 454.473 309.397 455.053 309.666Z" fill="white"/>
<path d="M490.997 300.503L456.439 303.416L456.171 303.232L455.096 303.331L454.87 303.543H454.417C454.393 303.544 454.37 303.535 454.352 303.52C454.334 303.504 454.322 303.482 454.318 303.459L450.076 253.53C450.076 253.53 450.076 253.431 450.161 253.431H450.684L450.896 253.813L451.971 253.728L452.225 253.304L486.755 250.391C486.778 250.395 486.799 250.405 486.817 250.42C486.834 250.435 486.847 250.454 486.854 250.476L491.096 300.404C491.096 300.431 491.086 300.456 491.067 300.474C491.049 300.493 491.024 300.503 490.997 300.503Z" fill="#407BFF"/>
<path opacity="0.3" d="M483.079 278.742L458.801 280.778L457.075 260.332L481.354 258.281L483.079 278.742ZM459.946 279.251L481.693 277.427L480.208 259.808L458.461 261.59L459.946 279.251Z" fill="black"/>
<path opacity="0.3" d="M448.111 264.574C448.273 263.87 448.598 263.214 449.059 262.659C449.521 262.104 450.107 261.665 450.769 261.378C450.769 261.76 450.769 261.915 450.896 262.962C449.602 263.823 448.67 265.132 448.28 266.638L448.111 264.574Z" fill="black"/>
<path opacity="0.3" d="M450.727 295.724C450.889 295.019 451.213 294.361 451.675 293.804C452.136 293.246 452.722 292.805 453.385 292.514C453.385 292.896 453.456 293.066 453.526 294.112C452.226 294.968 451.293 296.279 450.91 297.788L450.727 295.724Z" fill="black"/>
<path opacity="0.3" d="M451.989 253.771L450.918 253.861L455.085 303.374L456.156 303.284L451.989 253.771Z" fill="black"/>
<path d="M480.009 284.9L462.974 286.334L463.172 288.687L480.207 287.253L480.009 284.9Z" fill="#407BFF"/>
<path d="M476.676 290.351L467.151 291.153L467.349 293.506L476.874 292.704L476.676 290.351Z" fill="#407BFF"/>
<path opacity="0.3" d="M454.997 306.117L487.717 303.289C487.717 303.289 477.748 303.939 465.418 304.986C460.186 305.495 454.997 306.117 454.997 306.117Z" fill="black"/>
<path opacity="0.3" d="M455.096 307.389L487.901 304.335L465.517 306.216C460.285 306.654 455.096 307.389 455.096 307.389Z" fill="black"/>
<path opacity="0.3" d="M455.195 308.535L488.155 305.424L465.616 307.333C460.384 307.8 455.195 308.535 455.195 308.535Z" fill="black"/>
<path d="M461.699 304.321L462.237 310.755L459.932 308.591L458.009 311.08C458.009 311.08 457.881 309.496 457.471 304.576C458.744 304.462 460.667 304.406 461.699 304.321Z" fill="#407BFF"/>
<path opacity="0.3" d="M461.699 304.321L462.237 310.755L459.932 308.591L458.009 311.08C458.009 311.08 457.881 309.496 457.471 304.576C458.744 304.462 460.667 304.406 461.699 304.321Z" fill="black"/>
<path opacity="0.3" d="M454.898 304.901L488 302.299C488 302.299 477.649 302.78 465.376 303.826C460.087 304.265 454.898 304.901 454.898 304.901Z" fill="black"/>
<path d="M491.096 300.489L489.159 300.659C488.722 301.632 488.681 302.738 489.046 303.741C489.167 304.404 489.471 305.02 489.923 305.52C490.375 306.019 490.958 306.383 491.605 306.569L491.096 300.489Z" fill="#407BFF"/>
<path d="M481.41 303.727L461.218 294.395C461.218 294.395 454.742 296.784 451.32 294.706C447.899 292.627 443.289 280.849 444.067 279.901C444.844 278.954 454.431 276.494 455.775 277.597C457.118 278.699 463.453 285.798 463.453 285.798L486.515 290.492L481.41 303.727Z" fill="#E2877B"/>
<path d="M475.769 284.087L467.68 283.606L468.543 301.804L477.14 303.246L475.769 284.087Z" fill="white"/>
<path d="M475.769 284.087L467.68 283.606L468.543 301.804L477.14 303.246L475.769 284.087Z" fill="#407BFF"/>
<path opacity="0.8" d="M475.769 284.087L467.68 283.606L468.543 301.804L477.14 303.246L475.769 284.087Z" fill="white"/>
<path d="M506.042 225.788C519.546 227.202 524.976 247.577 526.856 257.758C528.695 267.656 533.7 298.609 522.317 306.965C510.935 315.322 474.849 306.159 474.849 306.159L472.926 281.386C472.926 281.386 492.312 285.755 500.683 282.503C507.753 279.774 504.459 254.562 503.723 249.981C502.677 243.547 499.693 225.109 506.042 225.788Z" fill="#263238"/>
<path opacity="0.3" d="M506.042 225.788C519.546 227.202 524.976 247.577 526.856 257.758C528.695 267.656 533.7 298.609 522.317 306.965C510.935 315.322 474.849 306.159 474.849 306.159L472.926 281.386C472.926 281.386 492.312 285.755 500.683 282.503C507.753 279.774 504.459 254.562 503.723 249.981C502.677 243.547 499.693 225.109 506.042 225.788Z" fill="black"/>
<path d="M483.729 184.767C483.729 184.767 485.963 178.588 491.676 178.56C496.257 178.56 496.922 184.287 494.829 188.246C493.231 191.286 487.985 195.09 484.648 191.074C481.311 187.058 483.729 184.767 483.729 184.767Z" fill="#E2877B"/>
<path d="M205.567 465.291L205.058 487.307L202.739 586.895H195.09L192.785 487.307L192.276 465.291H205.567Z" fill="#457BFB"/>
<path opacity="0.4" d="M205.567 465.291L205.058 487.307L202.739 586.895H195.09L192.785 487.307L192.276 465.291H205.567Z" fill="white"/>
<path opacity="0.2" d="M205.567 465.291L205.058 487.915H192.785L192.276 465.291H205.567Z" fill="black"/>
<path d="M247.111 586.541L240.041 466.846H228.488L238.386 586.541H247.111Z" fill="#457BFB"/>
<path opacity="0.5" d="M238.358 586.541H247.097L240.677 477.593L240.041 466.705H228.488L229.379 477.593L238.358 586.541Z" fill="white"/>
<path opacity="0.2" d="M228.488 466.705L229.379 478.017H240.677L240.041 466.705H228.488Z" fill="black"/>
<path d="M159.457 586.541L169.341 466.846H157.788L150.732 586.541H159.457Z" fill="#457BFB"/>
<path opacity="0.5" d="M159.471 586.541L168.45 477.593L169.341 466.705H157.788L157.152 477.593L150.732 586.541H159.471Z" fill="white"/>
<path opacity="0.2" d="M169.341 466.705L168.45 478.017H157.152L157.788 466.705H169.341Z" fill="black"/>
<path d="M158.679 454.445H239.164C241.039 454.445 242.837 455.19 244.163 456.516C245.489 457.842 246.234 459.64 246.234 461.515V470.975H151.609V461.515C151.609 459.64 152.354 457.842 153.68 456.516C155.006 455.19 156.804 454.445 158.679 454.445Z" fill="black"/>
<path d="M247.917 462.717H149.912C148.343 462.717 147.07 463.99 147.07 465.559V468.133C147.07 469.703 148.343 470.975 149.912 470.975H247.917C249.486 470.975 250.759 469.703 250.759 468.133V465.559C250.759 463.99 249.486 462.717 247.917 462.717Z" fill="#457BFB"/>
<path opacity="0.6" d="M247.917 462.717H149.912C148.343 462.717 147.07 463.99 147.07 465.559V468.133C147.07 469.703 148.343 470.975 149.912 470.975H247.917C249.486 470.975 250.759 469.703 250.759 468.133V465.559C250.759 463.99 249.486 462.717 247.917 462.717Z" fill="white"/>
<path d="M250.108 347.363C250.108 347.363 278.586 376.916 280.311 378.471C282.037 380.027 292.656 383.449 294.225 384.806C295.795 386.163 293.151 396.118 292.104 398.027C291.058 399.936 276.041 391.735 275.136 390.391C274.268 388.727 273.558 386.985 273.015 385.188L240.691 358.039L250.108 347.363Z" fill="#E9B076"/>
<path d="M226.113 318.758C226.113 318.758 226.198 319.903 226.424 321.798C226.65 323.693 226.989 326.549 227.499 329.716C228.729 337.423 230.878 347.335 234.328 353.33C235.171 354.92 236.331 356.321 237.736 357.445C242.261 360.81 262.24 382.798 262.24 382.798L272.86 369.294L258.762 351.45C258.762 351.45 249.458 298.891 235.276 294.791C229.139 293.009 226.113 318.758 226.113 318.758Z" fill="#407BFF"/>
<path opacity="0.6" d="M226.113 318.758C226.113 318.758 226.198 319.903 226.424 321.798C226.65 323.693 226.989 326.549 227.499 329.716C228.729 337.423 230.878 347.335 234.328 353.33C235.171 354.92 236.331 356.321 237.736 357.445C242.261 360.81 262.24 382.798 262.24 382.798L272.86 369.294L258.762 351.45C258.762 351.45 249.458 298.891 235.276 294.791C229.139 293.009 226.113 318.758 226.113 318.758Z" fill="black"/>
<path d="M238.994 576.686L250.264 575.13L251.819 548.363L240.578 549.919L238.994 576.686Z" fill="#E9B076"/>
<path opacity="0.2" d="M240.578 549.919L251.819 548.378L250.928 563.677L239.687 564.667L240.578 549.919Z" fill="black"/>
<path d="M239.447 419.279L236.704 402.057L173.554 398.281C173.554 398.281 166.852 434.098 171.999 443.657C181.204 460.695 230.85 452.141 245.372 453.767C236.69 489.244 237.552 558.657 237.552 558.657L258.295 560.241C258.295 560.241 274.26 485.483 277.483 449.949C279.647 425.982 259.78 426.575 239.447 419.279Z" fill="#407BFF"/>
<path d="M235.106 559.633L260.035 561.273L262.17 550.597L234.781 549.325L235.106 559.633Z" fill="#457BFB"/>
<path d="M264.984 566.689L276.324 567.523L283.422 541.647L272.096 540.841L264.984 566.689Z" fill="#E9B076"/>
<path d="M277.893 568.018C277.893 568.018 277.893 568.089 277.893 568.117C277.909 568.124 277.926 568.127 277.943 568.127C277.96 568.127 277.977 568.124 277.992 568.117C278.889 568.619 279.837 569.022 280.82 569.319C281.53 569.595 282.317 569.595 283.026 569.319C283.26 569.188 283.452 568.994 283.579 568.759C283.707 568.523 283.765 568.257 283.747 567.99C283.763 567.821 283.736 567.651 283.669 567.496C283.603 567.34 283.498 567.204 283.366 567.099C282.349 566.691 281.221 566.661 280.184 567.014C280.996 566.468 281.587 565.651 281.853 564.709C281.871 564.486 281.814 564.263 281.691 564.076C281.568 563.889 281.386 563.749 281.174 563.677C280.996 563.59 280.8 563.544 280.601 563.544C280.403 563.544 280.207 563.59 280.029 563.677C278.615 564.426 278.12 567.594 278.077 567.763H277.879C277.879 567.763 277.865 567.99 277.893 568.018ZM278.742 567.396L278.487 567.467C278.756 566.42 279.322 564.709 280.156 564.271C280.245 564.215 280.346 564.178 280.451 564.163C280.556 564.149 280.662 564.156 280.764 564.186H280.877C281.23 564.342 281.273 564.539 281.259 564.695C281.16 565.501 279.859 566.774 278.742 567.396ZM278.742 567.976C280.241 567.523 282.319 567.113 282.984 567.594C283.048 567.646 283.098 567.714 283.13 567.79C283.162 567.867 283.175 567.95 283.168 568.032C283.173 568.201 283.136 568.369 283.059 568.52C282.983 568.67 282.869 568.799 282.729 568.895C282.093 569.248 280.637 568.909 278.784 567.976H278.742Z" fill="#407BFF"/>
<path opacity="0.2" d="M272.096 540.841L283.422 541.661L279.364 556.451L268.165 555.08L272.096 540.841Z" fill="black"/>
<path d="M287.268 554.627L267.246 548.759C267.246 548.759 279.166 481.481 291.284 458.15C290.379 457.853 289.177 457.471 287.693 457.033C285.02 456.227 281.471 455.223 277.3 454.064C248.313 446.018 189.476 430.931 189.476 430.931L216.342 405.818C216.342 405.818 323.354 422.136 325.574 450.331C326.634 463.933 287.268 554.627 287.268 554.627Z" fill="#407BFF"/>
<path d="M264.729 549.198L288.767 555.999L293.08 546.002L266.553 539.045L264.729 549.198Z" fill="#457BFB"/>
<path opacity="0.2" d="M287.721 457.033C285.048 456.227 281.499 455.223 277.328 454.064C278.162 447.22 278.176 439.372 274.882 435.371C268.335 427.396 251.494 422.715 241.907 421.018C233.89 419.604 206.953 416.776 206.953 416.776C206.953 416.776 241.907 413.425 277.653 423.846C295.3 429.022 291.864 446.287 287.721 457.033Z" fill="black"/>
<path d="M170.048 416.282C165.806 413.044 169.878 382.925 167.715 353.288C164.42 308.195 171.504 293.504 174.785 292.09C179.65 291.097 184.596 290.553 189.561 290.464C198.666 290.127 207.783 290.32 216.865 291.044C223.08 291.817 229.226 293.07 235.247 294.791C235.247 294.791 250.137 342.16 240.62 410.385L170.048 416.282Z" fill="#407BFF"/>
<g opacity="0.5">
<path d="M170.048 416.282C165.806 413.044 169.878 382.925 167.715 353.288C164.42 308.195 171.504 293.504 174.785 292.09C179.65 291.097 184.596 290.553 189.561 290.464C198.666 290.127 207.783 290.32 216.865 291.044C223.08 291.817 229.226 293.07 235.247 294.791C235.247 294.791 250.137 342.16 240.62 410.385L170.048 416.282Z" fill="black"/>
</g>
<path d="M192.969 259.851C194.496 268.66 195.867 284.794 189.603 290.535C192.144 293.268 195.202 295.469 198.6 297.011C201.999 298.552 205.669 299.403 209.399 299.514C220.711 300.008 216.893 291.114 216.893 291.114C207.151 288.569 207.561 281.301 209.413 274.514L192.969 259.851Z" fill="#E2877B"/>
<path opacity="0.2" d="M199.671 265.832L209.413 274.528C208.955 276.104 208.638 277.718 208.466 279.35C204.733 278.728 199.685 274.514 199.374 270.583C199.175 268.995 199.276 267.383 199.671 265.832Z" fill="black"/>
<path d="M224.557 248.1C224.557 248.1 233.508 249.995 234.738 244.41C235.968 238.825 233.748 237.863 236.407 235.176C239.065 232.49 237.354 223.313 230.496 225.123C223.638 226.933 220.047 217.501 214.362 218.788C208.678 220.075 207.801 224.034 204.224 224.967C200.647 225.901 193.548 221.277 188.995 224.02C184.442 226.763 187.949 232.645 186.408 234.894C184.866 237.142 181.105 242.869 186.408 251.268C191.272 258.96 185.22 262.82 182.081 262.099C181.972 262.069 181.857 262.066 181.746 262.09C181.636 262.114 181.532 262.164 181.445 262.236C181.358 262.308 181.289 262.4 181.245 262.504C181.2 262.608 181.181 262.721 181.19 262.834C181.275 263.725 181.798 264.984 183.933 265.775C187.496 267.105 188.175 265.167 188.995 266.186C189.815 267.204 191.597 270.555 197.479 267.119C203.362 263.683 206.232 241.95 224.557 248.1Z" fill="#263238"/>
<path d="M224.685 260.798C223.667 266.68 219.255 279.01 206.769 275.249C194.284 271.488 193.718 261.59 193.548 258.762C193.379 255.934 195.98 233.847 203.97 231.755C211.959 229.662 221.645 232.25 224.685 236.803C227.725 241.356 224.685 260.798 224.685 260.798Z" fill="#E2877B"/>
<path d="M210.276 251.777C210.064 252.639 210.474 253.46 211.054 253.559C211.633 253.657 212.227 253.007 212.383 252.145C212.538 251.282 212.171 250.462 211.605 250.377C211.039 250.292 210.431 250.886 210.276 251.777Z" fill="#263238"/>
<path d="M220.146 253.488C219.934 254.35 220.344 255.17 220.923 255.255C221.503 255.34 222.083 254.718 222.238 253.841C222.394 252.965 222.04 252.159 221.461 252.06C220.881 251.961 220.287 252.654 220.146 253.488Z" fill="#263238"/>
<path d="M217.021 253.375C217.617 256.256 218.602 259.044 219.948 261.661C219.261 261.979 218.513 262.143 217.756 262.143C216.999 262.143 216.251 261.979 215.564 261.661L217.021 253.375Z" fill="#DC5753"/>
<path d="M214.094 246.248C214.009 246.202 213.914 246.178 213.818 246.178C213.722 246.178 213.627 246.202 213.542 246.248C213.003 246.629 212.382 246.878 211.729 246.976C211.076 247.074 210.409 247.019 209.781 246.814C209.718 246.786 209.65 246.77 209.581 246.768C209.512 246.767 209.443 246.779 209.379 246.804C209.314 246.829 209.255 246.866 209.206 246.914C209.156 246.962 209.116 247.019 209.088 247.082C209.061 247.146 209.046 247.215 209.045 247.285C209.044 247.355 209.058 247.424 209.084 247.488C209.11 247.553 209.149 247.612 209.199 247.661C209.248 247.71 209.307 247.749 209.371 247.775C210.157 248.055 210.999 248.141 211.826 248.028C212.652 247.915 213.44 247.605 214.122 247.125C214.238 247.049 214.32 246.932 214.351 246.798C214.383 246.664 214.361 246.523 214.292 246.404C214.232 246.345 214.165 246.292 214.094 246.248Z" fill="#263238"/>
<path d="M209.131 265.521C210.357 265.102 211.666 264.984 212.948 265.176C214.23 265.367 215.447 265.864 216.498 266.624C216.525 266.649 216.547 266.68 216.562 266.714C216.577 266.748 216.585 266.785 216.585 266.822C216.585 266.859 216.577 266.896 216.562 266.93C216.547 266.964 216.525 266.995 216.498 267.02C216.445 267.067 216.377 267.094 216.307 267.094C216.236 267.094 216.168 267.067 216.116 267.02C215.132 266.33 214.001 265.881 212.812 265.709C211.623 265.537 210.411 265.647 209.272 266.03C209.203 266.049 209.128 266.043 209.063 266.012C208.998 265.981 208.947 265.927 208.919 265.86C208.905 265.828 208.898 265.793 208.899 265.758C208.9 265.723 208.908 265.689 208.922 265.657C208.937 265.625 208.958 265.596 208.984 265.573C209.01 265.55 209.041 265.532 209.074 265.521H209.131Z" fill="#263238"/>
<path d="M221.461 246.87C221.359 246.842 221.251 246.842 221.15 246.87C221.086 246.895 221.027 246.933 220.977 246.98C220.928 247.028 220.888 247.085 220.86 247.148C220.833 247.211 220.818 247.279 220.817 247.348C220.815 247.417 220.828 247.485 220.853 247.549C221.147 248.331 221.624 249.032 222.244 249.593C222.863 250.154 223.608 250.558 224.416 250.773C224.553 250.798 224.694 250.77 224.81 250.693C224.926 250.617 225.008 250.498 225.038 250.363C225.064 250.226 225.035 250.085 224.959 249.969C224.882 249.853 224.764 249.771 224.628 249.741C223.985 249.56 223.394 249.23 222.903 248.778C222.411 248.326 222.033 247.765 221.8 247.139C221.726 247.009 221.604 246.913 221.461 246.87Z" fill="#263238"/>
<path d="M230.623 236.35C233.225 239.418 224.769 243.745 221.475 241.398C218.647 239.362 215.564 237.015 211.831 239.249C208.098 241.483 207.745 239.532 205.171 239.532C202.598 239.532 206.19 245.046 202.64 247.478C200.604 248.892 197.677 249.585 198.596 252.06C199.515 254.534 198.144 257.984 194.609 257.348C194.609 257.348 197.918 256.415 195.853 253.035C193.789 249.656 192.007 251.621 192.007 251.621C192.007 251.621 192.997 232.999 201.905 229.577C210.813 226.155 226.325 231.288 230.623 236.35Z" fill="#263238"/>
<path d="M196.914 253.106C196.914 253.106 194.68 246.927 188.981 246.913C184.386 246.913 183.735 252.569 185.814 256.599C187.426 259.639 192.389 263.188 195.995 259.427C198.13 257.178 196.914 253.106 196.914 253.106Z" fill="#E2877B"/>
<path d="M213.104 362.394C213.104 362.394 252.243 374.738 254.492 375.261C256.74 375.785 267.713 373.72 269.735 374.173C271.757 374.625 274.217 384.622 274.203 386.8C274.189 388.977 257.079 388.935 255.651 388.214C254.085 387.167 252.622 385.974 251.282 384.65L209.922 376.251L213.104 362.394Z" fill="#E9B076"/>
<path d="M174.827 292.09C152.797 294.112 169.086 358.11 178.023 367.329C186.959 376.548 217.615 379.857 217.615 379.857L221.503 362.649C221.503 362.649 198.441 356.498 194.354 353.839C190.268 351.181 187.397 324.64 184.965 311.73C183.688 304.296 180.148 297.437 174.827 292.09Z" fill="#407BFF"/>
<path opacity="0.6" d="M174.827 292.09C152.797 294.112 169.086 358.11 178.023 367.329C186.959 376.548 217.615 379.857 217.615 379.857L221.503 362.649C221.503 362.649 198.441 356.498 194.354 353.839C190.268 351.181 187.397 324.64 184.965 311.73C183.688 304.296 180.148 297.437 174.827 292.09Z" fill="black"/>
<path opacity="0.2" d="M235.106 559.633L260.035 561.273L262.17 550.597L234.781 549.325L235.106 559.633Z" fill="white"/>
<path opacity="0.2" d="M264.729 549.198L288.767 555.999L293.08 546.002L266.553 539.045L264.729 549.198Z" fill="white"/>
<path d="M277.441 566.364L265.153 562.942C264.951 562.875 264.73 562.89 264.539 562.986C264.348 563.081 264.203 563.248 264.135 563.451L260.827 573.009C260.756 573.265 260.736 573.532 260.769 573.794C260.802 574.057 260.887 574.311 261.018 574.541C261.15 574.771 261.325 574.973 261.535 575.135C261.745 575.296 261.985 575.415 262.241 575.484C266.483 576.601 268.646 576.898 274.062 578.397C277.384 579.316 283.861 581.437 288.597 581.974C293.334 582.511 293.73 577.817 291.779 577.181C287.141 575.625 281.598 570.789 279.18 567.509C278.747 566.941 278.134 566.537 277.441 566.364Z" fill="#263238"/>
<path d="M251.381 575.173C251.461 575.166 251.541 575.166 251.621 575.173C251.621 575.173 251.876 575.173 251.904 575.272C251.932 575.371 251.904 575.342 251.904 575.357H251.989C252.957 575.652 253.951 575.851 254.958 575.95C255.707 576.075 256.476 575.925 257.122 575.526C257.313 575.351 257.453 575.126 257.525 574.877C257.598 574.627 257.6 574.363 257.532 574.112C257.51 573.942 257.445 573.78 257.344 573.642C257.242 573.503 257.108 573.393 256.952 573.32C255.87 573.132 254.757 573.338 253.813 573.9C254.481 573.192 254.877 572.271 254.93 571.298C254.882 571.072 254.763 570.868 254.59 570.715C254.417 570.562 254.199 570.469 253.969 570.45C253.748 570.41 253.522 570.415 253.304 570.463C253.085 570.512 252.879 570.603 252.696 570.733C251.522 571.765 251.282 574.975 251.282 575.173H251.381ZM252.597 574.508L252.371 574.635C252.303 573.402 252.641 572.18 253.332 571.157C253.411 571.087 253.503 571.034 253.602 571C253.702 570.966 253.807 570.952 253.912 570.959H254.039C254.407 571.03 254.506 571.228 254.506 571.369C254.268 572.611 253.59 573.725 252.597 574.508ZM252.767 575.074C254.181 574.31 256.075 573.49 256.811 573.815C256.885 573.854 256.948 573.911 256.994 573.98C257.041 574.049 257.07 574.128 257.079 574.211C257.119 574.376 257.116 574.547 257.072 574.711C257.027 574.874 256.942 575.023 256.825 575.145C256.259 575.625 254.775 575.597 252.767 575.074Z" fill="#407BFF"/>
<path d="M251.112 573.773L238.386 572.981C238.174 572.965 237.963 573.03 237.797 573.164C237.632 573.299 237.524 573.491 237.496 573.702L236.251 583.742C236.22 584.267 236.397 584.785 236.743 585.181C237.09 585.578 237.578 585.823 238.104 585.863C242.544 586.075 244.679 585.947 250.278 586.259C253.714 586.456 260.487 587.192 265.238 586.725C269.989 586.259 269.395 581.592 267.345 581.366C262.495 580.815 256.033 577.251 253.021 574.537C252.487 574.078 251.816 573.809 251.112 573.773Z" fill="#263238"/>
<path opacity="0.3" d="M219.255 313.526L236.831 311.886L237.722 316.453L220.33 318.885L219.255 313.526Z" fill="white"/>
<path d="M117.532 364.812H302.893V372.603C302.893 373.413 302.571 374.19 301.998 374.763C301.426 375.336 300.649 375.657 299.839 375.657H120.6C119.79 375.657 119.013 375.336 118.44 374.763C117.868 374.19 117.546 373.413 117.546 372.603V364.812H117.532Z" fill="#263238"/>
<path opacity="0.3" d="M117.532 364.812H302.893V372.603C302.893 373.413 302.571 374.19 301.998 374.763C301.426 375.336 300.649 375.657 299.839 375.657H120.6C119.79 375.657 119.013 375.336 118.44 374.763C117.868 374.19 117.546 373.413 117.546 372.603V364.812H117.532Z" fill="white"/>
<path opacity="0.2" d="M302.879 364.77H117.532V370.199H302.879V364.77Z" fill="black"/>
<path d="M308.252 366.226H112.173C111.77 366.228 111.372 366.15 110.999 365.998C110.627 365.845 110.289 365.62 110.004 365.337C109.719 365.053 109.492 364.715 109.338 364.344C109.184 363.972 109.104 363.574 109.104 363.172C109.108 362.36 109.433 361.584 110.008 361.011C110.583 360.439 111.361 360.118 112.173 360.118H308.252C309.062 360.118 309.839 360.439 310.412 361.012C310.984 361.585 311.306 362.362 311.306 363.172C311.308 363.573 311.23 363.971 311.078 364.343C310.925 364.714 310.7 365.052 310.416 365.336C310.132 365.62 309.794 365.845 309.423 365.997C309.052 366.15 308.654 366.228 308.252 366.226Z" fill="#263238"/>
<path opacity="0.3" d="M308.252 366.226H112.173C111.77 366.228 111.372 366.15 110.999 365.998C110.627 365.845 110.289 365.62 110.004 365.337C109.719 365.053 109.492 364.715 109.338 364.344C109.184 363.972 109.104 363.574 109.104 363.172C109.108 362.36 109.433 361.584 110.008 361.011C110.583 360.439 111.361 360.118 112.173 360.118H308.252C309.062 360.118 309.839 360.439 310.412 361.012C310.984 361.585 311.306 362.362 311.306 363.172C311.308 363.573 311.23 363.971 311.078 364.343C310.925 364.714 310.7 365.052 310.416 365.336C310.132 365.62 309.794 365.845 309.423 365.997C309.052 366.15 308.654 366.228 308.252 366.226Z" fill="white"/>
<path d="M122.099 586.895H202.259L202.259 375.629H122.099L122.099 586.895Z" fill="#263238"/>
<path opacity="0.2" d="M122.099 586.895H202.259L202.259 375.629H122.099L122.099 586.895Z" fill="white"/>
<path d="M367.046 375.629H202.259V586.895H367.046V375.629Z" fill="#263238"/>
<path opacity="0.39" d="M367.046 375.629H202.259V586.895H367.046V375.629Z" fill="white"/>
<path d="M198.893 364.812H370.1V372.603C370.1 373.413 369.779 374.19 369.206 374.763C368.633 375.336 367.856 375.657 367.046 375.657H201.947C201.137 375.657 200.361 375.336 199.788 374.763C199.215 374.19 198.893 373.413 198.893 372.603V364.812Z" fill="#263238"/>
<path opacity="0.6" d="M198.893 364.812H370.1V372.603C370.1 373.413 369.779 374.19 369.206 374.763C368.633 375.336 367.856 375.657 367.046 375.657H201.947C201.137 375.657 200.361 375.336 199.788 374.763C199.215 374.19 198.893 373.413 198.893 372.603V364.812Z" fill="white"/>
<path opacity="0.2" d="M370.1 364.77H198.893V370.199H370.1V364.77Z" fill="black"/>
<path d="M375.474 366.226H193.52C193.119 366.226 192.722 366.147 192.351 365.994C191.981 365.84 191.644 365.615 191.36 365.331C191.077 365.048 190.852 364.711 190.698 364.341C190.545 363.97 190.466 363.573 190.466 363.172C190.466 362.362 190.788 361.585 191.36 361.012C191.933 360.439 192.71 360.118 193.52 360.118H375.474C375.875 360.118 376.272 360.197 376.642 360.35C377.013 360.504 377.35 360.729 377.633 361.012C377.917 361.296 378.142 361.632 378.295 362.003C378.449 362.374 378.528 362.771 378.528 363.172C378.528 363.573 378.449 363.97 378.295 364.341C378.142 364.711 377.917 365.048 377.633 365.331C377.35 365.615 377.013 365.84 376.642 365.994C376.272 366.147 375.875 366.226 375.474 366.226Z" fill="#263238"/>
<path opacity="0.6" d="M375.474 366.226H193.52C193.119 366.226 192.722 366.147 192.351 365.994C191.981 365.84 191.644 365.615 191.36 365.331C191.077 365.048 190.852 364.711 190.698 364.341C190.545 363.97 190.466 363.573 190.466 363.172C190.466 362.362 190.788 361.585 191.36 361.012C191.933 360.439 192.71 360.118 193.52 360.118H375.474C375.875 360.118 376.272 360.197 376.642 360.35C377.013 360.504 377.35 360.729 377.633 361.012C377.917 361.296 378.142 361.632 378.295 362.003C378.449 362.374 378.528 362.771 378.528 363.172C378.528 363.573 378.449 363.97 378.295 364.341C378.142 364.711 377.917 365.048 377.633 365.331C377.35 365.615 377.013 365.84 376.642 365.994C376.272 366.147 375.875 366.226 375.474 366.226Z" fill="white"/>
<g opacity="0.3">
<path d="M336.164 563.309H232.829V392.724H336.164V563.309ZM241.95 554.189H327.044V401.845H241.95V554.189Z" fill="white"/>
<path d="M311.094 421.259H257.899V534.775H311.094V421.259Z" fill="white"/>
</g>
<path d="M355.395 288.343H293.744C290.746 288.343 288.315 290.774 288.315 293.773V337.013C288.315 340.012 290.746 342.442 293.744 342.442H355.395C358.394 342.442 360.824 340.012 360.824 337.013V293.773C360.824 290.774 358.394 288.343 355.395 288.343Z" fill="#407BFF"/>
<path fill-rule="evenodd" clip-rule="evenodd" d="M351.322 309.92C351.322 309.92 371.514 324.442 396.443 304.887C396.443 304.887 373.819 337.168 343.758 321.685L351.322 309.92Z" fill="#407BFF"/>
<path opacity="0.39" d="M355.183 336.772V293.985H293.985V336.772H355.183Z" fill="white"/>
<path fill-rule="evenodd" clip-rule="evenodd" d="M323.58 333.082C322.049 331.733 320.299 330.657 318.404 329.9C315.938 329.046 313.775 327.492 312.178 325.428C310.58 323.364 309.619 320.879 309.411 318.277C309.211 316.23 309.588 314.168 310.5 312.324C310.939 311.448 311.518 310.684 312.013 309.85C312.472 309.072 312.714 308.186 312.714 307.283C312.714 306.381 312.472 305.494 312.013 304.717C311.843 304.448 311.631 304.18 311.476 303.897C311.286 303.589 311.185 303.234 311.185 302.872C311.185 302.51 311.286 302.155 311.476 301.847C311.593 301.671 311.73 301.509 311.886 301.366L313.54 299.754C313.711 299.572 313.906 299.415 314.12 299.287C314.379 299.138 314.668 299.047 314.965 299.02C315.263 298.993 315.563 299.031 315.845 299.132C316.043 299.132 316.227 299.316 316.439 299.386C317.717 299.812 319.089 299.871 320.399 299.556C321.709 299.242 322.904 298.565 323.848 297.605C323.939 297.509 324.049 297.432 324.171 297.38C324.292 297.328 324.423 297.301 324.555 297.301C324.688 297.301 324.818 297.328 324.94 297.38C325.062 297.432 325.171 297.509 325.262 297.605C326.198 298.588 327.396 299.282 328.715 299.603C330.034 299.924 331.417 299.859 332.7 299.415C332.912 299.33 333.096 299.231 333.294 299.16C333.576 299.059 333.876 299.021 334.173 299.048C334.471 299.075 334.76 299.166 335.019 299.316C335.233 299.444 335.428 299.601 335.599 299.782L337.253 301.394C337.408 301.537 337.546 301.699 337.663 301.875C337.853 302.183 337.954 302.538 337.954 302.9C337.954 303.262 337.853 303.617 337.663 303.925C337.508 304.208 337.295 304.477 337.126 304.745C336.667 305.523 336.425 306.409 336.425 307.312C336.425 308.214 336.667 309.101 337.126 309.878C337.607 310.712 338.2 311.476 338.625 312.353C339.537 314.196 339.914 316.258 339.713 318.306C339.506 320.907 338.544 323.392 336.947 325.456C335.35 327.52 333.186 329.074 330.72 329.929C328.847 330.683 327.113 331.744 325.588 333.068C325.456 333.202 325.299 333.309 325.125 333.382C324.951 333.456 324.765 333.493 324.577 333.493C324.388 333.493 324.202 333.456 324.028 333.382C323.854 333.309 323.697 333.202 323.566 333.068L323.58 333.082Z" fill="#407BFF"/>
<path opacity="0.3" fill-rule="evenodd" clip-rule="evenodd" d="M323.58 333.082C322.049 331.733 320.299 330.657 318.404 329.9C315.938 329.046 313.775 327.492 312.178 325.428C310.58 323.364 309.619 320.879 309.411 318.277C309.211 316.23 309.588 314.168 310.5 312.324C310.939 311.448 311.518 310.684 312.013 309.85C312.472 309.072 312.714 308.186 312.714 307.283C312.714 306.381 312.472 305.494 312.013 304.717C311.843 304.448 311.631 304.18 311.476 303.897C311.286 303.589 311.185 303.234 311.185 302.872C311.185 302.51 311.286 302.155 311.476 301.847C311.593 301.671 311.73 301.509 311.886 301.366L313.54 299.754C313.711 299.572 313.906 299.415 314.12 299.287C314.379 299.138 314.668 299.047 314.965 299.02C315.263 298.993 315.563 299.031 315.845 299.132C316.043 299.132 316.227 299.316 316.439 299.386C317.717 299.812 319.089 299.871 320.399 299.556C321.709 299.242 322.904 298.565 323.848 297.605C323.939 297.509 324.049 297.432 324.171 297.38C324.292 297.328 324.423 297.301 324.555 297.301C324.688 297.301 324.818 297.328 324.94 297.38C325.062 297.432 325.171 297.509 325.262 297.605C326.198 298.588 327.396 299.282 328.715 299.603C330.034 299.924 331.417 299.859 332.7 299.415C332.912 299.33 333.096 299.231 333.294 299.16C333.576 299.059 333.876 299.021 334.173 299.048C334.471 299.075 334.76 299.166 335.019 299.316C335.233 299.444 335.428 299.601 335.599 299.782L337.253 301.394C337.408 301.537 337.546 301.699 337.663 301.875C337.853 302.183 337.954 302.538 337.954 302.9C337.954 303.262 337.853 303.617 337.663 303.925C337.508 304.208 337.295 304.477 337.126 304.745C336.667 305.523 336.425 306.409 336.425 307.312C336.425 308.214 336.667 309.101 337.126 309.878C337.607 310.712 338.2 311.476 338.625 312.353C339.537 314.196 339.914 316.258 339.713 318.306C339.506 320.907 338.544 323.392 336.947 325.456C335.35 327.52 333.186 329.074 330.72 329.929C328.847 330.683 327.113 331.744 325.588 333.068C325.456 333.202 325.299 333.309 325.125 333.382C324.951 333.456 324.765 333.493 324.577 333.493C324.388 333.493 324.202 333.456 324.028 333.382C323.854 333.309 323.697 333.202 323.566 333.068L323.58 333.082Z" fill="black"/>
<path opacity="0.3" fill-rule="evenodd" clip-rule="evenodd" d="M324.569 328.048C325.236 327.616 325.925 327.219 326.634 326.86C327.779 326.266 328.995 325.814 330.141 325.22C331.513 324.543 332.702 323.543 333.605 322.307C334.118 321.592 334.514 320.8 334.779 319.96C335.21 318.662 335.322 317.28 335.104 315.93C334.822 314.839 334.343 313.808 333.69 312.89C332.824 311.611 332.232 310.167 331.951 308.648C331.719 307.077 331.884 305.473 332.431 303.982C331.964 304.067 331.492 304.124 331.017 304.151C328.752 304.259 326.502 303.725 324.527 302.61C323.859 302.98 323.158 303.287 322.434 303.529C320.6 304.142 318.647 304.307 316.736 304.01C317.373 305.749 317.486 307.637 317.061 309.44C316.725 310.626 316.205 311.752 315.52 312.777C314.731 313.9 314.217 315.193 314.021 316.552C313.869 318.242 314.218 319.938 315.025 321.43C315.624 322.532 316.448 323.495 317.443 324.258C318.236 324.815 319.084 325.289 319.974 325.672C320.822 326.054 321.685 326.464 322.576 326.917C323.467 327.369 323.99 327.666 324.612 328.09L324.569 328.048Z" fill="black"/>
<path opacity="0.5" fill-rule="evenodd" clip-rule="evenodd" d="M327.412 328.345C327.072 328.515 326.747 328.698 326.422 328.896C325.862 329.23 325.222 329.406 324.569 329.406C323.917 329.406 323.277 329.23 322.717 328.896C322.392 328.713 322.081 328.529 321.741 328.359C320.95 327.949 320.073 327.539 319.21 327.143C318.214 326.724 317.265 326.198 316.382 325.574C315.212 324.665 314.248 323.518 313.554 322.208C313.41 321.953 313.283 321.688 313.173 321.416C312.498 319.849 312.222 318.139 312.367 316.439C312.591 314.841 313.181 313.317 314.092 311.985C314.7 311.117 315.177 310.164 315.506 309.157C315.827 307.802 315.778 306.386 315.364 305.056C315.205 304.565 314.997 304.092 314.742 303.642L314.445 303.105L315.449 302.129L315.93 302.285C317.933 302.884 320.073 302.844 322.053 302.172C322.453 302.035 322.845 301.874 323.226 301.691C323.699 301.468 324.216 301.352 324.739 301.352C325.262 301.352 325.779 301.468 326.252 301.691C327.76 302.408 329.42 302.743 331.088 302.667C332.052 302.598 333.003 302.403 333.916 302.087L334.906 303.063C334.54 303.693 334.232 304.356 333.987 305.042C333.636 306.176 333.545 307.375 333.718 308.549C333.962 309.86 334.483 311.103 335.245 312.197C335.993 313.285 336.53 314.503 336.829 315.789C337.096 317.393 336.97 319.038 336.461 320.582C336.136 321.591 335.659 322.544 335.047 323.41C333.98 324.86 332.584 326.038 330.975 326.846C329.83 327.426 328.614 327.878 327.468 328.472L327.412 328.345Z" fill="black"/>
<path fill-rule="evenodd" clip-rule="evenodd" d="M324.57 310.415C325.778 310.415 326.959 310.774 327.963 311.445C328.968 312.116 329.751 313.07 330.213 314.186C330.675 315.302 330.796 316.531 330.561 317.716C330.325 318.901 329.743 319.989 328.889 320.843C328.035 321.698 326.946 322.279 325.761 322.515C324.576 322.751 323.348 322.63 322.232 322.167C321.116 321.705 320.162 320.922 319.491 319.918C318.819 318.913 318.461 317.732 318.461 316.524C318.461 314.904 319.105 313.35 320.25 312.205C321.396 311.059 322.949 310.415 324.57 310.415Z" fill="#407BFF"/>
<path opacity="0.5" fill-rule="evenodd" clip-rule="evenodd" d="M324.57 310.415C325.778 310.415 326.959 310.774 327.963 311.445C328.968 312.116 329.751 313.07 330.213 314.186C330.675 315.302 330.796 316.531 330.561 317.716C330.325 318.901 329.743 319.989 328.889 320.843C328.035 321.698 326.946 322.279 325.761 322.515C324.576 322.751 323.348 322.63 322.232 322.167C321.116 321.705 320.162 320.922 319.491 319.918C318.819 318.913 318.461 317.732 318.461 316.524C318.461 314.904 319.105 313.35 320.25 312.205C321.396 311.059 322.949 310.415 324.57 310.415Z" fill="black"/>
<path d="M642.493 262.58H572.175C568.755 262.58 565.982 265.353 565.982 268.773V318.093C565.982 321.514 568.755 324.287 572.175 324.287H642.493C645.914 324.287 648.687 321.514 648.687 318.093V268.773C648.687 265.353 645.914 262.58 642.493 262.58Z" fill="#407BFF"/>
<path fill-rule="evenodd" clip-rule="evenodd" d="M577.209 285.048C577.209 285.048 563.338 305.693 533.149 296.035C533.149 296.035 565.6 318.419 588.394 293.447L577.209 285.048Z" fill="#407BFF"/>
<path opacity="0.39" d="M643.045 318.079V268.759C643.045 268.462 642.804 268.222 642.507 268.222H572.175C571.878 268.222 571.638 268.462 571.638 268.759V318.079C571.638 318.376 571.878 318.617 572.175 318.617H642.507C642.804 318.617 643.045 318.376 643.045 318.079Z" fill="white"/>
<path d="M584.321 311.759C583.494 311.558 582.733 311.143 582.117 310.555C581.502 309.966 581.052 309.225 580.815 308.408V308.195L602.251 286.759L605.814 290.323L584.321 311.759Z" fill="#407BFF"/>
<path opacity="0.5" d="M584.321 311.759C583.494 311.558 582.733 311.143 582.117 310.555C581.502 309.966 581.052 309.225 580.815 308.408V308.195L602.251 286.759L605.814 290.323L584.321 311.759Z" fill="black"/>
<path d="M608.314 288.7L603.814 284.2L599.485 288.53L603.984 293.029L608.314 288.7Z" fill="#407BFF"/>
<path opacity="0.7" d="M608.314 288.7L603.814 284.2L599.485 288.53L603.984 293.029L608.314 288.7Z" fill="black"/>
<path d="M618.168 287.878L604.63 274.34L597.481 281.489L611.019 295.027L618.168 287.878Z" fill="#407BFF"/>
<path opacity="0.3" d="M618.168 287.878L604.63 274.34L597.481 281.489L611.019 295.027L618.168 287.878Z" fill="black"/>
<path d="M606.489 274.499L604.369 272.379C603.817 271.827 602.922 271.827 602.37 272.379L595.531 279.218C594.978 279.77 594.978 280.666 595.531 281.218L597.65 283.337C598.202 283.89 599.098 283.89 599.65 283.337L606.489 276.498C607.041 275.946 607.041 275.051 606.489 274.499Z" fill="#407BFF"/>
<path d="M620.124 288.15L618.004 286.03C617.452 285.478 616.557 285.478 616.005 286.03L609.166 292.869C608.613 293.421 608.613 294.317 609.166 294.869L611.285 296.989C611.837 297.541 612.733 297.541 613.285 296.989L620.124 290.15C620.676 289.597 620.676 288.702 620.124 288.15Z" fill="#407BFF"/>
<g opacity="0.5">
<path d="M606.489 274.499L604.369 272.379C603.817 271.827 602.922 271.827 602.37 272.379L595.531 279.218C594.978 279.77 594.978 280.666 595.531 281.218L597.65 283.337C598.202 283.89 599.098 283.89 599.65 283.337L606.489 276.498C607.041 275.946 607.041 275.051 606.489 274.499Z" fill="black"/>
<path d="M620.124 288.15L618.004 286.03C617.452 285.478 616.557 285.478 616.005 286.03L609.166 292.869C608.613 293.421 608.613 294.317 609.166 294.869L611.285 296.989C611.837 297.541 612.733 297.541 613.285 296.989L620.124 290.15C620.676 289.597 620.676 288.702 620.124 288.15Z" fill="black"/>
</g>
<path d="M608.275 301.352H626.402C626.632 301.352 626.86 301.397 627.073 301.485C627.286 301.573 627.479 301.702 627.642 301.865C627.805 302.028 627.934 302.221 628.022 302.434C628.11 302.647 628.155 302.875 628.155 303.105V308.252H606.521V303.077C606.529 302.617 606.717 302.178 607.045 301.855C607.373 301.532 607.814 301.352 608.275 301.352Z" fill="#407BFF"/>
<path opacity="0.3" d="M608.275 301.352H626.402C626.632 301.352 626.86 301.397 627.073 301.485C627.286 301.573 627.479 301.702 627.642 301.865C627.805 302.028 627.934 302.221 628.022 302.434C628.11 302.647 628.155 302.875 628.155 303.105V308.252H606.521V303.077C606.529 302.617 606.717 302.178 607.045 301.855C607.373 301.532 607.814 301.352 608.275 301.352Z" fill="black"/>
<path d="M628.58 307.969H606.069C605.576 307.969 605.103 308.164 604.754 308.511C604.404 308.858 604.206 309.329 604.202 309.822C604.202 310.317 604.399 310.791 604.749 311.141C605.099 311.491 605.574 311.688 606.069 311.688H628.58C629.075 311.688 629.549 311.491 629.899 311.141C630.249 310.791 630.446 310.317 630.446 309.822C630.442 309.329 630.244 308.858 629.894 308.511C629.545 308.164 629.072 307.969 628.58 307.969Z" fill="#407BFF"/>
<path opacity="0.5" d="M628.58 307.969H606.069C605.576 307.969 605.103 308.164 604.754 308.511C604.404 308.858 604.206 309.329 604.202 309.822C604.202 310.317 604.399 310.791 604.749 311.141C605.099 311.491 605.574 311.688 606.069 311.688H628.58C629.075 311.688 629.549 311.491 629.899 311.141C630.249 310.791 630.446 310.317 630.446 309.822C630.442 309.329 630.244 308.858 629.894 308.511C629.545 308.164 629.072 307.969 628.58 307.969Z" fill="black"/>
<path d="M334.835 125.351H239.8C235.177 125.351 231.429 129.099 231.429 133.722V200.364C231.429 204.987 235.177 208.735 239.8 208.735H334.835C339.458 208.735 343.206 204.987 343.206 200.364V133.722C343.206 129.099 339.458 125.351 334.835 125.351Z" fill="#407BFF"/>
<path fill-rule="evenodd" clip-rule="evenodd" d="M326.337 193.039C326.337 193.039 324.018 217.756 353.5 229.421C353.5 229.421 314.205 226.226 312.353 192.474L326.337 193.039Z" fill="#407BFF"/>
<path opacity="0.39" d="M337.55 200.364V133.722C337.55 132.223 336.335 131.007 334.835 131.007H239.8C238.301 131.007 237.085 132.223 237.085 133.722V200.364C237.085 201.863 238.301 203.079 239.8 203.079H334.835C336.335 203.079 337.55 201.863 337.55 200.364Z" fill="white"/>
<path d="M275.306 168.662C274.682 170.284 273.581 171.679 272.149 172.663C270.716 173.647 269.019 174.174 267.281 174.174C265.543 174.174 263.846 173.647 262.414 172.663C260.981 171.679 259.881 170.284 259.257 168.662H275.306Z" fill="#407BFF"/>
<path opacity="0.5" d="M275.306 168.662C274.682 170.284 273.581 171.679 272.149 172.663C270.716 173.647 269.019 174.174 267.281 174.174C265.543 174.174 263.846 173.647 262.414 172.663C260.981 171.679 259.881 170.284 259.257 168.662H275.306Z" fill="black"/>
<path d="M275.306 167.531C275.254 167.53 275.202 167.515 275.158 167.487C275.113 167.46 275.076 167.421 275.051 167.375L267.246 152.542L259.469 167.375C259.433 167.444 259.371 167.496 259.297 167.52C259.223 167.543 259.143 167.537 259.073 167.502C259.004 167.466 258.952 167.405 258.929 167.33C258.905 167.256 258.911 167.176 258.946 167.107L266.977 151.793C267.006 151.749 267.044 151.713 267.09 151.688C267.136 151.663 267.187 151.65 267.239 151.65C267.291 151.65 267.342 151.663 267.388 151.688C267.434 151.713 267.472 151.749 267.501 151.793L275.532 167.107C275.567 167.176 275.573 167.256 275.549 167.33C275.526 167.405 275.474 167.466 275.405 167.502L275.306 167.531Z" fill="#407BFF"/>
<g opacity="0.7">
<path d="M275.306 167.531C275.254 167.53 275.202 167.515 275.158 167.487C275.113 167.46 275.076 167.421 275.051 167.375L267.246 152.542L259.469 167.375C259.433 167.444 259.371 167.496 259.297 167.52C259.223 167.543 259.143 167.537 259.073 167.502C259.004 167.466 258.952 167.405 258.929 167.33C258.905 167.256 258.911 167.176 258.946 167.107L266.977 151.793C267.006 151.749 267.044 151.713 267.09 151.688C267.136 151.663 267.187 151.65 267.239 151.65C267.291 151.65 267.342 151.663 267.388 151.688C267.434 151.713 267.472 151.749 267.501 151.793L275.532 167.107C275.567 167.176 275.573 167.256 275.549 167.33C275.526 167.405 275.474 167.466 275.405 167.502L275.306 167.531Z" fill="black"/>
</g>
<path d="M267.246 168.266C267.208 168.268 267.169 168.262 267.133 168.249C267.098 168.235 267.065 168.215 267.037 168.188C267.009 168.162 266.987 168.13 266.972 168.095C266.957 168.06 266.949 168.022 266.949 167.983V151.92C266.949 151.882 266.957 151.844 266.972 151.809C266.987 151.773 267.009 151.741 267.037 151.715C267.065 151.689 267.098 151.668 267.133 151.655C267.169 151.641 267.208 151.635 267.246 151.637C267.321 151.637 267.393 151.667 267.446 151.72C267.499 151.773 267.529 151.845 267.529 151.92V167.955C267.533 167.994 267.528 168.034 267.516 168.072C267.504 168.109 267.483 168.144 267.457 168.173C267.43 168.203 267.398 168.226 267.361 168.242C267.325 168.258 267.286 168.266 267.246 168.266Z" fill="#407BFF"/>
<g opacity="0.7">
<path d="M267.246 168.266C267.208 168.268 267.169 168.262 267.133 168.249C267.098 168.235 267.065 168.215 267.037 168.188C267.009 168.162 266.987 168.13 266.972 168.095C266.957 168.06 266.949 168.022 266.949 167.983V151.92C266.949 151.882 266.957 151.844 266.972 151.809C266.987 151.773 267.009 151.741 267.037 151.715C267.065 151.689 267.098 151.668 267.133 151.655C267.169 151.641 267.208 151.635 267.246 151.637C267.321 151.637 267.393 151.667 267.446 151.72C267.499 151.773 267.529 151.845 267.529 151.92V167.955C267.533 167.994 267.528 168.034 267.516 168.072C267.504 168.109 267.483 168.144 267.457 168.173C267.43 168.203 267.398 168.226 267.361 168.242C267.325 168.258 267.286 168.266 267.246 168.266Z" fill="black"/>
</g>
<path d="M276.465 167.234H258.112V168.662H276.465V167.234Z" fill="#407BFF"/>
<path opacity="0.3" d="M276.465 167.234H258.112V168.662H276.465V167.234Z" fill="black"/>
<path d="M315.039 168.662C314.412 170.283 313.31 171.676 311.876 172.659C310.443 173.641 308.746 174.167 307.008 174.167C305.27 174.167 303.573 173.641 302.139 172.659C300.706 171.676 299.603 170.283 298.976 168.662H315.039Z" fill="#407BFF"/>
<path opacity="0.5" d="M315.039 168.662C314.412 170.283 313.31 171.676 311.876 172.659C310.443 173.641 308.746 174.167 307.008 174.167C305.27 174.167 303.573 173.641 302.139 172.659C300.706 171.676 299.603 170.283 298.976 168.662H315.039Z" fill="black"/>
<path d="M315.039 167.531C314.986 167.533 314.934 167.519 314.888 167.492C314.843 167.464 314.807 167.423 314.785 167.375L307.008 152.542L299.231 167.375C299.213 167.409 299.189 167.438 299.16 167.462C299.131 167.486 299.097 167.505 299.061 167.516C299.025 167.527 298.987 167.531 298.95 167.527C298.912 167.524 298.875 167.513 298.842 167.495C298.809 167.478 298.779 167.454 298.755 167.425C298.731 167.396 298.712 167.362 298.701 167.326C298.69 167.29 298.686 167.252 298.69 167.214C298.693 167.177 298.704 167.14 298.722 167.107L306.753 151.793C306.78 151.749 306.817 151.713 306.862 151.687C306.906 151.662 306.957 151.649 307.008 151.649C307.059 151.649 307.109 151.662 307.154 151.687C307.199 151.713 307.236 151.749 307.262 151.793L315.322 167.107C315.357 167.176 315.363 167.256 315.339 167.33C315.316 167.405 315.264 167.466 315.195 167.502L315.039 167.531Z" fill="#407BFF"/>
<g opacity="0.7">
<path d="M315.039 167.531C314.986 167.533 314.934 167.519 314.888 167.492C314.843 167.464 314.807 167.423 314.785 167.375L307.008 152.542L299.231 167.375C299.213 167.409 299.189 167.438 299.16 167.462C299.131 167.486 299.097 167.505 299.061 167.516C299.025 167.527 298.987 167.531 298.95 167.527C298.912 167.524 298.875 167.513 298.842 167.495C298.809 167.478 298.779 167.454 298.755 167.425C298.731 167.396 298.712 167.362 298.701 167.326C298.69 167.29 298.686 167.252 298.69 167.214C298.693 167.177 298.704 167.14 298.722 167.107L306.753 151.793C306.78 151.749 306.817 151.713 306.862 151.687C306.906 151.662 306.957 151.649 307.008 151.649C307.059 151.649 307.109 151.662 307.154 151.687C307.199 151.713 307.236 151.749 307.262 151.793L315.322 167.107C315.357 167.176 315.363 167.256 315.339 167.33C315.316 167.405 315.264 167.466 315.195 167.502L315.039 167.531Z" fill="black"/>
</g>
<path d="M307.008 168.266C306.931 168.266 306.858 168.237 306.803 168.184C306.747 168.131 306.714 168.059 306.711 167.983V151.92C306.714 151.844 306.747 151.772 306.803 151.719C306.858 151.667 306.931 151.637 307.008 151.637C307.083 151.637 307.155 151.667 307.208 151.72C307.261 151.773 307.291 151.845 307.291 151.92V167.955C307.295 167.994 307.29 168.034 307.278 168.072C307.265 168.109 307.245 168.144 307.218 168.173C307.192 168.203 307.159 168.226 307.123 168.242C307.087 168.258 307.047 168.266 307.008 168.266Z" fill="#407BFF"/>
<g opacity="0.7">
<path d="M307.008 168.266C306.931 168.266 306.858 168.237 306.803 168.184C306.747 168.131 306.714 168.059 306.711 167.983V151.92C306.714 151.844 306.747 151.772 306.803 151.719C306.858 151.667 306.931 151.637 307.008 151.637C307.083 151.637 307.155 151.667 307.208 151.72C307.261 151.773 307.291 151.845 307.291 151.92V167.955C307.295 167.994 307.29 168.034 307.278 168.072C307.265 168.109 307.245 168.144 307.218 168.173C307.192 168.203 307.159 168.226 307.123 168.242C307.087 168.258 307.047 168.266 307.008 168.266Z" fill="black"/>
</g>
<path d="M316.185 167.234H297.831V168.662H316.185V167.234Z" fill="#407BFF"/>
<path opacity="0.3" d="M316.185 167.234H297.831V168.662H316.185V167.234Z" fill="black"/>
<path d="M287.042 147.056V150.011C284.044 150.011 280.651 151.708 277.95 153.207C276.186 154.168 274.186 154.61 272.181 154.479C269.778 154.106 267.493 153.182 265.507 151.779V150.124C267.427 151.494 269.698 152.289 272.054 152.415C274.194 152.303 276.251 151.544 277.95 150.237C280.67 148.439 283.794 147.346 287.042 147.056Z" fill="#407BFF"/>
<path opacity="0.3" d="M287.042 147.056V150.011C284.044 150.011 280.651 151.708 277.95 153.207C276.186 154.168 274.186 154.61 272.181 154.479C269.778 154.106 267.493 153.182 265.507 151.779V150.124C267.427 151.494 269.698 152.289 272.054 152.415C274.194 152.303 276.251 151.544 277.95 150.237C280.67 148.439 283.794 147.346 287.042 147.056Z" fill="black"/>
<path d="M267.246 150.775C267.246 151.11 267.146 151.438 266.96 151.717C266.774 151.997 266.509 152.214 266.199 152.342C265.888 152.471 265.547 152.504 265.218 152.439C264.889 152.374 264.587 152.212 264.349 151.975C264.112 151.737 263.95 151.435 263.885 151.106C263.82 150.777 263.853 150.436 263.982 150.125C264.11 149.815 264.327 149.55 264.607 149.364C264.886 149.178 265.214 149.078 265.549 149.078C265.773 149.076 265.994 149.119 266.201 149.203C266.407 149.288 266.595 149.413 266.753 149.571C266.911 149.729 267.036 149.917 267.121 150.123C267.205 150.33 267.248 150.551 267.246 150.775Z" fill="#407BFF"/>
<path opacity="0.5" d="M267.246 150.775C267.246 151.11 267.146 151.438 266.96 151.717C266.774 151.997 266.509 152.214 266.199 152.342C265.888 152.471 265.547 152.504 265.218 152.439C264.889 152.374 264.587 152.212 264.349 151.975C264.112 151.737 263.95 151.435 263.885 151.106C263.82 150.777 263.853 150.436 263.982 150.125C264.11 149.815 264.327 149.55 264.607 149.364C264.886 149.178 265.214 149.078 265.549 149.078C265.773 149.076 265.994 149.119 266.201 149.203C266.407 149.288 266.595 149.413 266.753 149.571C266.911 149.729 267.036 149.917 267.121 150.123C267.205 150.33 267.248 150.551 267.246 150.775Z" fill="black"/>
<path d="M287.042 147.056V150.011C290.04 150.011 293.433 151.708 296.148 153.207C297.912 154.17 299.913 154.611 301.917 154.479C304.319 154.101 306.602 153.177 308.591 151.779V150.124C306.665 151.493 304.39 152.287 302.031 152.415C299.894 152.303 297.842 151.544 296.148 150.237C293.422 148.442 290.293 147.349 287.042 147.056Z" fill="#407BFF"/>
<path opacity="0.3" d="M287.042 147.056V150.011C290.04 150.011 293.433 151.708 296.148 153.207C297.912 154.17 299.913 154.611 301.917 154.479C304.319 154.101 306.602 153.177 308.591 151.779V150.124C306.665 151.493 304.39 152.287 302.031 152.415C299.894 152.303 297.842 151.544 296.148 150.237C293.422 148.442 290.293 147.349 287.042 147.056Z" fill="black"/>
<path d="M307.008 150.775C307.011 151.107 307.112 151.431 307.298 151.706C307.485 151.981 307.749 152.194 308.056 152.319C308.364 152.444 308.702 152.476 309.027 152.409C309.353 152.343 309.651 152.181 309.885 151.946C310.119 151.71 310.278 151.41 310.342 151.084C310.405 150.758 310.371 150.42 310.244 150.114C310.116 149.807 309.9 149.545 309.624 149.361C309.347 149.176 309.023 149.078 308.69 149.078C308.468 149.078 308.248 149.122 308.043 149.207C307.838 149.293 307.652 149.418 307.496 149.576C307.339 149.734 307.215 149.921 307.132 150.127C307.048 150.332 307.006 150.553 307.008 150.775Z" fill="#407BFF"/>
<path opacity="0.5" d="M307.008 150.775C307.011 151.107 307.112 151.431 307.298 151.706C307.485 151.981 307.749 152.194 308.056 152.319C308.364 152.444 308.702 152.476 309.027 152.409C309.353 152.343 309.651 152.181 309.885 151.946C310.119 151.71 310.278 151.41 310.342 151.084C310.405 150.758 310.371 150.42 310.244 150.114C310.116 149.807 309.9 149.545 309.624 149.361C309.347 149.176 309.023 149.078 308.69 149.078C308.468 149.078 308.248 149.122 308.043 149.207C307.838 149.293 307.652 149.418 307.496 149.576C307.339 149.734 307.215 149.921 307.132 150.127C307.048 150.332 307.006 150.553 307.008 150.775Z" fill="black"/>
<path d="M289.205 141.909H284.921V185.743H289.205V141.909Z" fill="#407BFF"/>
<path opacity="0.7" d="M289.205 141.909H284.921V185.743H289.205V141.909Z" fill="black"/>
<path d="M290.69 149.064C290.69 149.783 290.477 150.485 290.078 151.083C289.678 151.68 289.111 152.146 288.447 152.421C287.783 152.696 287.052 152.768 286.347 152.628C285.642 152.488 284.995 152.142 284.487 151.633C283.978 151.125 283.632 150.478 283.492 149.773C283.352 149.068 283.424 148.337 283.699 147.673C283.974 147.009 284.44 146.442 285.037 146.042C285.635 145.643 286.337 145.43 287.056 145.43C287.534 145.428 288.007 145.521 288.449 145.703C288.891 145.885 289.292 146.152 289.63 146.49C289.968 146.828 290.235 147.229 290.417 147.671C290.599 148.113 290.692 148.586 290.69 149.064Z" fill="#407BFF"/>
<path opacity="0.5" d="M290.69 149.064C290.69 149.783 290.477 150.485 290.078 151.083C289.678 151.68 289.111 152.146 288.447 152.421C287.783 152.696 287.052 152.768 286.347 152.628C285.642 152.488 284.995 152.142 284.487 151.633C283.978 151.125 283.632 150.478 283.492 149.773C283.352 149.068 283.424 148.337 283.699 147.673C283.974 147.009 284.44 146.442 285.037 146.042C285.635 145.643 286.337 145.43 287.056 145.43C287.534 145.428 288.007 145.521 288.449 145.703C288.891 145.885 289.292 146.152 289.63 146.49C289.968 146.828 290.235 147.229 290.417 147.671C290.599 148.113 290.692 148.586 290.69 149.064Z" fill="black"/>
<path d="M289.87 139.35C289.87 139.909 289.704 140.456 289.393 140.921C289.083 141.386 288.641 141.748 288.124 141.962C287.608 142.176 287.039 142.232 286.49 142.123C285.942 142.014 285.438 141.745 285.042 141.349C284.647 140.954 284.378 140.45 284.268 139.901C284.159 139.353 284.215 138.784 284.429 138.267C284.643 137.751 285.006 137.309 285.471 136.998C285.936 136.688 286.483 136.522 287.042 136.522C287.792 136.522 288.511 136.82 289.042 137.35C289.572 137.88 289.87 138.6 289.87 139.35Z" fill="#407BFF"/>
<path opacity="0.5" d="M289.87 139.35C289.87 139.909 289.704 140.456 289.393 140.921C289.083 141.386 288.641 141.748 288.124 141.962C287.608 142.176 287.039 142.232 286.49 142.123C285.942 142.014 285.438 141.745 285.042 141.349C284.647 140.954 284.378 140.45 284.268 139.901C284.159 139.353 284.215 138.784 284.429 138.267C284.643 137.751 285.006 137.309 285.471 136.998C285.936 136.688 286.483 136.522 287.042 136.522C287.792 136.522 288.511 136.82 289.042 137.35C289.572 137.88 289.87 138.6 289.87 139.35Z" fill="black"/>
<path d="M298.807 192.304H275.306V187.171C275.306 186.796 275.455 186.436 275.72 186.171C275.985 185.906 276.345 185.757 276.72 185.757H297.393C297.768 185.757 298.127 185.906 298.392 186.171C298.658 186.436 298.807 186.796 298.807 187.171V192.304Z" fill="#407BFF"/>
<path opacity="0.3" d="M298.807 192.304H275.306V187.171C275.306 186.796 275.455 186.436 275.72 186.171C275.985 185.906 276.345 185.757 276.72 185.757H297.393C297.768 185.757 298.127 185.906 298.392 186.171C298.658 186.436 298.807 186.796 298.807 187.171V192.304Z" fill="black"/>
<path d="M305.947 197.154H268.179C267.534 197.154 266.916 196.898 266.46 196.442C266.003 195.986 265.747 195.367 265.747 194.722C265.747 194.077 266.003 193.458 266.46 193.002C266.916 192.546 267.534 192.29 268.179 192.29H305.947C306.592 192.29 307.211 192.546 307.667 193.002C308.123 193.458 308.379 194.077 308.379 194.722C308.379 195.367 308.123 195.986 307.667 196.442C307.211 196.898 306.592 197.154 305.947 197.154Z" fill="#407BFF"/>
<path opacity="0.5" d="M305.947 197.154H268.179C267.534 197.154 266.916 196.898 266.46 196.442C266.003 195.986 265.747 195.367 265.747 194.722C265.747 194.077 266.003 193.458 266.46 193.002C266.916 192.546 267.534 192.29 268.179 192.29H305.947C306.592 192.29 307.211 192.546 307.667 193.002C308.123 193.458 308.379 194.077 308.379 194.722C308.379 195.367 308.123 195.986 307.667 196.442C307.211 196.898 306.592 197.154 305.947 197.154Z" fill="black"/>
<path d="M298.807 187.426H275.306V189.024H298.807V187.426Z" fill="#407BFF"/>
<path opacity="0.5" d="M298.807 187.426H275.306V189.024H298.807V187.426Z" fill="black"/>
<path d="M290.28 142.121C290.28 142.434 290.157 142.734 289.937 142.956C289.718 143.178 289.419 143.305 289.107 143.309H285.02C284.706 143.305 284.406 143.179 284.184 142.957C283.962 142.735 283.836 142.435 283.832 142.121C283.836 141.809 283.963 141.51 284.185 141.29C284.407 141.071 284.707 140.947 285.02 140.948H289.107C289.418 140.948 289.716 141.071 289.936 141.291C290.156 141.511 290.28 141.81 290.28 142.121Z" fill="#407BFF"/>
<path opacity="0.3" d="M290.28 142.121C290.28 142.434 290.157 142.734 289.937 142.956C289.718 143.178 289.419 143.305 289.107 143.309H285.02C284.706 143.305 284.406 143.179 284.184 142.957C283.962 142.735 283.836 142.435 283.832 142.121C283.836 141.809 283.963 141.51 284.185 141.29C284.407 141.071 284.707 140.947 285.02 140.948H289.107C289.418 140.948 289.716 141.071 289.936 141.291C290.156 141.511 290.28 141.81 290.28 142.121Z" fill="black"/>
<path d="M621.835 125.351H539.95C535.967 125.351 532.739 128.58 532.739 132.563V189.985C532.739 193.968 535.967 197.196 539.95 197.196H621.835C625.818 197.196 629.046 193.968 629.046 189.985V132.563C629.046 128.58 625.818 125.351 621.835 125.351Z" fill="#407BFF"/>
<path fill-rule="evenodd" clip-rule="evenodd" d="M551.997 186.648C551.997 186.648 554.331 211.421 524.834 223.03C524.834 223.03 564.129 219.835 565.982 186.082L551.997 186.648Z" fill="#407BFF"/>
<path opacity="0.39" d="M623.39 189.999V132.577C623.39 131.718 622.694 131.021 621.835 131.021H539.95C539.091 131.021 538.395 131.718 538.395 132.577V189.999C538.395 190.858 539.091 191.555 539.95 191.555H621.835C622.694 191.555 623.39 190.858 623.39 189.999Z" fill="white"/>
<path d="M597.274 137.158C597.737 137.158 598.196 137.25 598.624 137.427C599.052 137.605 599.441 137.866 599.768 138.194C600.095 138.523 600.354 138.912 600.53 139.341C600.707 139.77 600.796 140.229 600.794 140.693V142.39H591.165L597.274 137.158Z" fill="#407BFF"/>
<path opacity="0.7" d="M597.274 137.158C597.737 137.158 598.196 137.25 598.624 137.427C599.052 137.605 599.441 137.866 599.768 138.194C600.095 138.523 600.354 138.912 600.53 139.341C600.707 139.77 600.796 140.229 600.794 140.693V142.39H591.165L597.274 137.158Z" fill="black"/>
<path d="M598.815 183.82C605.758 170.048 591.858 149.785 597.274 137.158H567.763C566.411 137.16 565.108 137.67 564.113 138.586C563.118 139.503 562.504 140.759 562.39 142.107C561.245 154.932 571.751 172.579 564.624 184.697H597.245C597.562 184.707 597.876 184.631 598.152 184.477C598.429 184.322 598.658 184.095 598.815 183.82Z" fill="#407BFF"/>
<path opacity="0.3" d="M598.815 183.82C605.758 170.048 591.858 149.785 597.274 137.158H567.763C566.411 137.16 565.108 137.67 564.113 138.586C563.118 139.503 562.504 140.759 562.39 142.107C561.245 154.932 571.751 172.579 564.624 184.697H597.245C597.562 184.707 597.876 184.631 598.152 184.477C598.429 184.322 598.658 184.095 598.815 183.82Z" fill="black"/>
<path d="M564.624 184.711C563.803 184.711 563.016 184.385 562.435 183.804C561.854 183.223 561.528 182.435 561.528 181.614V180.455H594.318V181.614C594.318 182.435 594.645 183.223 595.226 183.804C595.806 184.385 596.594 184.711 597.415 184.711H564.624Z" fill="#407BFF"/>
<path opacity="0.5" d="M564.624 184.711C563.803 184.711 563.016 184.385 562.435 183.804C561.854 183.223 561.528 182.435 561.528 181.614V180.455H594.318V181.614C594.318 182.435 594.645 183.223 595.226 183.804C595.806 184.385 596.594 184.711 597.415 184.711H564.624Z" fill="black"/>
<path opacity="0.3" d="M590.161 143.733H566.929V145.67H590.161V143.733Z" fill="black"/>
<path opacity="0.3" d="M591.25 150.577H568.018V152.514H591.25V150.577Z" fill="black"/>
<path opacity="0.3" d="M592.508 155.752H569.276V157.689H592.508V155.752Z" fill="black"/>
<path opacity="0.3" d="M593.753 160.941H570.521V162.879H593.753V160.941Z" fill="black"/>
<path opacity="0.3" d="M591.165 176.397C593.141 176.397 594.742 174.795 594.742 172.819C594.742 170.843 593.141 169.242 591.165 169.242C589.189 169.242 587.588 170.843 587.588 172.819C587.588 174.795 589.189 176.397 591.165 176.397Z" fill="black"/>
</svg>
