<svg xmlns="http://www.w3.org/2000/svg" viewBox="0 0 512 512"><title>Profile_Female</title><g id="Profile_Female" data-name="Profile Female"><g id="Profile_Female-2" data-name="Profile Female"><path d="M256,73.8247c-100.6128,0-182.18,81.5625-182.18,182.1708A182.1851,182.1851,0,0,0,256,438.1753c100.6083,0,182.18-81.5706,182.18-182.18S356.6083,73.8247,256,73.8247Zm.5535,268.12h-78.93c0-56.91,49.9788-56.9007,61.07-71.7723l1.9476-10.3887a38.9229,38.9229,0,0,1-9.0576-6.6789c-20.65-2.7954-44.2395-7.1982-44.2395-7.1982,50.0931-23.6079-4.8384-96.2145,68.427-99.1143v-.027c.0747,0,.1494.009.22.009.0792,0,.1494-.009.2286-.009v.027c73.2654,2.9,18.3249,75.5064,68.4234,99.1143,0,0-23.5818,4.4028-44.2359,7.1982a38.9044,38.9044,0,0,1-8.6481,6.4512l2.1222,11.3553c12.1734,14.1588,60.4908,15.0822,60.4908,71.0334Z"/></g></g></svg>