<svg width="700" height="700" viewBox="0 0 700 700" fill="none" xmlns="http://www.w3.org/2000/svg">
<path d="M668.752 387.324C668.752 387.324 668.654 190.022 562.982 95.7879C469.7 12.5999 341.278 -4.29811 255.038 91.8959C224.308 126.168 187.152 161.896 148.554 185.836C105.294 212.688 54.7541 224.952 25.2561 313.852C-4.24193 402.752 41.4121 533.134 108.304 579.292C175.196 625.45 280.014 608.3 370.104 588.994C460.194 569.688 660.898 632.156 668.752 387.324Z" fill="#0062B8"/>
<path opacity="0.7" d="M668.752 387.324C668.752 387.324 668.654 190.022 562.982 95.7879C469.7 12.5999 341.278 -4.29811 255.038 91.8959C224.308 126.168 187.152 161.896 148.554 185.836C105.294 212.688 54.7541 224.952 25.2561 313.852C-4.24193 402.752 41.4121 533.134 108.304 579.292C175.196 625.45 280.014 608.3 370.104 588.994C460.194 569.688 660.898 632.156 668.752 387.324Z" fill="white"/>
<path opacity="0.16" d="M347.564 668.934C466.165 668.934 562.31 657.206 562.31 642.74C562.31 628.273 466.165 616.546 347.564 616.546C228.963 616.546 132.818 628.273 132.818 642.74C132.818 657.206 228.963 668.934 347.564 668.934Z" fill="black"/>
<path opacity="0.07" d="M562.982 95.7741C548.31 82.6407 532.391 70.9701 515.452 60.9281L375.704 270.928L565.6 98.1821C564.746 97.3701 563.878 96.6001 562.982 95.7741ZM437.92 30.5341C416.129 25.9963 393.732 25.1398 371.658 28.0001L375.704 270.914L437.92 30.5341ZM291.452 59.4441C278.105 68.8175 265.89 79.7076 255.052 91.8961C251.263 96.1428 247.366 100.399 243.362 104.664L375.718 270.942L291.452 59.4441ZM176.806 166.152C167.731 173.184 158.306 179.754 148.568 185.836C127.61 198.8 105 208.418 83.7901 224.952L375.704 270.942L176.806 166.152ZM16.6461 359.534C14.0841 397.432 21.2661 438.452 35.1681 475.552L375.704 270.942L16.6461 359.534ZM375.704 270.942L132.594 592.704C167.958 608.104 210.476 610.904 254.534 607.516L375.704 270.942ZM375.704 270.942L387.268 586.334C412.258 583.66 442.778 584.486 474.39 583.128L375.704 270.942ZM648.62 489.482L375.704 270.942L588.196 557.396C612.934 543.55 634.2 522.284 648.62 489.482ZM660.17 301L375.704 270.942L668.486 376.964C667.318 351.493 664.541 326.121 660.17 301ZM614.096 161.448L375.704 270.942L639.114 218.19C632.381 198.608 624.012 179.627 614.096 161.448Z" fill="black"/>
<path d="M622.44 469.392C622.44 469.392 607.334 464.282 602.84 461.16C598.346 458.038 586.852 446.502 584.178 437.612C581.871 429.406 580.338 421.002 579.6 412.51C578.928 405.622 576.044 403.844 571.816 409.178C567.588 414.512 566.216 423.178 567.378 428.778C568.54 434.378 572.04 440.776 571.578 441.896C571.116 443.016 570.458 445.228 570.458 445.228C570.458 445.228 556.906 443.674 549.36 441.896C541.814 440.118 535.808 439.446 535.36 443.002C534.912 446.558 536.466 452.116 536.914 455.896C537.362 459.676 543.13 476.336 546.028 480.102C548.082 483.033 550.463 485.72 553.126 488.11C554.904 489.44 554.904 490.546 559.132 490.994C562.714 491.315 566.275 491.834 569.8 492.548C571.354 492.996 572.908 494.55 580.244 494.326C584.854 494.167 589.451 493.723 594.006 492.996L616 501.2L622.44 469.392Z" fill="white" stroke="#263238" stroke-width="0.75" stroke-miterlimit="10"/>
<path d="M615.328 465.164L606.214 504.714L621.11 510.706L628.656 469.616L615.328 465.164Z" fill="white" stroke="#263238" stroke-width="0.75" stroke-miterlimit="10"/>
<path d="M652.848 472.724L623.77 465.612L613.102 512.708L652.68 531.174L652.848 527.604V472.724Z" fill="#263238" stroke="#263238" stroke-width="0.75" stroke-miterlimit="10"/>
<path d="M569.562 447.174C569.562 447.174 567.56 459.2 567.56 462C567.56 464.8 573.776 472.668 575.96 473.102" stroke="#263238" stroke-width="0.75" stroke-miterlimit="10"/>
<path d="M565.11 477.4C565.11 477.4 568.232 478.506 567.336 481.18C566.44 483.854 559.776 487.62 556.668 489.398C553.56 491.176 552.468 490.952 548.898 488.95C546.8 487.79 545.212 485.887 544.446 483.616C546.685 483.56 548.917 483.34 551.124 482.958L565.11 477.4Z" fill="white" stroke="#263238" stroke-width="0.75" stroke-miterlimit="10"/>
<path d="M539.56 471.604C539.56 471.604 539.56 481.824 542.01 482.72C544.35 483.623 546.839 484.074 549.346 484.05C550.9 483.826 561.344 480.27 563.346 478.94C565.348 477.61 567.35 474.74 566.244 472.052L565.124 469.392C561.748 469.97 558.329 470.265 554.904 470.274C549.304 470.274 540.022 468.496 539.35 469.168C538.678 469.84 539.56 471.604 539.56 471.604Z" fill="white" stroke="#263238" stroke-width="0.75" stroke-miterlimit="10"/>
<path d="M536.2 457.8C535.756 458.083 535.398 458.481 535.164 458.953C534.93 459.424 534.828 459.95 534.87 460.474C534.87 462.476 532.21 468.468 535.318 470.47C538.426 472.472 548.198 474.026 550.2 474.026C552.202 474.026 563.976 469.826 565.082 469.364C566.188 468.902 566.202 464.912 565.754 463.358C565.306 461.804 561.316 461.356 561.316 461.356C561.316 461.356 544.236 460.95 536.2 457.8Z" fill="white" stroke="#263238" stroke-width="0.75" stroke-miterlimit="10"/>
<path d="M542.01 444.276C542.01 444.276 549.122 449.61 550.41 450.058L561.302 453.838C561.302 453.838 562.702 454.496 562.702 457.17C562.678 458.322 562.24 459.426 561.469 460.282C560.698 461.138 559.645 461.688 558.502 461.832C556.29 462.28 548.282 463.61 545.398 462.504C541.466 460.56 537.681 458.333 534.072 455.84C532.07 454.44 531.846 452.718 532.952 450.24C533.914 447.846 534.732 445.396 535.402 442.904" fill="white"/>
<path d="M542.01 444.276C542.01 444.276 549.122 449.61 550.41 450.058L561.302 453.838C561.302 453.838 562.702 454.496 562.702 457.17C562.678 458.322 562.24 459.426 561.469 460.282C560.698 461.138 559.645 461.688 558.502 461.832C556.29 462.28 548.282 463.61 545.398 462.504C541.466 460.56 537.681 458.333 534.072 455.84C532.07 454.44 531.846 452.718 532.952 450.24C533.914 447.846 534.732 445.396 535.402 442.904" stroke="#263238" stroke-width="0.75" stroke-miterlimit="10"/>
<path d="M578.2 125.832C578.2 125.832 562.926 130.466 557.508 130.522C552.09 130.578 535.962 127.904 528.626 122.22C521.951 116.913 515.792 110.988 510.23 104.524C505.68 99.3021 502.292 99.5401 501.956 106.33C501.62 113.12 505.582 120.946 509.726 124.824C513.87 128.702 520.492 131.824 520.786 133.028C521.08 134.232 521.822 136.388 521.822 136.388C521.822 136.388 509.894 143.01 502.712 145.95C495.53 148.89 490.266 151.858 491.974 155.008C493.682 158.158 498.176 161.77 500.738 164.584C503.3 167.398 517.692 177.576 522.242 178.976C525.618 180.155 529.117 180.949 532.672 181.342C534.898 181.342 535.472 182.294 539.238 180.208C542.331 178.376 545.529 176.726 548.814 175.266C550.34 174.72 552.51 175.084 558.334 170.632C561.996 167.818 565.479 164.779 568.764 161.532L591.444 155.414L578.2 125.832Z" fill="white" stroke="#263238" stroke-width="0.75" stroke-miterlimit="10"/>
<path d="M569.94 126.532L585.55 163.996L601.146 160.216L583.366 122.388L569.94 126.532Z" fill="white" stroke="#263238" stroke-width="0.75" stroke-miterlimit="10"/>
<path d="M604.856 110.852L577.066 121.982L595.798 166.488L638.722 158.48L636.79 155.484L604.856 110.852Z" fill="#263238" stroke="#263238" stroke-width="0.75" stroke-miterlimit="10"/>
<path d="M522.2 138.6C522.2 138.6 527.562 149.52 529.2 151.872C530.838 154.224 540.4 156.926 542.528 155.988" stroke="#263238" stroke-width="0.75" stroke-miterlimit="10"/>
<path d="M536.2 165.69C536.2 165.69 539.378 164.78 540.204 167.468C541.03 170.156 537.81 177.1 536.312 180.362C534.814 183.624 533.792 184.086 529.732 184.562C527.352 184.844 524.952 184.219 523.012 182.812C524.801 181.467 526.486 179.988 528.052 178.388L536.2 165.69Z" fill="white" stroke="#263238" stroke-width="0.75" stroke-miterlimit="10"/>
<path d="M512.078 175.854C512.078 175.854 518.014 184.17 520.478 183.47C522.906 182.841 525.195 181.763 527.226 180.292C528.36 179.2 534.786 170.24 535.626 167.986C536.466 165.732 536.424 162.232 533.974 160.706L531.524 159.18C529.114 161.618 526.506 163.852 523.726 165.858C519.204 169.078 510.58 173.068 510.426 173.992C510.272 174.916 512.078 175.854 512.078 175.854Z" fill="white" stroke="#263238" stroke-width="0.75" stroke-miterlimit="10"/>
<path d="M501.34 166.6C501.146 167.09 501.088 167.623 501.172 168.142C501.256 168.662 501.478 169.15 501.816 169.554C502.978 171.178 504.294 177.604 507.99 177.422C511.686 177.24 520.59 172.816 522.172 171.654C523.754 170.492 530.908 160.202 531.566 159.194C532.224 158.186 529.872 154.994 528.612 153.93C527.352 152.866 523.838 154.896 523.838 154.896C523.838 154.896 509.6 164.472 501.34 166.6Z" fill="white" stroke="#263238" stroke-width="0.75" stroke-miterlimit="10"/>
<path d="M498.162 152.208C498.162 152.208 507.038 152.404 508.382 151.998C509.726 151.592 519.442 148.736 519.442 148.736C519.442 148.736 520.912 148.498 522.466 150.668C523.121 151.62 523.409 152.778 523.275 153.927C523.141 155.075 522.595 156.136 521.738 156.912C520.198 158.578 514.472 164.304 511.476 165.088C507.142 165.794 502.762 166.187 498.372 166.264C495.978 166.264 494.76 165.018 494.172 162.386C493.557 159.884 492.795 157.42 491.89 155.008" fill="white"/>
<path d="M498.162 152.208C498.162 152.208 507.038 152.404 508.382 151.998C509.726 151.592 519.442 148.736 519.442 148.736C519.442 148.736 520.912 148.498 522.466 150.668C523.121 151.62 523.409 152.778 523.275 153.927C523.141 155.075 522.595 156.136 521.738 156.912C520.198 158.578 514.472 164.304 511.476 165.088C507.142 165.794 502.762 166.187 498.372 166.264C495.978 166.264 494.76 165.018 494.172 162.386C493.557 159.884 492.795 157.42 491.89 155.008" stroke="#263238" stroke-width="0.75" stroke-miterlimit="10"/>
<path d="M89.376 464.366C89.376 464.366 104.482 459.256 108.976 456.148C113.47 453.04 124.922 441.476 127.582 432.6C129.929 424.399 131.495 415.994 132.258 407.498C132.916 400.61 135.814 398.832 140.028 404.166C144.242 409.5 145.628 418.166 144.466 423.766C143.304 429.366 139.804 435.764 140.266 436.87C140.728 437.976 141.372 440.202 141.372 440.202C141.372 440.202 154.924 438.648 162.484 436.87C170.044 435.092 176.036 434.42 176.484 437.976C176.932 441.532 175.364 447.09 174.93 450.87C174.496 454.65 168.7 471.31 165.816 475.09C163.759 478.018 161.373 480.7 158.704 483.084C156.926 484.484 156.926 485.534 152.712 485.968C149.131 486.295 145.57 486.814 142.044 487.522C140.49 487.97 138.936 489.524 131.6 489.3C126.985 489.142 122.384 488.698 117.824 487.97L95.83 496.188L89.376 464.366Z" fill="white" stroke="#263238" stroke-width="0.75" stroke-miterlimit="10"/>
<path d="M96.488 460.138L105.588 499.688L90.706 505.694L83.146 464.59L96.488 460.138Z" fill="white" stroke="#263238" stroke-width="0.75" stroke-miterlimit="10"/>
<path d="M58.9541 467.698L88.0321 460.586L98.7001 507.682L59.1361 526.148L58.9541 522.578V467.698Z" fill="#263238" stroke="#263238" stroke-width="0.75" stroke-miterlimit="10"/>
<path d="M142.254 442.148C142.254 442.148 144.256 454.146 144.256 457.03C144.256 459.914 138.026 467.698 135.856 468.146" stroke="#263238" stroke-width="0.75" stroke-miterlimit="10"/>
<path d="M146.692 472.36C146.692 472.36 143.584 473.48 144.466 476.14C145.348 478.8 152.026 482.58 155.134 484.358C158.242 486.136 159.334 485.912 162.918 483.91C165.015 482.759 166.6 480.859 167.356 478.59C165.121 478.536 162.893 478.311 160.692 477.918L146.692 472.36Z" fill="white" stroke="#263238" stroke-width="0.75" stroke-miterlimit="10"/>
<path d="M172.2 466.592C172.2 466.592 172.2 476.812 169.764 477.694C167.431 478.627 164.94 479.102 162.428 479.094C160.874 478.87 150.43 475.328 148.428 473.984C146.426 472.64 144.424 469.784 145.544 467.096L146.65 464.436C150.026 465.014 153.445 465.309 156.87 465.318C162.47 465.318 171.752 463.54 172.424 464.212C173.096 464.884 172.2 466.592 172.2 466.592Z" fill="white" stroke="#263238" stroke-width="0.75" stroke-miterlimit="10"/>
<path d="M175.574 452.816C176.036 453.081 176.413 453.471 176.661 453.942C176.909 454.414 177.018 454.946 176.974 455.476C176.974 457.478 179.648 463.47 176.54 465.472C173.432 467.474 163.576 469 161.574 469C159.572 469 147.798 464.8 146.692 464.338C145.586 463.876 145.586 459.886 146.034 458.332C146.482 456.778 150.472 456.344 150.472 456.344C150.472 456.344 167.58 455.924 175.574 452.816Z" fill="white" stroke="#263238" stroke-width="0.75" stroke-miterlimit="10"/>
<path d="M169.806 439.264C169.806 439.264 162.694 444.584 161.406 445.032C160.118 445.48 150.514 448.812 150.514 448.812C150.514 448.812 149.114 449.484 149.114 452.144C149.136 453.296 149.572 454.402 150.344 455.259C151.115 456.115 152.17 456.665 153.314 456.806C155.54 457.254 163.534 458.584 166.432 457.478C170.38 455.533 174.179 453.301 177.8 450.8C179.802 449.47 180.026 447.692 178.906 445.2C177.951 442.804 177.138 440.355 176.47 437.864" fill="white"/>
<path d="M169.806 439.264C169.806 439.264 162.694 444.584 161.406 445.032C160.118 445.48 150.514 448.812 150.514 448.812C150.514 448.812 149.114 449.484 149.114 452.144C149.136 453.296 149.572 454.402 150.344 455.259C151.115 456.115 152.17 456.665 153.314 456.806C155.54 457.254 163.534 458.584 166.432 457.478C170.38 455.533 174.179 453.301 177.8 450.8C179.802 449.47 180.026 447.692 178.906 445.2C177.951 442.804 177.138 440.355 176.47 437.864" stroke="#263238" stroke-width="0.75" stroke-miterlimit="10"/>
<path d="M105.798 139.132C105.798 139.132 121.058 143.766 126.49 143.822C131.922 143.878 148.022 141.204 155.372 135.52C162.047 130.213 168.206 124.288 173.768 117.824C178.318 112.602 181.706 112.84 182.028 119.63C182.35 126.42 178.402 134.246 174.272 138.124C170.142 142.002 163.492 145.124 163.212 146.328C162.932 147.532 162.176 149.688 162.176 149.688C162.176 149.688 174.104 156.296 181.286 159.25C188.468 162.204 193.732 165.144 192.024 168.294C190.316 171.444 185.822 175.056 183.26 177.87C180.698 180.684 166.306 190.876 161.756 192.276C158.38 193.455 154.881 194.249 151.326 194.642C149.1 194.642 148.526 195.594 144.76 193.494C141.659 191.676 138.462 190.026 135.184 188.552C133.658 188.02 131.488 188.37 125.65 183.932C121.994 181.116 118.516 178.076 115.234 174.832L92.554 168.714L105.798 139.132Z" fill="white" stroke="#263238" stroke-width="0.75" stroke-miterlimit="10"/>
<path d="M114.044 139.832L98.4339 177.296L82.8379 173.516L100.618 135.688L114.044 139.832Z" fill="white" stroke="#263238" stroke-width="0.75" stroke-miterlimit="10"/>
<path d="M79.128 124.152L106.918 135.282L88.186 179.788L45.262 171.78L47.194 168.77L79.128 124.152Z" fill="#263238" stroke="#263238" stroke-width="0.75" stroke-miterlimit="10"/>
<path d="M161.742 151.83C161.742 151.83 156.38 162.75 154.742 165.088C153.104 167.426 143.542 170.142 141.414 169.288" stroke="#263238" stroke-width="0.75" stroke-miterlimit="10"/>
<path d="M147.77 178.99C147.77 178.99 144.592 178.08 143.766 180.768C142.94 183.456 146.16 190.4 147.658 193.648C149.156 196.896 150.178 197.372 154.238 197.848C156.618 198.122 159.014 197.498 160.958 196.098C159.169 194.752 157.484 193.274 155.918 191.674L147.77 178.99Z" fill="white" stroke="#263238" stroke-width="0.75" stroke-miterlimit="10"/>
<path d="M171.906 189.154C171.906 189.154 165.956 197.47 163.506 196.77C161.074 196.146 158.783 195.063 156.758 193.578C155.624 192.5 149.198 183.526 148.358 181.286C147.518 179.046 147.574 175.518 150.024 174.006L152.474 172.48C154.878 174.92 157.487 177.149 160.272 179.144C164.794 182.378 173.418 186.368 173.572 187.292C173.726 188.216 171.906 189.154 171.906 189.154Z" fill="white" stroke="#263238" stroke-width="0.75" stroke-miterlimit="10"/>
<path d="M182.63 179.886C182.829 180.374 182.891 180.907 182.809 181.427C182.728 181.947 182.506 182.436 182.168 182.84C181.006 184.464 179.676 190.89 175.994 190.708C172.312 190.526 163.394 186.102 161.812 184.94C160.23 183.778 153.062 173.488 152.418 172.48C151.774 171.472 154.098 168.28 155.372 167.216C156.646 166.152 160.146 168.168 160.146 168.168C160.146 168.168 174.314 177.8 182.63 179.886Z" fill="white" stroke="#263238" stroke-width="0.75" stroke-miterlimit="10"/>
<path d="M185.822 165.508C185.822 165.508 176.932 165.704 175.588 165.298C174.244 164.892 164.542 162.022 164.542 162.022C164.542 162.022 163.142 161.798 161.518 163.968C160.864 164.92 160.576 166.076 160.707 167.223C160.838 168.371 161.38 169.432 162.232 170.212C163.786 171.864 169.512 177.604 172.508 178.388C176.841 179.097 181.221 179.485 185.612 179.55C188.006 179.634 189.224 178.318 189.742 175.686C190.358 173.18 191.12 170.711 192.024 168.294" fill="white"/>
<path d="M185.822 165.508C185.822 165.508 176.932 165.704 175.588 165.298C174.244 164.892 164.542 162.022 164.542 162.022C164.542 162.022 163.142 161.798 161.518 163.968C160.864 164.92 160.576 166.076 160.707 167.223C160.838 168.371 161.38 169.432 162.232 170.212C163.786 171.864 169.512 177.604 172.508 178.388C176.841 179.097 181.221 179.485 185.612 179.55C188.006 179.634 189.224 178.318 189.742 175.686C190.358 173.18 191.12 170.711 192.024 168.294" stroke="#263238" stroke-width="0.75" stroke-miterlimit="10"/>
<path d="M310.8 342.09C310.8 342.09 301 385.014 300.608 405.202C300.216 425.39 301.336 498.148 301.714 513.758C302.092 529.368 308.952 580.034 308.952 584.598C308.952 589.162 310.1 597.926 310.1 597.926L307.048 614.306C304.061 616.614 300.875 618.652 297.528 620.396C290.668 624.204 282.674 629.16 280.392 631.82C280.114 632.14 279.917 632.522 279.817 632.935C279.718 633.347 279.719 633.777 279.821 634.189C279.922 634.6 280.121 634.982 280.401 635.3C280.681 635.619 281.033 635.866 281.428 636.02C284.143 637.083 287.003 637.73 289.912 637.938C296.38 638.316 307.048 638.316 312.76 636.79C318.472 635.264 323.05 630.322 325.71 628.39L328.384 626.486L328.762 630.686C330.044 630.497 331.315 630.24 332.57 629.916C335.365 629.111 338.05 627.963 340.564 626.5C340.564 626.5 340.942 620.018 340.942 616.21C340.942 612.402 339.038 605.542 338.66 604.03C338.282 602.518 338.66 588.784 337.526 584.22C336.392 579.656 335.622 580.79 334.852 572.418C334.082 564.046 340.942 484.806 340.564 482.524C340.186 480.242 350.252 411.6 350.252 411.6C350.252 411.6 369.502 501.2 375.592 518.35C381.682 535.5 384.734 568.624 384.734 570.92C384.734 573.216 388.164 600.236 389.69 604.058C391.216 607.88 395.402 619.668 395.402 619.668C395.402 619.668 401.492 628.81 404.152 633.374C406.812 637.938 415.968 641.774 422.814 642.894C429.66 644.014 435.008 644.42 435.414 635.278C435.82 626.136 432.376 620.046 426.65 615.86C420.924 611.674 419.804 607.866 419.804 607.866C420.218 602.274 420.218 596.658 419.804 591.066C419.034 584.584 414.848 579.628 414.47 566.3C414.092 552.972 411.418 482.888 409.136 471.842C406.854 460.796 403.844 386.904 404.222 376.642C404.6 366.38 403.256 337.708 403.256 337.708L310.52 336.658L310.8 342.09Z" fill="#263238" stroke="#263238" stroke-width="0.75" stroke-miterlimit="10"/>
<path d="M347.2 188.636C347.2 188.636 333.046 197.036 323.022 201.992C312.998 206.948 300.762 209.832 299.516 212.646C298.27 215.46 276.64 261.548 272.566 267.806C268.492 274.064 258.776 286.3 260.652 293.188C262.528 300.076 270.368 309.484 275.38 308.868C280.392 308.252 290.43 305.41 294.504 298.214C298.578 291.018 308.294 267.806 308.294 267.806C308.294 267.806 309.862 289.436 309.54 300.09C309.218 310.744 309.232 319.522 308.602 324.842C307.972 330.162 305.158 336.756 306.404 338.632C307.65 340.508 309.204 342.398 310.8 342.09C312.396 341.782 335.874 341.46 343 341.768C350.126 342.076 382.802 341.768 389.704 342.09C396.606 342.412 402.556 338.954 403.172 337.694C403.788 336.434 405.062 334.558 404.432 327.67C403.802 320.782 405.062 299.782 406.938 291.634C408.814 283.486 420.098 252.14 420.098 252.14C420.098 252.14 449.876 275.646 456.148 277.522C462.42 279.398 479.332 276.584 484.974 269.696C490.616 262.808 492.492 257.46 489.048 252.77C485.604 248.08 473.06 243.684 459.9 229.572C446.74 215.46 441.7 208.894 432.642 204.498C423.584 200.102 405.062 194.166 400.666 192.276C396.27 190.386 395.066 189.476 392.266 188.202C389.466 186.928 382.858 184.45 370.636 184.128C362.608 184.129 354.655 185.659 347.2 188.636Z" fill="#0062B8" stroke="#263238" stroke-width="0.75" stroke-miterlimit="10"/>
<path d="M301.966 245.602C302.4 247.114 308.28 267.806 308.28 267.806L299.6 250.6" stroke="#263238" stroke-width="0.75" stroke-miterlimit="10"/>
<path d="M420.154 252.14C418.852 252.14 406.532 245.14 406.532 245.14" stroke="#263238" stroke-width="0.75" stroke-miterlimit="10"/>
<path d="M400.26 244.314C400.26 244.314 405.23 250.796 409.556 252.084" stroke="#263238" stroke-width="0.75" stroke-miterlimit="10"/>
<path d="M345.436 207.858L349.37 222.712C349.37 222.712 336.91 284.998 334.95 295.512C333.756 301.864 332.952 308.284 332.542 314.734L343.462 336.364L357.238 312.984C357.238 312.984 355.922 283.486 355.488 259.896C355.054 236.306 355.922 224.896 355.698 224.28C355.474 223.664 369.474 213.346 369.474 213.346C369.474 213.346 377.552 204.386 377.986 202.86C378.42 201.334 372.316 203.294 370.986 204.61C369.497 205.87 367.734 206.763 365.837 207.217C363.941 207.672 361.964 207.676 360.066 207.228C354.382 206.136 346.948 199.808 345.856 202.86C345.202 204.442 345.056 206.189 345.436 207.858Z" fill="#263238" stroke="#263238" stroke-width="0.75" stroke-miterlimit="10"/>
<path d="M354.83 182.518C354.172 182.952 348.936 184.268 347.186 188.636C345.436 193.004 336.476 213.108 333.858 216.384C331.24 219.66 335.384 218.344 338.884 216.16C342.384 213.976 345.436 205.464 347.396 209.16C349.356 212.856 355.054 214.396 355.054 214.396C355.054 214.396 366.842 212.212 369.474 210.462C371.268 209.21 372.949 207.805 374.5 206.262C374.5 206.262 384.552 221.34 387.38 222.642C390.208 223.944 390.67 221.774 390.88 219.366C391.916 210.588 393.595 201.899 395.906 193.368C398.706 183.974 393.288 180.908 389.788 176.988C386.288 173.068 382.354 175.672 378.434 176.106C374.514 176.54 354.83 182.518 354.83 182.518Z" fill="#0062B8" stroke="#263238" stroke-width="0.75" stroke-miterlimit="10"/>
<path d="M348.838 115.234C348.838 115.234 342.006 125.608 343.238 128.128C344.47 130.648 344.498 133.952 343.238 135.716C342.286 136.876 341.591 138.224 341.197 139.671C340.804 141.119 340.722 142.634 340.956 144.116C341.46 148.414 338.94 170.156 342.734 172.69C345.173 174.277 347.803 175.552 350.56 176.484C350.56 176.484 354.858 212.884 356.384 211.876C357.91 210.868 379.68 188.566 382.2 183.75C384.72 178.934 387.8 172.13 387.8 172.13C387.8 172.13 396.396 155.694 401.45 148.862C406.504 142.03 412.328 129.402 410.564 122.822C408.8 116.242 399.686 111.44 395.388 107.898C391.09 104.356 393.876 96.2779 387.8 92.2319C381.724 88.1859 374.402 87.1779 369.6 88.9419C364.798 90.7059 364.546 94.5419 358.722 90.7059C352.898 86.8699 347.354 83.1319 338.506 87.4299C329.658 91.7279 327.88 106.89 333.186 110.936C338.492 114.982 348.838 115.234 348.838 115.234Z" fill="white" stroke="#263238" stroke-width="0.75" stroke-miterlimit="10"/>
<path d="M395.36 107.898C391.062 104.37 393.848 96.2779 387.772 92.2319C381.696 88.1859 374.374 87.1779 369.572 88.9419C364.77 90.7059 364.518 94.5419 358.694 90.7059C352.87 86.8699 347.326 83.1319 338.478 87.4299C329.63 91.7279 327.852 106.89 333.158 110.936C338.464 114.982 348.838 115.234 348.838 115.234C348.838 115.234 356.426 111.692 361.438 108.92C366.45 106.148 377.874 110.684 379.89 112.462C381.906 114.24 378.882 112.966 378.378 116.242C377.874 119.518 384.188 124.852 386.974 127.442C389.76 130.032 386.47 131.74 385.714 135.03C384.958 138.32 387.982 139.58 389.76 138.32C391.538 137.06 397.082 129.92 399.112 134.022C401.142 138.124 404.166 144.13 398.608 148.428C393.05 152.726 388.99 151.718 388.99 151.718C388.99 151.718 387.184 162.666 392.434 163.52C395.159 158.504 398.145 153.635 401.38 148.932C406.448 142.114 412.258 129.472 410.494 122.892C408.73 116.312 399.658 111.44 395.36 107.898Z" fill="#263238" stroke="#263238" stroke-width="0.75" stroke-miterlimit="10"/>
<path d="M362.488 128.632C364.101 128.03 365.823 127.772 367.542 127.876" stroke="#263238" stroke-width="0.5" stroke-miterlimit="10"/>
<path d="M349.552 131.124C348.304 131.388 347.098 131.821 345.968 132.412" stroke="#263238" stroke-width="0.5" stroke-miterlimit="10"/>
<path d="M349.636 124.222C350.535 125.943 350.798 127.926 350.378 129.822C349.552 132.622 341.726 138.74 341.824 139.93C341.922 141.12 346.416 143.612 346.332 144.62C346.248 145.628 345.968 147.294 345.968 147.294" stroke="#263238" stroke-width="0.75" stroke-miterlimit="10"/>
<path d="M366.744 132.132C367.656 132.132 368.396 131.223 368.396 130.102C368.396 128.981 367.656 128.072 366.744 128.072C365.831 128.072 365.092 128.981 365.092 130.102C365.092 131.223 365.831 132.132 366.744 132.132Z" fill="#263238" stroke="#263238" stroke-width="0.5" stroke-miterlimit="10"/>
<path d="M363.524 133.42C365.747 132.489 368.116 131.958 370.524 131.852" stroke="#263238" stroke-width="0.75" stroke-miterlimit="10"/>
<path d="M357.686 121.24C357.686 121.24 363.104 116.214 367.304 117.222C371.504 118.23 373.1 122.276 372.428 122.29C371.756 122.304 369.628 119.182 367.332 118.944C365.036 118.706 363.398 119.798 361.41 120.806C359.422 121.814 358.204 122.514 357.686 121.24Z" fill="#263238" stroke="#263238" stroke-width="0.5" stroke-miterlimit="10"/>
<path d="M350 125.23C349.937 124.888 349.804 124.564 349.608 124.277C349.412 123.99 349.158 123.748 348.862 123.566C348.566 123.384 348.236 123.266 347.891 123.219C347.547 123.173 347.197 123.2 346.864 123.298C344.386 123.676 342.51 128.184 343.266 128.128C344.022 128.072 344.848 125.23 346.78 124.964C348.712 124.698 350 127.722 350 125.23Z" fill="#263238" stroke="#263238" stroke-width="0.5" stroke-miterlimit="10"/>
<path d="M345.8 153.006C345.8 153.006 349.762 152.544 354.914 151.9C360.066 151.256 367.318 150.248 368.522 146.566C369.208 144.782 369.518 142.875 369.432 140.966" stroke="#263238" stroke-width="0.75" stroke-miterlimit="10"/>
<path d="M366.646 140.686C368.154 140.562 369.672 140.657 371.154 140.966" stroke="#263238" stroke-width="0.75" stroke-miterlimit="10"/>
<path d="M387.87 158.858C387.145 162.271 385.141 165.276 382.27 167.258C377.678 170.184 343.952 173.53 345.072 173.95C346.192 174.37 350.574 176.47 350.574 176.47L351.89 188.44C357.201 183.738 363.109 179.756 369.46 176.596C380.632 170.8 387.604 168.882 387.87 158.858Z" fill="#263238" stroke="#263238" stroke-width="0.5" stroke-miterlimit="10"/>
<path d="M406.686 322.336C406.686 322.336 400.414 322.028 398.846 321.72C397.278 321.412 392.266 316.694 390.068 317.016C387.87 317.338 383.81 321.72 382.242 325.416C380.674 329.112 380.044 331.016 380.044 331.016C380.044 331.016 374.444 336.028 377.244 339.416C380.044 342.804 383.208 341.614 383.208 341.614C383.208 341.614 385.084 344.75 387.59 345.058C389.45 345.264 391.319 345.372 393.19 345.38C394.812 345.877 396.507 346.09 398.202 346.01C399.541 345.716 400.816 345.185 401.968 344.442C403.298 344.597 404.638 344.258 405.734 343.49C406.882 342.58 412.44 336.896 415.31 333.97L417.004 332.22L406.686 322.336Z" fill="white" stroke="#263238" stroke-width="0.75" stroke-miterlimit="10"/>
<path d="M459.018 257.782C459.018 257.782 447.426 270.634 443.618 276.892C437.549 286.441 430.959 295.648 423.878 304.472C419.496 309.484 404.138 321.72 404.138 321.72C404.138 321.72 408.828 331.744 412.286 333.312C414.298 334.238 416.393 334.969 418.544 335.496L431.144 326.102C431.144 326.102 454.944 307.902 467.544 297.584C480.144 287.266 497.63 273.448 498.89 267.498C500.15 261.548 499.198 258.412 492.94 253.708C489.045 250.825 484.704 248.602 480.088 247.128" fill="#0062B8"/>
<path d="M459.018 257.782C459.018 257.782 447.426 270.634 443.618 276.892C437.549 286.441 430.959 295.648 423.878 304.472C419.496 309.484 404.138 321.72 404.138 321.72C404.138 321.72 408.828 331.744 412.286 333.312C414.298 334.238 416.393 334.969 418.544 335.496L431.144 326.102C431.144 326.102 454.944 307.902 467.544 297.584C480.144 287.266 497.63 273.448 498.89 267.498C500.15 261.548 499.198 258.412 492.94 253.708C489.045 250.825 484.704 248.602 480.088 247.128" stroke="#263238" stroke-width="0.75" stroke-miterlimit="10"/>
<path d="M413.896 313.88C413.896 313.88 416.696 327.67 426.426 327.67" stroke="#263238" stroke-width="0.75" stroke-miterlimit="10"/>
<path d="M277.34 212.338C277.34 212.338 278.628 223.356 279.286 228.326C279.474 230.83 280.21 233.263 281.442 235.452C281.442 235.452 271.292 258.132 270.858 258.79C270.424 259.448 259.84 279.314 258.104 281.68C256.368 284.046 252.28 291.62 254.87 296.38C257.46 301.14 261.562 310.856 266.966 311.066C272.37 311.276 279.93 308.042 285.166 305.018C290.402 301.994 292.082 300.048 292.516 291.41C292.95 282.772 292.726 267.218 294.252 259C295.778 250.782 296.842 242.2 297.92 238.91C298.998 235.62 305.27 236.754 307.426 235.452C309.582 234.15 311.528 231.35 315.42 229.614C318.795 228.33 322.466 228.034 326.004 228.76C327.306 229.194 329.672 227.248 329.028 224.868C328.384 222.488 324.058 221.2 319.732 221.62C315.406 222.04 311.528 223.356 310.45 222.712C309.372 222.068 308.294 210.602 308.294 210.602C308.294 210.602 292.894 211.904 287.546 212.114C282.198 212.324 277.34 212.338 277.34 212.338Z" fill="white" stroke="#263238" stroke-width="0.75" stroke-miterlimit="10"/>
<path d="M301.098 203.91C301.098 203.91 301.322 218.176 301.322 219.464C301.325 219.764 301.389 220.061 301.512 220.335C301.635 220.609 301.813 220.855 302.035 221.058C302.257 221.26 302.518 221.415 302.803 221.511C303.087 221.608 303.388 221.645 303.688 221.62C304.78 221.41 307.58 222.488 308.238 219.254C308.896 216.02 310.17 206.934 309.526 204.778C308.882 202.622 303.044 201.754 301.098 203.91Z" fill="white" stroke="#263238" stroke-width="0.75" stroke-miterlimit="10"/>
<path d="M301.098 203.91C301.098 203.91 294.196 202.188 292.25 203.266C290.304 204.344 293.328 219.688 293.538 220.976C293.748 222.264 296.786 222.922 298.074 222.488C299.362 222.054 301.322 221.2 301.322 219.464C301.322 217.728 301.098 203.91 301.098 203.91Z" fill="white" stroke="#263238" stroke-width="0.75" stroke-miterlimit="10"/>
<path d="M290.738 203.7C290.738 203.7 286.202 202.832 284.9 204.344C283.598 205.856 283.178 208.012 283.598 211.904C284.169 215.734 285.336 219.452 287.056 222.922C287.924 224.224 290.738 224.434 292.46 223.79C294.182 223.146 293.538 220.99 293.538 220.99C293.538 220.99 292.67 220.122 292.46 213.43C292.25 206.738 292.25 203.28 292.25 203.28L290.738 203.7Z" fill="white" stroke="#263238" stroke-width="0.75" stroke-miterlimit="10"/>
<path d="M283.178 206.29C282.31 206.5 276.906 206.724 276.696 208.88C276.486 211.036 278.418 221.2 279.286 222.278C280.154 223.356 282.52 222.922 283.388 222.488C284.256 222.054 285.768 221.41 285.544 220.108C285.32 218.806 283.178 206.29 283.178 206.29Z" fill="white" stroke="#263238" stroke-width="0.75" stroke-miterlimit="10"/>
<path d="M284.9 249.06C283.348 248.813 281.887 248.167 280.66 247.185C279.433 246.203 278.482 244.92 277.9 243.46C274.932 250.068 271.152 258.426 270.9 258.86C270.466 259.504 259.882 279.384 258.146 281.75C256.41 284.116 252.322 291.69 254.912 296.45C257.502 301.21 261.604 310.926 267.008 311.136C272.412 311.346 279.972 308.112 285.208 305.088C290.444 302.064 292.124 300.118 292.558 291.48C292.992 282.842 292.768 267.288 294.294 259.07C295.022 255.038 295.694 250.922 296.254 247.366C292.608 248.635 288.757 249.209 284.9 249.06Z" fill="#0062B8" stroke="#263238" stroke-width="0.75" stroke-miterlimit="10"/>
<path d="M294.84 225.302C294.84 225.302 291.158 228.536 290.738 231.35C290.52 233.148 290.898 234.968 291.816 236.53" fill="white"/>
<path d="M294.84 225.302C294.84 225.302 291.158 228.536 290.738 231.35C290.52 233.148 290.898 234.968 291.816 236.53" stroke="#263238" stroke-width="0.75" stroke-miterlimit="10"/>
</svg>
